/* XPM */
static char *_699_2a2af53e08e036e37482b1c90cc3bca2cd3d1b555402693df406960b357f2a42[] = {
/* columns rows colors chars-per-pixel */
"64 64 253 2 ",
"   c #353036",
".  c #070100",
"X  c #6C1937",
"o  c #623939",
"O  c #5D463B",
"+  c #143745",
"@  c #243F51",
"#  c #6B2248",
"$  c #1A465D",
"%  c #27495A",
"&  c #37585A",
"*  c #354C52",
"=  c #1B5775",
"-  c #254C68",
";  c #295767",
":  c #355767",
">  c #365D76",
",  c #295976",
"<  c #38677A",
"1  c #336C71",
"2  c #504F4F",
"3  c #6C5A52",
"4  c #696C57",
"5  c #505871",
"6  c #4A686A",
"7  c #4E6A73",
"8  c #7A7B74",
"9  c #6A706D",
"0  c #90182C",
"q  c #A41A3B",
"w  c #8E2632",
"e  c #83602A",
"r  c #B34D49",
"t  c #917350",
"y  c #AF7056",
"u  c #8E766C",
"i  c #B16E61",
"p  c #855445",
"a  c #CD6B62",
"s  c #73847B",
"d  c #A69755",
"f  c #AD8E52",
"g  c #B8A457",
"h  c #968469",
"j  c #898679",
"k  c #989375",
"l  c #A79D64",
"z  c #B49878",
"x  c #B38F6D",
"c  c #9AA77B",
"v  c #8DA17E",
"b  c #B6AA69",
"n  c #A4A777",
"m  c #ADA76C",
"M  c #91835C",
"N  c #D7AC47",
"B  c #D7B348",
"V  c #C7A958",
"C  c #D3AD57",
"Z  c #DAB759",
"A  c #CCAF52",
"S  c #E3BB59",
"D  c #E1B344",
"F  c #C5976E",
"G  c #C9A764",
"H  c #C8B468",
"J  c #D8B868",
"K  c #D3AA76",
"L  c #CEAD76",
"P  c #E3BB78",
"I  c #E1BC66",
"U  c #E8C45B",
"Y  c #F3C85B",
"T  c #D6C372",
"R  c #EDCC65",
"E  c #ECCC6C",
"W  c #E7C666",
"Q  c #F3CD65",
"!  c #F3CD6D",
"~  c #F5CB69",
"^  c #EDD26E",
"/  c #EDD164",
"(  c #F3D26C",
")  c #FAD26C",
"_  c #F3D76C",
"`  c #EDCD72",
"'  c #EDCB78",
"]  c #F2CE72",
"[  c #F3CC7A",
"{  c #EED374",
"}  c #EBD47B",
"|  c #F4D373",
" . c #FAD474",
".. c #F4D47A",
"X. c #FAD47B",
"o. c #F8DA79",
"O. c #E9D16B",
"+. c #37688A",
"@. c #3A7387",
"#. c #3A7996",
"$. c #2F6E8D",
"%. c #3B5D82",
"&. c #476A85",
"*. c #4A788A",
"=. c #477A95",
"-. c #55708E",
";. c #68708D",
":. c #477CA6",
">. c #6B78A9",
",. c #585B84",
"<. c #52849C",
"1. c #4F898B",
"2. c #7B948D",
"3. c #779999",
"4. c #6E8990",
"5. c #71AE9E",
"6. c #5889A6",
"7. c #568AB2",
"8. c #699AA6",
"9. c #6598B5",
"0. c #6A8CB6",
"q. c #7AA9A5",
"w. c #6CA3B5",
"e. c #74A5B7",
"r. c #7DB4B8",
"t. c #6FAFA9",
"y. c #56A2BC",
"u. c #7CC1AE",
"i. c #5C93C7",
"p. c #6A97CA",
"a. c #6B96D0",
"s. c #5CACCA",
"d. c #79B6C9",
"f. c #6AB7D8",
"g. c #7BB9D6",
"h. c #6DAACB",
"j. c #6DBEE7",
"k. c #75BDE6",
"l. c #6BC3DE",
"z. c #7BC4DC",
"x. c #7AC4DA",
"c. c #6DC4E5",
"v. c #6EC9E5",
"b. c #6EC6ED",
"n. c #6DC9EB",
"m. c #67C9E9",
"M. c #74C5E5",
"N. c #7AC4E4",
"B. c #72C8E5",
"V. c #72C6EC",
"C. c #7AC4EC",
"Z. c #72C9EC",
"A. c #7BCAEC",
"S. c #7CC9E4",
"D. c #6EC6F2",
"F. c #6BC9F2",
"G. c #6DC6F8",
"H. c #68C8F5",
"J. c #73C4F2",
"K. c #79C5F3",
"L. c #74CAF3",
"P. c #7ACAF3",
"I. c #74C4F9",
"U. c #76CCF9",
"Y. c #78D0EF",
"T. c #838886",
"R. c #87978A",
"E. c #929691",
"W. c #A79986",
"Q. c #B69C8C",
"!. c #8DA58B",
"~. c #89AB9A",
"^. c #97AC97",
"/. c #97B59C",
"(. c #94AA88",
"). c #A7AB89",
"_. c #A7B38A",
"`. c #B6B986",
"'. c #A8A695",
"]. c #BAA996",
"[. c #A6B896",
"{. c #B6BA97",
"}. c #B5A589",
"|. c #8A9FA9",
" X c #87ACA8",
".X c #86B3A9",
"XX c #95B7A8",
"oX c #88B8B8",
"OX c #95BCB9",
"+X c #8EAAAF",
"@X c #A6B5A3",
"#X c #C4A98B",
"$X c #DAB885",
"%X c #D6AD94",
"&X c #C7B59A",
"*X c #D6B698",
"=X c #CCAB96",
"-X c #E5BB96",
";X c #E4BC88",
":X c #D9BCA2",
">X c #D3BEAF",
",X c #EABEA9",
"<X c #C69A81",
"1X c #C5C689",
"2X c #D8CA8A",
"3X c #DAD288",
"4X c #C6C693",
"5X c #DBD395",
"6X c #D5CC97",
"7X c #E9C986",
"8X c #EAD789",
"9X c #F6DA87",
"0X c #ECC395",
"qX c #ECC39C",
"wX c #E8C59A",
"eX c #F3C49C",
"rX c #F4C999",
"tX c #E4D895",
"yX c #F7D599",
"uX c #F1E18E",
"iX c #DCC2A8",
"pX c #CEC7AF",
"aX c #EDC3A3",
"sX c #ECCBA4",
"dX c #E9C7A9",
"fX c #F2C4A2",
"gX c #F1CCA3",
"hX c #F8C7A6",
"jX c #F5D1A8",
"kX c #E8CBB4",
"lX c #F1CDB5",
"zX c #FCD8B7",
"xX c #E8D3B1",
"cX c #85B8C6",
"vX c #83BCD5",
"bX c #91B7CA",
"nX c #8ABFE4",
"mX c #88C2C9",
"MX c #83C3D4",
"NX c #83C4DB",
"BX c #89C5D8",
"VX c #96C5CD",
"CX c #83C4E2",
"ZX c #84CBEC",
"AX c #86C9E6",
"SX c #92CAE8",
"DX c #85CDF5",
"FX c #D9D4C9",
"GX c #F6DACB",
"HX c #FAEFDF",
"JX c #FFF9E9",
"KX c #FEFDF3",
"LX c #F9EAE3",
/* pixels */
"V.V.V.b.b.V.V.D.V.Z.V.V.V.V.J.V.J.J.D.H.m.m.b.J.B.n.B.n.b.b.J.J.J.J.V.D.b.n.L.K.C.C.C.V.V.V.D.J.J.J.D.J.V.b.V.B.J.J.J.V.V.v.v.v.",
"V.V.V.V.V.V.V.V.V.V.V.b.V.b.V.V.V.V.D.b.n.b.b.V.V.V.V.V.V.V.J.J.J.J.L.b.m.n.V.V.V.V.V.V.J.V.b.b.D.J.D.V.n.V.V.V.V.V.V.V.b.b.B.v.",
"V.b.V.J.Z.V.V.V.V.V.V.Z.b.V.b.Z.M.M.M.V.Z.V.V.V.V.V.V.V.J.V.J.J.V.b.n.m.b.v.V.V.b.b.b.D.J.V.v.M.V.D.V.V.n.v.n.n.b.b.Z.V.J.J.D.D.",
"V.V.Z.b.D.V.V.b.b.V.J.b.V.V.V.V.V.C.M.C.K.K.V.v.V.J.J.J.V.K.B.V.V.V.m.b.M.C.V.b.n.F.F.L.J.V.B.B.B.V.B.B.B.B.m.n.b.n.V.V.V.D.I.I.",
"V.V.V.J.b.Z.V.V.b.V.J.V.V.V.b.b.n.m.J.V.J.D.D.b.D.D.J.b.V.V.B.B.N.M.v.v.b.J.b.b.m.H.G.G.J.C.M.B.V.V.M.M.M.B.b.n.m.n.M.V.C.V.J.D.",
"V.b.V.V.V.b.V.Z.V.Z.b.V.V.V.L.b.F.n.b.V.b.F.n.b.Z.b.b.J.V.C.n.B.V.V.v.v.J.J.Z.n.m.F.G.G.J.C.M.M.B.V.V.M.V.V.b.b.n.n.B.M.V.M.J.J.",
"L.V.V.V.V.V.b.b.V.V.b.V.V.b.b.V.n.v.B.B.n.n.b.V.V.V.V.V.b.b.m.m.n.F.F.F.V.M.M.B.n.n.D.b.V.M.b.v.n.M.C.V.V.J.V.V.V.B.v.B.B.B.b.V.",
"b.V.V.b.V.V.V.J.b.V.V.V.V.V.Z.V.M.B.B.B.n.b.D.J.M.V.C.V.D.n.b.n.D.F.H.F.b.V.M.B.V.b.V.V.V.V.b.b.n.n.b.V.I.J.I.V.V.V.M.n.V.M.b.B.",
"V.V.V.b.D.Z.b.V.V.L.J.b.b.V.V.V.v.m.Y.D.B.L.G.G.b.M.C.Z.G.F.I.K.K.j.J.L.b.V.M.K.k.V.b.J.A.k.P.V.D.m.b.G.G.I.I.k.V.V.V.b.D.b.Z.V.",
"V.b.V.L.V.V.V.V.b.Z.V.V.V.V.V.M.x.MXd.NXCXC.G.G.L.M.M.V.n.G.I.j.J.J.V.V.D.L.I.k.A.C.z.MXd.h.k.J.m.m.H.H.G.I.k.V.V.K.Z.D.D.D.V.J.",
"V.V.V.V.V.V.V.V.V.V.V.b.b.b.c.d.2.[.'.^.^.bXP.G.m.n.l.B.Z.b.P.K.j.P.M.j.V.b.D.J.l.MX.X/.~.q.S.n.F.F.D.c.P.V.V.A.C.V.b.b.D.D.J.V.",
"J.b.V.b.V.V.b.Z.b.V.b.V.V.L.L.g.^.}.2X3X4X^. XMXCXM.v.l.M.A.j.I.I.V.V.Z.v.c.J.C.VX5._.pXR.VXx.z.S.A.z.CXNXx.S.v.b.b.n.n.V.V.V.V.",
"V.Z.V.V.V.V.V.J.V.V.V.V.V.V.V.N.vX^.b S ^ 8X1X(..XBXM.b.b.M.Z.c.K.V.b.b.c.V.A.MX^.`.5Xc oXZXNXx.cXoXoXOXoXmXMXx.n.b.b.V.C.V.V.n.",
"b.V.V.b.V.b.V.b.J.V.V.b.b.b.b.V.C.OXl A B / o.3X[. XMXA.b.Z.b.B.V.b.Z.v.b.A.MX.X`.uXJ l XXr.5.XX@X[.{._.[.XXt.f.V.b.V.V.M.B.b.n.",
"J.Z.V.V.Z.V.V.V.b.b.b.Z.L.Z.V.C.S.mX/.b A B R } 8X4X^.cXN.D.D.m.c.c.Z.v.n.z..X_.uXW V f b T 3XtX8X8X9X8X5X{.q.d.V.D.J.C.N.M.b.F.",
"b.b.b.V.b.J.b.V.V.V.C.z.x.MXr.r.r.~._.d Z B U | ^ uX*X^.MXZ.c.L.n.m.v.v.N.cX_.5X| Z C Z _ o. .(  .) S J m v OXAXV.J.J.J.M.b.F.F.",
"n.b.V.V.V.v.b.F.L.M.N.mX~.c n 1X3X3X7X' E Z B R | 9X8X1X~.MXC.D.L.n.m.l.MX!.5X..E B | o.E _ ) ) R C Z b !.mXMXS.M.V.D.F.V.V.b.m.",
"n.b.V.V.V.b.n.b.S.x.oX^.`.3XuX.. .X.| ] (  .( R E } E uX`.~.NXJ.b.L.n.z..X{.8X_ W W | ^  .) Q U N Z H k mXM.Z.C.C.V.G.F.b.b.D.D.",
"v.V.V.J.V.V.D.B.MX.Xn 8X8X} ^ |  ._ | | | ( ! (  .|  .[ uXn OXN.C.I.c.MX^.5X' ) R | _ | E _ U B B A (.oXBXB.F.G.b.V.D.b.b.b.b.J.",
"B.Z.V.J.J.V.V.z.u.XX3XT W A Z Z Z Y ( ^ ( ( (  .[ |  .~ _ 3X^.VXCXj.C.oX_.8XX.] _ ^ ^ W Z / B N B A c OXd.N.Z.b.V.b.V.b.b.V.V.V.",
"J.J.V.V.J.C.nXvX3./.n b G J C N B B B R ) U S W [ | !  .` yX4X~.CXV.S.q.1X..` | { | | Z ] W Z W Q Z m c /.oXx.S.A.J.k.K.J.J.V.M.",
"I.J.V.B.J.J.k.NXcX.X/._.l f N Y R R Q ! Q ) ~ Z ` | ( ( } 8XtX(.vXC.BX X} ) { { { | ` W X. .X. .X.o.uX3X1X_.~.cXvXC.K.k.J.J.V.C.",
"J.D.n.n.D.D.C.M.B.N.mXOXn H | ( o.} { o.] |  .` J .._ ( ` 8X8X4X8.@.< !.8X~ X.9X{ ..W X.R |  ./ ( E ..{ } uX3X`.+XvXC.J.F.n.n.m.",
"b.b.n.v.n.n.V.B.n.A.cX~.6X9X_ Q { { { { | ( ^ | ..| ( ^ { } 8Xn 4.cX3.!.8XQ ] [ } ` [ X.| ( / _ | R | | ^ T T _.3.d.A.F.b.b.m.v.",
"F.m.b.M.M.x.M.N.z.r.).5X8X| ^ ( ) ) | | { { _ { { { | ..! 9X`.9 3. X2.'.8X{ _ o._ |  .! ) _ ( R S W R Z J b !..XMXz.V.V.b.b.v.v.",
"m.F.C.C.N.M.M.NXoX[.3X` X.( ( ( ~ W Z U W ^ o.....^ ` | 9XH 4 4 6 2 4 }.L H J J J E [ [ X.| ! ! ~ S C A g n oXz.B.n.b.C.V.J.M.B.",
"I.I.b.b.J.I.P.BX(.2Xo. .] E R ( | ^ W W W ^ [ ~ !  . .E P e t W.].,X,XaXsXwX0XrX$Xx K K P [ 9XX.W S S J d ).VXl.b.D.V.V.G.G.V.V.",
"I.I.j.D.I.L.g.q.1X9XW S Z Z U ( | _ } o.( E X.[ 9X[ Z J P *XjXaXhX,XhXhX*X#X:X&X#X}.t aX;XG J [ ]  . .8X5X/.r.x.Z.J.J.K.I.G.J.J.",
"k.K.L.D.V.N.x.(.5XV H g Z / ( _ ^ | _ ^ (  . .X.P G P rXjXdXhXeX0XrXqXsXh '.W.. '.LX&X*XjX0X7XK I I C b m [. X8.x.M.V.Z.J.D.b.b.",
"V.K.J.D.b.z.mX.X).l l g ^ _ _ |  ._ ^ |  .] [ J P -XjX0X*X*XhX-X0XwXrXsXk KXKXFXKXKX].>XsX-XeXrXG V g l [./.XXoXx.B.V.b.V.V.b.D.",
"B.B.J.J.Z.M.d.w.d.OXn T o.| | ..[ ! | E X.[ F P hXsX*Xz $X-X,XeXhXrX-XdX=X=XGXLX>X#X*XaXeXrXrX0XyXF t s |.bXSXg.N.V.H.H.B.M.V.D.",
"n.n.b.b.Z.B.z.z.A.cX_.yX[ ` | Z Z ..{ 9XV b zX#Xz dXM -XhXhX-XhXqXaXaXdX,X>X=X].=X,XhXeXrX0X0XfXlXFX@X2.0.vXk.A.J.D.H.F.n.M.V.D.",
"M.n.n.n.n.b.N.z.z..X6X7X..o.( _  .` 9Xb b ].3 W.].h z hX-XeXaXfXeXeXfXqXdXdXxXlX,Xi gX0X0XyXsXiX'.8 |.cX9.vXP.V.b.F.F.H.D.V.J.D.",
"V.n.b.b.F.n.C.N.cX/.5X..` Z U Q ! [ ' f &X].O LXLXt x rXrX0XaXqX0XeXeXqXwXsXdXdXx %XgXjXxX&XW.8 3.cXcX9.vXZXk.V.b.F.F.F.D.V.V.V.",
"Z.V.V.K.D.D.Z.z.cX[.tXR A Z | !  .9X2XM HXKXKXLX#Xx p ;XgXgXsXwXfXqXqXqXqX0X,X<X-XzX:XW.2.>.e.vXBXNXnXA.M.M.L.Z.b.D.b.b.b.M.V.C.",
"F.b.V.V.V.J.b.z.oX@Xb d A o.|  .) [ L &X].FX>X#X#XK f t F F wXaXqXwXgX0XjXlXiXkX}.j 2.3.|.nXC.C.M.M.j.V.b.j.m.D.D.b.Z.V.V.C.M.M.",
"b.b.b.M.K.C.C.x.r.q. Xc J o.Q Y S C ;XhX-X%X%XeX-XF K F y F -XhXhXjX-XlX&X'.R.4.8.r.NXCXDXV.C.M.n.n.b.b.b.F.U.J.b.J.V.V.V.M.B.B.",
"n.n.V.V.K.V.M.M.S.d.vXXX2X/ Z A C G rX-XeXhXhX,XhX-X-XeXzXGXkXiX*X*XdXh s 3.cXvXS.Y.J.D.D.n.b.V.n.n.D.D.D.L.j.V.L.V.V.n.v.n.B.m.",
"C.B.V.b.b.D.n.b.J.U.ZX X2Xb n k t $XyXrXeXhXdXhXdXdX*X].'.E.E.R.9 &XlXu bXAXC.M.B.c.V.B.c.V.m.b.b.J.L.b.V.K.V.J.V.J.b.b.b.n.n.n.",
"V.V.m.v.F.n.b.b.G.j.N.d._.k XX4.9 &X}.Q.W.W.E.T.T.u s 2.3.e.d.bXE.pXlXu 4.nXM.m.n.M.V.b.C.V.L.b.b.V.V.A.K.V.V.V.V.V.L.b.D.D.D.F.",
"J.b.m.m.F.J.V.J.b.D.B.x.8.OXcX8. X2.4.8.w.w.h.d.g.g.CXNXAXz.A.CX|.8 zXt   +XnXJ.V.V.J.I.V.b.V.V.M.V.V.Z.V.V.V.b.V.V.V.V.J.J.J.J.",
"J.b.m.m.L.K.J.V.B.n.V.C.l.AXN.g.w.cXAXZXA.Y.P.K.L.b.Z.b.B.B.L.nX;.3 Q.O i ;.bXP.A.j.I.J.F.n.M.V.V.V.b.B.n.B.n.n.V.V.b.C.V.J.J.J.",
"B.M.n.V.J.J.K.b.b.b.C.M.A.B.B.v.S.S.M.k.j.J.V.b.M.M.V.V.V.P.h.< % O   3 u 2 1 y.A.b.K.J.H.H.b.Z.B.b.D.n.b.n.n.n.m.n.V.V.V.V.C.M.",
"M.C.V.V.I.J.V.V.b.J.K.k.Y.v.c.v.n.v.M.V.A.V.M.V.c.Z.Z.V.K.k.$.=.* 5 3.4   5 <.#.M.V.K.J.F.F.b.B.V.D.b.n.n.n.n.n.n.n.v.n.V.V.M.V.",
"DXk.C.V.G.G.b.B.b.b.V.V.V.Z.Z.V.b.K.K.k.k.N.C.b.F.D.J.k.DX#.#.9.: 4..X6 &.=.9.$.s.P.J.G.J.b.M.N.Z.V.J.b.b.b.b.b.b.m.n.b.b.b.v.v.",
"k.V.b.b.b.n.M.B.L.c.b.Z.V.V.V.J.I.K.K.A.C.A.b.c.J.D.D.DXh.$.6.@.1 5.5.6 7 < 6.$.s.A.k.V.I.V.M.M.V.V.b.V.J.V.V.b.Z.V.b.b.b.v.n.n.",
"J.D.F.F.b.V.V.V.J.b.c.V.V.b.j.I.J.b.V.b.v.m.b.L.D.V.A.N.#.<.> 7 1 u.s 2 s R.7 +.f.K.k.V.K.F.L.b.V.V.V.B.C.V.V.J.J.V.V.V.L.b.V.b.",
"n.b.F.D.V.M.V.V.V.I.V.c.L.D.J.J.D.b.D.D.b.F.D.b.V.M.DX6.@.7 : % @.5.s (.h 9 6 < ZXV.V.C.b.b.F.D.n.Z.V.V.V.V.J.V.V.K.J.J.V.Z.D.b.",
"b.b.D.D.V.V.b.V.J.D.b.V.V.Z.V.D.n.D.J.I.b.b.B.C.V.A.h.&.9 OX*.=.@.; 2.W.W.u % < ZXV.M.b.B.b.D.J.V.V.V.b.V.V.V.V.V.V.J.V.b.V.b.V.",
"b.V.V.Z.V.V.V.V.V.Z.J.V.V.b.V.n.v.n.I.I.V.v.B.B.A.C.:.> 7 s ; =.<.4.5 R.E.4 + &.ZXV.m.b.b.V.D.J.V.V.V.V.b.V.J.V.V.V.V.V.V.V.V.V.",
"V.V.V.V.V.b.b.L.V.V.V.V.Z.V.V.b.b.V.K.I.J.n.m.n.b.j.$.6.1.@.% ; < *.6.7 &.5 + 7.ZXV.F.F.b.Z.V.V.V.V.V.V.V.V.b.J.V.J.V.Z.V.V.V.L.",
"V.b.V.V.V.V.V.V.b.V.Z.b.b.V.V.V.v.M.V.V.b.m.m.n.U.f.= <.#.@.& + : < *.6.6.- $ 9.ZXb.L.F.b.Z.v.B.b.Z.b.V.V.b.Z.V.V.b.b.V.V.b.V.b.",
"V.Z.V.V.V.b.V.b.V.D.V.V.V.V.V.V.C.M.b.m.m.m.F.D.b.C.<.; $ $ ; s 5 % < *.&.$ - h.C.k.J.J.b.V.v.b.b.V.V.V.b.V.V.V.b.J.V.V.V.V.J.b.",
"V.D.Z.D.V.V.V.V.V.V.V.b.V.V.V.V.M.V.n.v.H.F.F.D.I.k.SX9.; % 1.u.< @ $ - % ; , g.C.J.J.K.M.V.b.b.b.V.V.b.V.Z.V.b.Z.V.V.b.V.b.Z.V.",
"V.b.V.V.V.b.Z.V.V.V.V.Z.V.V.b.V.n.V.V.V.D.F.D.J.J.J.AX=.1.1 5.5.1 #.$.$ : 1 = z.V.b.J.V.M.v.b.D.L.b.V.J.b.J.b.V.b.V.Z.V.V.V.V.V.",
"V.V.V.V.V.J.b.V.b.Z.V.V.D.V.Z.b.n.V.V.V.L.D.V.V.V.DX7.=.1 1.u.s @.7.=.@.< ; @.S.b.F.J.K.v.b.V.V.V.V.V.V.V.V.V.Z.V.V.V.V.D.V.V.b.",
"b.J.V.b.b.Z.V.D.V.V.J.b.V.V.b.b.n.v.P.K.b.J.K.C.z.h.1 *.1 t.t.< <.6.6.6.6.< =.ZXV.J.J.D.D.b.V.C.V.V.b.J.V.V.b.V.V.V.V.D.Z.V.b.V.",
"V.V.V.Z.V.V.V.V.J.V.V.b.Z.V.V.n.v.v.V.K.J.D.j.nXVX; % - @.r.r.; < *.<.6.6., 6.ZXj.D.D.D.F.b.M.C.V.b.Z.V.D.V.V.Z.V.b.V.V.V.V.V.V.",
"V.Z.V.V.V.V.V.V.b.b.V.V.Z.b.V.V.v.Y.c.Z.I.I.k.SX2.3 % > +.+.&.> & * & *.:.= p.A.V.b.F.b.Z.V.V.V.V.V.V.V.V.V.V.V.J.V.V.V.V.V.V.J.",
"V.b.V.V.D.V.V.b.V.Z.V.V.V.V.V.V.n.v.n.m.j.I.DX9.9 5 %.>.0.i.6.&.2 3 2 & : , h.DXC.b.b.b.V.V.B.n.V.V.V.b.Z.V.D.V.b.Z.V.b.V.b.Z.b.",
"V.V.J.b.L.b.V.V.b.V.Z.D.V.V.V.V.b.Z.f.Z.j.k.a.- > ,.a.a.a.a.a.,.3 y p 3 2 - vXnXM.V.C.V.V.V.b.b.b.V.V.V.V.b.V.V.J.V.Z.V.V.V.J.b.",
"V.b.Z.V.V.V.V.V.V.V.V.V.b.V.b.J.b.J.n.n.DXj.+.:.i.vX>.,.,.;.0.;.o a a i 2 &.DXk.V.V.v.V.C.V.D.b.b.Z.V.b.Z.V.V.V.b.V.b.V.V.b.V.Z.",
"V.V.V.V.V.b.b.Z.V.V.V.V.V.V.Z.V.J.J.I.k.k.:.i.a.a.,.# # w X X X w a r i u e.CXK.V.B.v.b.J.J.J.V.V.Z.V.V.J.b.V.V.V.V.V.V.b.Z.V.b.",
"D.V.V.b.V.V.V.b.J.V.V.b.V.V.b.J.J.I.G.k.i.i.a.a.a.5 X 0 q q 0 0 X r a i 4 OXz.m.b.B.m.b.J.K.J.J.V.V.D.V.V.V.b.Z.b.V.b.J.V.V.V.V."
};
