/* XPM */
static char *fa327fb5c508492abce7903e926a79e2NzvyMRopGSCqoOsC[] = {
/* columns rows colors chars-per-pixel */
"128 128 9 1 ",
"  c None",
". c #1D181E",
"X c #432F53",
"o c #5C436F",
"O c #5F5F7B",
"+ c #AE0000",
"@ c #B572B1",
"# c #7784A2",
"$ c #FFF9D6",
/* pixels */
"                                                                                                                                ",
"                                                                                                  XXX                       ... ",
"                                                                                                 XO@@XXXX               XXXX@@O.",
"                                                                                                  XXXO@@@X             X@@@OXX. ",
"                                                                                                   .oooXOO.           X@OXXoo.  ",
"                                             .     .                                                .XX@XO.           X@XOXX.   ",
"                                            .#.   .#.                XXXXX   .     .   XXXXX         .OXXOX.         .XOXoO.    ",
"                                            .@X...X@.                X@@@@. .#.   .#. .@@@@X        .OXXOXX.         .XXOoXO.   ",
"                                            .@#X#XO@.               X@OXXO. .@X...X@. .OXXO@X        ..XOXo. .     . .XoOX..    ",
"                                            X..O##..X               XOXXOXO..@#X#XO@..OXOXXOX         .OooXX.#.   .#.XooXO.     ",
"                                            X.+.#.+.X              X@XXOXX.Oo..O##..oO.XXOXX@X        .OooXX.@X...X@.XXooO.     ",
"                                         XXXX.X@#OX.XXXX           X@XXOXX.oX.+.#.+.Xo.XXOXX@X       .OXoXOO.@#X#XO@.OOXXXO.    ",
"                                        X@@@X..$.$..X@@@X         XXOXXXX..XX.X@#OX.XX..XXXXOXX       ..XOXXX..O##..XoXOX..     ",
"                                       X@OXX.Oo.o.oo.XXO@X          ..XX.X.XX..$.$..XX.X.XX..          .OXXoX.+.#.+.XooXO.      ",
"                                      X@XooX.OOooooO.XooX@X           ...XXX.Oo.o.oo.XXX...            .XXoXX.X@#OX.XooXX.      ",
"                                      XOXoXX.#OOoOO#.XXoXOX              ..X.OOoooOO.X..                .XXXX..$.$..XXoX.       ",
"                                     X@OoXX. .#####. .XXoO@X               ..##OoOO#..                   .XX.Oo.o.oo.XX.        ",
"                                    XX@XXX.  .##.##.  .XXX@XX                .#####.                      ...OoOoooO...         ",
"                                   X@@OoX.   .o. .o.   .XXO@@X               .oo.oo.                        .##OOoO#.           ",
"                                    X@Oo.    .o. .o.    .XO@X                .o. .o.                         .#####.            ",
"             XXX   ...              XOXO.     .   .     .OXOX                 .   .                          .o...o.            ",
"        XX  X##OX .O@@.             XOXX.               .XXOX                                                 .   .             ",
"       .@@X.##O.O.O@oo.            XXOX.                 .oOXX                                                                  ",
"      .XoX@XOO.@..@oXoO.           .oOX.                 .oOo.                                                                  ",
"      .ooX.@X.OO...XXoOO.          .ooX.                 .XXo.                                                                  ",
"      .oXX.O.##.O...XOooX           .X.                   .o.                                                                   ",
"      .oXX..X#O+#.  .XoO@..          ..                   ..                                                                    ",
"    ...XX.@@O.##O.  .XX@Xoo.                                                                                                    ",
"   .OOOXX....+@#O.   .O@@@O.                                                                                                    ",
"    .....   .O#$.     .....                                                                                                     ",
"             ...                                                                                                                ",
"                                                                                                                                ",
"                                                                                                                                ",
"                                          XX                                                                                    ",
"                                          .oXX                                                                                  ",
"                                         ..@@oX                                                                                 ",
"                                          .XO@oX                                                                                ",
"                                           .XX@oX                                                                               ",
"                                           .XXX@@X                            XXX                                 XXX           ",
"                                          .XXooXoo                        XXXXo@@XXXX                             Xo#XX         ",
"                                          .ooXXXooX                      Xo@@@@oo#.o#XX                           Xoo##X        ",
"                                           ..XXXooXXX                    Xo.....Xo.oo##X                           .oO#.X       ",
"                                            .XXoXo.o#XX                  ..X......X.oO#.X                         ..O#.+#X      ",
"                                            .XoXXX.oo##X                  ..XXXXXX..O#.+#X                    XXXXO.####O.      ",
"                                           .XXoXXXX.oO#.X                   .X.X..O.####O.                   XoOOX.#.#O$.       ",
"                                           .XXXoXX..O#.+#X                   ...XX.O.#O$.                   XoO@oX.Oo...        ",
"                                            .X.Xo.O.O###O.                    .o.X.oo...                    Xo@XooXoO.          ",
"                                            ....XX.#.OO$.                    .#oo..oO#.                     Xo@Xoo.#.           ",
"                                             .oo.X.oO...                    X#OOO##O..                      XoO@XoX.            ",
"        XXXXX                               X#ooo..OO#.                    XoOo##...                         Xo@oXX.            ",
"         .oooXX     XXXXX                  XoOOOOO##o.                    X.XX...                            .X@oooXX           ",
"          .......  X##X##X                X.XX###oo.                      . ..                              ..oOO@@oX           ",
"           XX#.oO.X.#.#OX                 . ......                          .                              X...X@ooO.           ",
"        XoX##.oo@o.O#+.#X                   .                                                              . . .X@oX.           ",
"       XX.O#O.Xo@o.oO##OX                                                                                       .X@XXX          ",
"          .oo.Xo@X..#O+.OX                                                                                      .XOoX.          ",
"         ....ooXO@. ... .X                                                                                       .XOO.          ",
"            .O@oo@X.                                                                                              ..o.          ",
"            .oO@@o@.                                                                                                .X          ",
"             .XXoo@.                                                                                                            ",
"             .Xo@@X.                                                                                                            ",
"            .XO@X..                                                                                                             ",
"             .X..                                                                                                               ",
"              .                                                                                                                 ",
"                                                                                                                                ",
"                                                                                                  XXX                       ... ",
"                                                                                                 XO@@XXXX               XXXX@@O.",
"                                                                                                  XXXO@@@X             X@@@OXX. ",
"                                                                                                   .oooXOO.           X@OXXoo.  ",
"                                             .     .                                                .XX@XO.           X@XOXX.   ",
"                                            .#.   .#.                XXXXX   .     .   XXXXX         .OXXOX.         .XOXoO.    ",
"                                            .@X...X@.                X@@@@. .#.   .#. .@@@@X        .OXXOXX.         .XXOoXO.   ",
"                                            .@@X#X@@.               X@OXXO. .@X...X@. .OXXO@X        ..XOXo. .     . .XoOX..    ",
"                                            X.@O##@.X               XOXXOXO..@@X#X@@..OXOXXOX         .OooXX.#.   .#.XooXO.     ",
"                                            X.X###X.X              X@XXOXX.OX.@O##@.XO.XXOXX@X        .OooXX.@X...X@.XXooO.     ",
"                                         XXXX.#####.XXXX           X@XXOXo.oX.X###X.Xo.oXOXX@X       .OXoXOO.@@X#X@@.OOXXXO.    ",
"                                        X@@@X.O###O.X@@@X         XXOXXXo.ooX.#####.Xoo.oXXXOXX       ..XOXXX.@O##@.XoXOX..     ",
"                                       X@XoX.OOO#OOO.XXX@X           .XX.XoXX.O####.XoXX.XX.           .OXXoX.X###X.XooXO.      ",
"                                      X@XooX.o##O##o.XooX@X           ...XoX.OO#O#OO.oXX...            .XXoXX.#####.XooXX.      ",
"                                      X@XooX.XOXoXOX.XooX@X              ..X.##OOO##.X..                .XXXX.O####.XXoX.       ",
"                                     X@XooX. .Xo.oX. .XooX@X               .XOXOoOXOX.                   .XX.OOO#OOO.XX.        ",
"                                    XX@XoX.   .. ..   .XoX@XX               .Xo...oX.                     ...o##O##o...         ",
"                                   X@@OXX.             .XXO@@X               ..   ..                        .XOXoXOX.           ",
"                  .                 X@OX.               .XO@X                                                .Xo.oX.            ",
"            XX   .#.                X@XO.               .OX@X                                                 .. ..             ",
"            .@XXXX@. XX             XOXX.               .XXOX                                                                   ",
"         XX XOX....XXoXX           XXOX.                 .oOXX                                                                  ",
"        X@@XoXO####.oX@@X          Xo@X.                 .oXoX                                                                  ",
"       Xo.o@@XX###XXO@o.X          Xo@X.                 .XXoX                                                                  ",
"       .oX...OOO#OX....XoXX         Xo.                   .oX                                                                   ",
"      ..oXX..o##O##o..XXo.OX         ..                   ..                                                                    ",
"    ..O.oXX..X#OoO#X..XXo.@OX                                                                                                   ",
"    .O@XXXo. .XX.oX. .ooXOO..                                                                                                   ",
"    .XXooo. Xo.. ..oX .oo..                                                                                                     ",
"     .....  ..     ..  ..                                                                                                       ",
"                                                                                                                                ",
"                                                                                                                                ",
"                                                    XX                                                                          ",
"                                                  XXo.                                                                          ",
"                                                 Xo@@..                                                                         ",
"                                                Xo@OX.                                                                          ",
"                                               Xo@XX.                                                                           ",
"                                              X@@XXX.                          XXX                         XXX                  ",
"                                              ooXooXX.                     XXXX@@oXXXX                   XX#oX                  ",
"                                             XooXXXoo.                   XX#o.#oo@@@@oX                 X##ooX                  ",
"                                           XXXooXXX..                   X##oo.oX.....oX                X.#Oo.                   ",
"                                         XX#o.oXoXX.                   X.#Oo.X......X..               X#+.#O..                  ",
"                                        X##oo.XXXoX.                  X#+.#O..XXXXXX..                .O####.OXXXX              ",
"                                       X.#Oo.XXXXoXX.                 .O####.O..X.X.                   .$O#.#.XOOoX             ",
"                                      X#+.#O..XXoXXX.                  .$O#.O.XX...                     ...oO.Xo@OoX            ",
"                                      .O###O.O.oX.X.                    ...oo.X.o.                        .OoXooX@oX            ",
"                                       .$OO.#.XX....                     .#Oo..oo#.                        .#.ooX@oX            ",
"                                        ...Oo.X.oo.                       ..O##OOO#X                        .XoX@OoX            ",
"                   XXXXX                 .#OO..ooo#X                        ...##oOoX                       .XXo@oX             ",
"       XXXXX     XXooo.                   .o##OOOOOoX                          ...XX.X                     XXooo@X.             ",
"      X##X##X  .......                      .oo###XX.X                            .. .                     Xo@@OOo..            ",
"       XO#.#.X.Oo.#XX                         ...... .                             .                       .Ooo@X...X           ",
"       X#.+#O.o@oo.##XoX                           .                                                       .Xo@X. . .           ",
"       XO##Oo.o@oX.O#O.XX                                                                                 XXX@X.                ",
"      XO.+O#..X@oX.oo.                                                                                    .XoOX.                ",
"      X. ... .@OXoo....                                                                                   .OOX.                 ",
"            .X@oo@O.                                                                                      .o..                  ",
"            .@o@@Oo.                                                                                      X.                    ",
"            .@ooXX.                                                                                                             ",
"            .X@@oX.                                                                                                             ",
"             ..X@OX.                                                                                                            ",
"               ..X.                                                                                                             ",
"                 .                                                                                                              "
};
