/* XPM */
static char *fe6288d24f93426eec3328571c4659ee9OAivHMMVtVQPWwI[] = {
/* columns rows colors chars-per-pixel */
"64 64 242 2 ",
"   c #0D0A04",
".  c #160D09",
"X  c #1C131C",
"o  c #191208",
"O  c #2B190C",
"+  c #2A2208",
"@  c #372605",
"#  c #2A2B15",
"$  c #1A1524",
"%  c #0E1420",
"&  c #241C28",
"*  c #2E2E2F",
"=  c #503311",
"-  c #4F3A2D",
";  c #633122",
":  c #682E1A",
">  c #384635",
",  c #505637",
"<  c #7D492C",
"1  c #706C3D",
"2  c #332F50",
"3  c #463C52",
"4  c #4E3F66",
"5  c #555050",
"6  c #75504B",
"7  c #746F58",
"8  c #564C73",
"9  c #52546E",
"0  c #685C79",
"q  c #7A5B60",
"w  c #536B78",
"e  c #67687A",
"r  c #736C69",
"t  c #B23A08",
"y  c #873D24",
"u  c #8E3105",
"i  c #B3431C",
"p  c #834939",
"a  c #945238",
"s  c #B5572D",
"d  c #B85A38",
"f  c #A8542F",
"g  c #AA613B",
"h  c #C84816",
"j  c #D85627",
"k  c #C85B34",
"l  c #D75D39",
"z  c #CE5127",
"x  c #F15D2D",
"c  c #D7642D",
"v  c #C7653E",
"b  c #D9653D",
"n  c #DC703F",
"m  c #E76227",
"M  c #FB6C2C",
"N  c #F76829",
"B  c #E9683A",
"V  c #F56C35",
"C  c #FB6C35",
"Z  c #F46D3C",
"A  c #FA6636",
"S  c #E9723E",
"D  c #F97238",
"F  c #F4712D",
"G  c #915445",
"H  c #AD5C41",
"J  c #98654A",
"K  c #8A6D54",
"L  c #A9674C",
"P  c #B86747",
"I  c #A66854",
"U  c #AB7558",
"Y  c #B87558",
"T  c #B66D50",
"R  c #9C7666",
"E  c #9A7A71",
"W  c #8C7070",
"Q  c #A47867",
"!  c #BD7C67",
"~  c #A37776",
"^  c #935F63",
"/  c #C15E41",
"(  c #C86948",
")  c #D66A47",
"_  c #CC714C",
"`  c #DD764A",
"'  c #C77958",
"]  c #D77857",
"[  c #EC6D44",
"{  c #E46B44",
"}  c #F96C44",
"|  c #E87346",
" . c #F77345",
".. c #E57B51",
"X. c #C27965",
"o. c #7E8056",
"O. c #768669",
"+. c #989163",
"@. c #91876D",
"#. c #B78969",
"$. c #AA8B79",
"%. c #BA8777",
"&. c #B5936D",
"*. c #9D8A52",
"=. c #D9855C",
"-. c #E7835A",
";. c #F3885B",
":. c #CA8569",
">. c #D88768",
",. c #CA8D77",
"<. c #C6947C",
"1. c #D7997B",
"2. c #E28662",
"3. c #E59879",
"4. c #EA966C",
"5. c #ECA17A",
"6. c #655888",
"7. c #5E6388",
"8. c #64668B",
"9. c #6B6493",
"0. c #6C649C",
"q. c #756B95",
"w. c #797399",
"e. c #727088",
"r. c #7A6DA8",
"t. c #7A75A8",
"y. c #7E76B2",
"u. c #827897",
"i. c #85708B",
"p. c #8976A8",
"a. c #8276B3",
"s. c #836EAD",
"d. c #778796",
"f. c #6F8B96",
"g. c #778DAF",
"h. c #868588",
"j. c #928D91",
"k. c #B8968A",
"l. c #AD918D",
"z. c #9CA28E",
"x. c #ADAA91",
"c. c #8884AB",
"v. c #9998A6",
"b. c #8699AC",
"n. c #91A8B3",
"m. c #BBB5A6",
"M. c #AFB2B3",
"N. c #CA9684",
"B. c #D59985",
"V. c #CB968F",
"C. c #D5A48C",
"Z. c #CAA794",
"A. c #DAAB98",
"S. c #CEAF95",
"D. c #FAA78A",
"F. c #EAAB95",
"G. c #F8B79C",
"H. c #EEAC91",
"J. c #CFB6AD",
"K. c #E7B8A7",
"L. c #FABBA8",
"P. c #E39F88",
"I. c #BBC6AE",
"U. c #C6C8B9",
"Y. c #D6C8B6",
"T. c #CACEAE",
"R. c #FCC7AB",
"E. c #E8C5B3",
"W. c #F6C9B6",
"Q. c #F2D0B3",
"!. c #CED2A8",
"~. c #92B3D3",
"^. c #BDB7C9",
"/. c #ABB9CD",
"(. c #9ABCE1",
"). c #C4B9CB",
"_. c #9DC5D8",
"`. c #ABC8D2",
"'. c #9DDCF2",
"]. c #9ACFE8",
"[. c #A9CCE8",
"{. c #A4D9EE",
"}. c #A4DAF4",
"|. c #ABDBFC",
" X c #A8D8F6",
".X c #B6DBF9",
"XX c #B1D3ED",
"oX c #B3E2FA",
"OX c #C6C4C7",
"+X c #CAD2D3",
"@X c #D6DAD4",
"#X c #DADCDC",
"$X c #D7D7D7",
"%X c #D2CECC",
"&X c #E5CBCA",
"*X c #E7D3CB",
"=X c #F7D5C7",
"-X c #E5DAD7",
";X c #F6DBD3",
":X c #E4CFD4",
">X c #DDE7D8",
",X c #FFE4CA",
"<X c #FFECDD",
"1X c #FCE4D9",
"2X c #FFF1D8",
"3X c #F5EDCD",
"4X c #D7D7E6",
"5X c #C2D9E9",
"6X c #E3DFE2",
"7X c #D6E3E9",
"8X c #EAECE7",
"9X c #E7E7E8",
"0X c #FEEBE3",
"qX c #F8E9E7",
"wX c #ECF2EE",
"eX c #FFF2E5",
"rX c #FFF4EC",
"tX c #FEFBED",
"yX c #F3F6EE",
"uX c #E7E9F1",
"iX c #F1EEF5",
"pX c #EDF4F4",
"aX c #FFF6F3",
"sX c #F5FDF5",
"dX c #FDFCF5",
"fX c #F5F5FC",
"gX c #FCF6FC",
"hX c #F6FDFD",
"jX c #FEFFFD",
"kX c #FFFFFD",
"lX c #FFFEFD",
"zX c #FFFDFF",
"xX c #FFFCFF",
"cX c #FCFFFF",
"vX c #FDFFFE",
"bX c #FFFEFF",
"nX c #FEFFFF",
"mX c white",
"MX c #FEFEFF",
"NX c #FDFEFD",
"BX c #FEFEFE",
"VX c #F4F3F3",
/* pixels */
"bXbXbXbXbXbXbXbXNXNXbXbXNXNXdXNXNXbXbXbXbXbXNXNXNXNXNXNXNXNXNXNXdXbXbXbXbXcXbXbXbXbXhXhXbXbXcXhXcXbXbXbXbXbXbXbXbXbXbXbXbXbXbXbX",
"bXbXbXbXbXbXbXbXbXbXbXbXNXNXNXNXbXbXbXbXbXbXNXNXNXNXNXNXNXNXNXNXNXbXbXbXbXcXbXbXbXbXcXcXbXbXbXcXbXbXbXbXbXbXbXbXbXbXbXbXbXbXbXbX",
"bXbXbXbXbXbXbXcXcXhXcXhXcXcXNXbXbXbXbXbXbXbXbXbXbXbXbXbXbXbXbXNXdXNXbXNXcXcXbXbXbXNXNXbXNXNXNXNXbXbXbXbXbXbXbXbXbXbXbXbXbXbXbXbX",
"NXcXbXbXcXbXbXbXbXcXcXcXcXbXbXbXbXbXbXbXbXbXbXbXbXbXbXbXbXbXbXNXNXNXNXNXNXbXbXbXNXNXNXNXNXNXNXNXbXbXbXbXbXbXbXbXbXbXbXbXbXbXbXbX",
"NXNXbXNXNXNXNXbXbXNXbXbXbXbXbXbXbXbXbXbXbXbXbXbXbXbXbXbXbXbXbXcXcXdXNXNXNXNXNXdXNXNXNXNXbXbXbXbXbXbXbXbXbXbXbXbXbXbXbXbXbXbXbXbX",
"cXNXNXNXNXNXNXbXNXbXNXbXbXbXNXNXbXNXbXbXbXbXbXbXbXbXbXbXbXcXcXcXcXNXNXNXbXNXNXNXNXbXNXNXNXbXbXbXbXbXbXbXbXbXbXbXbXbXbXbXbXbXbXbX",
"bXNXNXNXNXbXbXbXbXbXbXbXbXbXNXNXNXNXbXbXbXbXbXbXbXbXbXbXbXcXcXcXcXcXbXbXbXNXdXdXbXbXbXNXNXNXcXbXbXbXbXbXbXbXbXbXbXbXbXbXbXbXbXbX",
"NXNXNXNXbXbXbXbXbXbXbXbXbXbXbXbXNXNXbXbXbXbXbXbXbXbXbXbXcXcXcXcXcXcXbXbXbXbXdXNXbXcXbXcXNXhXcXcXcXbXbXbXbXbXbXbXbXbXbXbXbXbXbXbX",
"bXbXgXbXbXbXdXNXNXdXbXNXdXbXbXcXbXNXbXbXbXbXbXbXbXbXbXbXbXbXbXbXcXgXbXbXbXdXbXNXNXbXcXhXdXNXhXcXbXbXbXbXbXbXbXbXbXbXbXbXbXbXbXbX",
"NXbXcXbXcXdXNXdXNXNXdXdXbXbXcXcXbXNXbXbXbXbXbXbXbXbXbXbXNXNXNXNXsXbXNXNXgXdXdXNXNXbXhXcXNXNXbXbXbXbXbXbXbXbXbXbXbXbXbXbXbXbXbXbX",
"NXsXNXsXdXNXsXNXNXbXbXbXNXhXNXhXNXNXbXbXbXbXbXbXbXcXbXbXbXNXyXNXrXU.NXfXaXm.%XdXbXcXcXcXNXNXbXbXbXbXbXbXbXbXbXbXbXbXbXbXbXbXbXbX",
"NXdXdXsXsXdXNXhXbXgXcXcXNXNXsXsXNXNXbXbXbXbXbXbXbXbXdXNXNXdXdX@Xq q iXNX$.@ W bXbXbXcXbXbXNXbXbXbXbXbXbXbXbXbXbXbXbXbXbXbXbXbXbX",
"bXbXbXdXbXbXfXbXhXcXcXhXhXNXdXNXdXbXbXbXbXcXbXbXcXbXbXdXNXaXNX1X; 6 rXrX<.= Y.aXdXbXbXbXbXbXbXbXbXbXbXbXbXbXbXbXbXbXbXbXbXbXbXbX",
"bXdXbXgXbXgXNXaXaX;X0XaXtXaXdXaXNXNXbXbXbXbXcXcXcXbXbXdXNXdXaX;Xp <.aX,XY L =XNXdXbXbXbXNXNXNXbXbXbXbXbXbXbXbXbXbXbXbXbXbXbXbXbX",
"dXbXhXcXfXaXaXC.Y P ( ( N.L.aXNXNXNXbXbXcXbXcXcXcXbXgXNXaXNX0X$.=.:.2X$.' ] Z.aXdXNXNXbXNXNXNXcXbXbXbXbXbXbXbXbXbXbXbXbXbXbXbXbX",
"NXbXcXhXcXdXN.H )  .[ { ) g %.1XNXbXbXbXbXbXcXcXcXdXNXNXaXdXJ.Q =.=.W.U -._ A.dXdXbXbXbXbXcXNXdXbXbXbXbXbXbXbXbXbXbXbXbXbXbXbXbX",
"bXcXcXhXcXqXL _ { } Z }  .[ v T 0XbXNXNXNXdXbXcXhXcXcXbXdXtX<.' =.-.H._ ;._ E.dXdXdXbXcXbXbXNXdXcXbXbXbXbXbXbXbXbXbXbXbXbXbXbXbX",
"bXbXbXcXhXdXL.3.2.) [ V N V S v %.dXrXdXgXNXbXcXcXhXbXbXdXrX:.=.=.4.5.=.-.L =XgXdXNXbXbXbXcXNXdXNXbXbXbXbXbXbXbXbXbXbXbXbXbXbXbX",
"bXNXdXdXhXtXaXeX<XY ( Z C M V | g K.eXtXgXNXVXbXNXNXhXNXNX;XI >.=.4.5.g U K m.hXcXcXbXbXbXbXbXNXbXbXbXbXbXbXbXbXbXbXbXbXbXbXbXbX",
"NXNXdXdXNXNXsXNXdX1XD.) Z V } z i g L Z.dXdXNXbXbXNXNXNXgXx.< #.*.1.#.U E.l.8XhXhXhXbXbXbXNXbXbXbXbXbXbXbXbXbXbXbXbXbXbXbXbXbXbX",
"NXdXNXNXNXbXcXsXdXdXeXL.d } z j  . .| g V.aXbXbXbXgXbXdXdXtXI.S.J &.+.!.T.z.hXhXdXdXbXNXNXdXNXNXbXbXbXbXbXbXbXbXbXbXbXbXbXbXbXbX",
"dXdXgXNXgXNXcXgXtXtXS.Q ( i z } } N C n J 0XNXgXbXgXbXdXdX2Xx.>Xx.+.!.!.T.z.hXbXcXdXdXdXdXNXNXNXbXbXbXbXbXbXbXbXbXbXbXbXbXbXbXbX",
"tXNXNXNXNXNXcXVXtXJ.U L.| h D N A A N n a =XaXNXNXNXcXbXdXdXT.x.I.T.!.O.x.x.sXdXbXNXbXNXcXcXcXcXbXbXbXbXbXbXbXbXbXbXbXbXbXbXbXbX",
"sXsXbXgXgXNXbXbX2X$.2XQ.) z F M C j F S g E.dXNXbXbXcXbXsXNXT.5 7 !.+X# O.m.NXbXbXbXbXbXbXcXhXhXcXbXbXbXbXbXbXbXbXbXbXbXbXbXbXbX",
"hXhXbXbXNXgXNXdXK.C.<X3.k j S c h t x | J 2XtXNXbXbXcXNXgXgXqX* 5 !.>X, @.I.hXbXbXNXgXbXbXbXcXhXcXbXbXbXbXbXbXbXbXbXbXbXbXbXbXbX",
"NXcXbXbXNXNXNXaXJ.F.;X] l h B t t | Z k C.tXdXNXbXhXcXbXNXNXNXz.x.!.3Xx.x.x.dXhXNXbXbXgXNXbXcXcXbXbXbXbXbXbXbXbXbXbXbXbXbXbXbXbX",
"bXbXbXbXNXNXbXdXK.>.D.V D j j z t { { =.eXNXaXNXgXcXcXcXbXdXsXm.&.&.Q.@.U %.dXbXgXNXNXNXNXNXgXbXbXbXbXbXbXbXbXbXbXbXbXbXbXbXbXbX",
"NXNXNXNXbXbXcXdX<X#.k { b b k b ] P d >.<XaXdXbXcXhXhXNXNXsXbXY.U U Q.C.' P.dXfXbXbXbXdXdXdXdXbXbXbXbXbXbXbXbXbXbXbXbXbXbXbXbXbX",
"NXdXNXNXdXbXNXNXdX0XA.N.N.a d ] H B.F.I <.0XaXNXhXhXNXtXdXNXfXaXF.U Q.E.T 1.aXbXdXbXbXbXgXNXbXcXbXbXbXbXbXbXbXbXbXbXbXbXbXbXbXbX",
"NXcXNXdXdXNXNXhXcXdXdXtXgX;X,.:.W.qXrXK.I ,.rXaXcXhXdXdXtXNX6XE %.I C.F.g g E.eXdXsXhXbXNXdXbXcXbXbXbXbXbXbXbXbXbXbXbXbXbXbXbXbX",
"cXbXNXNXNXNXNXNXcXbXaXaXbXbXrXtXdXdXaXaXK.I N.<XdXsXsXNXbXbXNXOX$.K : f f v d T <XdXdXNXdXgXcXcXbXbXbXbXbXbXbXbXbXbXbXbXbXbXbXbX",
"bXbXbXNXbXNXNXNXbXgXNXNXgXhXbXsXNXNXdXaXaXK.L ,.rXdXNXdXbXgXNXaXtXA.J >.5.' -.v B.eXdXdXNXbXNXhXNXNXbXbXNXbXbXbXbXbXNXNXNXbXbXbX",
"bXbXbXNXbXbXbXbXbXbXNXNXbXbXbXNXNXdXdXdXdXtXK.I V.eXdXcXgXbXbXdXW.G V.=X=XP.d ` d F.aXgXgXbXsXhXNXsXbXbXdXbXbXhXcXbXdXdXNXbXbXbX",
"bXbXbXbXbXbXbXbXbXbXbXbXbXbXbXbXNXNXcXhXdXdX1XK.J B.0XNXbXsXdX2X! y a p p y u v | d K.gXNXgXbXNXdXdXNXdXdXNXgXcXcXbXNXdXbXbXbXbX",
"bXbXbXbXbXbXbXbXbXbXbXbXbXbXbXbXbXcXbXbXcXbXdXrXK.J S.eX8XbXtXC.s B | [ ) l z j m | #.dXbX%X6XbXgXaXrXdXdXtXNXNXbXNXbXNXcXcXNXNX",
"bXbXbXbXbXbXbXbXbXbXbXbXbXbXbXbXNXcXbXbXbXgXgXdXeXZ.K l.v.>X=XP c m N A } A j m [ _ K I./.d.r J.l.~ k.dXdXaXNXbXNXNXbXcXcXbXbXdX",
"bXbXbXbXbXbXbXbXbXbXbXbXbXbXbXNXNXhXgXbXbXbXNXgXaXaXl.e n.OXX.b F M A A A A } [ _ R M.w _./.q W V.Q l.aXaXNXbXgXNXbXbXcXhXhXcXcX",
"bXbXbXbXbXbXbXbXbXbXbXbXbXbXbXNXdXcXbXbXbXNXNXNXdXNXM.n..XOXT } N N C V } [ ..H R Y.[.].oX.Xh.A.0X! k.dXsXsXNXbXNXNXcXcXcXcXcXcX",
"bXbXbXbXbXbXbXbXbXbXbXbXbXbXbXbXbXbXbXbXhXdXNXtXtXsXyX+X`.O.U | M M Z | P Y 6 j.XXXX'.].g.f.`.eX<X+.E.tXtXhXhXsXdXdXNXhXbXbXbXbX",
"bXbXbXbXbXbXbXbXbXbXbXbXbXbXbXbXcXgXbXbXNXNXNXdXyXyXhXhX7Xw k.a ) ` g p k.@.n.5X{.'.'.]._._.7XtXW.U ;X=X2XtXtXtXdXdXNXcXbXbXbXbX",
"bXbXbXbXbXbXbXbXbXbXbXbXbXbXbXbXcXcXbXbXcXcXbXNXdXdXfXbX~.`.b.v.E @.h.`.g.~.XX{.'.'.'.{..X5Xe &XD.d ( P L G.:.<.<XdXdXbXcXbXNXdX",
"bXbXbXbXbXbXbXbXbXbXbXbXbXbXbXbXcXcXbXbXbXbXbXbXbXbXbX7Xb.{.{..XM.b.XX X(. X|.'.'.'.].oX[.b.9 6 ] l } B ) f s _ %.eXdXNXbXbXNXdX",
"bXbXbXbXbXbXbXbXbXbXbXbXbXbXbXNXNXNXcXbXbXNXbXbXbXNXbX/.~.oX'.{.[._. X}.|.|.[. X|.'..X/.p.8 X : { } V C  .c z ..P W.rXbXbXdXbXdX",
"bXbXbXbXbXbXbXbXbXbXbXbXbXbXbXNXNXdXNXdXdXNXbXbXgXgXM.d.oX|.|.'.}.}.}.{.[.|.|.|.|.(.g.7.3 X O ' { A C N M F j | ( F.aXsXbXbXbXbX",
"bXbXbXbXbXbXbXbXbXbXbXbXbXbXbXbXNXNXdXdXdXdXbXcXcXgXh.7.g._.[.{.|.|.'.|.|.[.(.n.t.7.t.4 %   ; >...[ Z C N N h { ) B.dXdXdXNXcXhX",
"bXbXbXbXbXbXbXbXbXbXbXbXbXbXbXbXbXNXNXdXdXdXcXhXcXhXM.& w e.e f.f.f.f.f.f.e.w 9 2 2 c.0 $ o : L.,X..S C C N x m _ G.tXNXdXNXcXcX",
"bXbXbXbXbXbXbXbXbXbXbXbXbXbXbXbXbXbXbXNXcXbXbXbXdXdXr   % * o.o.o.7 +.+.> > & $ X $ 9.t.2 5 G L.eXR.( B A A C [ P 1XdXhXNXbXgXbX",
"bXbXbXbXbXbXbXbXbXbXbXbXbXbXbXbXbXbXbXcXbXbXbXbXNXdX* . X + *.+ + @ @ *.>   % & & . 8 p.t.a.i.i.tX2XR.;.B [ } v A.tXNXsXhXbXNXNX",
"bXbXbXbXbXbXbXbXbXbXbXbXbXbXbXbXcXbXbXNXNXbXbXbXdXdX3 X . # *.o + o   7 ,   X $ & 3 q.s.s.s.p.i.A.<X2X3XD.) ( P.aXdXNXNXhXNXNXdX",
"bXbXbXbXbXbXbXbXbXbXbXbXbXbXbXbXbXbXNXNXbXbXbXbXbXNXu.e 5 * @.= + #   K 7 * 3 0 t.t.p.r.s.s.s.i.^ %.S.K.! X.K.iXdXfXcXbXcXNXNXNX",
"bXbXbXbXbXbXbXbXbXbXbXbXbXbXbXbXbXbXNXdXNXcXcXbXbXfX^.w.c.w.i.@.W @.7 z.i.u.p.p.t.y.y.r.a.s.q.e.qXrX@XT.E.rXaXdXbXhXcXcXbXbXbXNX",
"bXbXbXbXbXbXbXbXbXbXbXbXbXbXbXbXbXNXNXNXNXNXbXbXbXbXgXw.0.p.w.e.r @.7 r w.a.r.y.t.t.a.y.r.9.j.gXcXcXdXsXNXNXsXbXbXcXbXbXbXbXbXNX",
"bXbXbXbXbXbXbXbXbXbXbXbXbXbXbXbXNXNXNXdXNXhXNXNXNXNX%X6.r.s.t.q.9 u.u.8.a.a.y.y.y.r.0.r.s.0.v.dXNXfXbXbXpXhXcXbXNXNXNXNXNXNXNXdX",
"bXbXbXbXbXbXbXbXbXbXbXbXbXbXbXbXNXNXNXNXhXNXNXbXNXNXgXv.0 i.8 t.c.9 8 0 9.0.6.9.w.9.6.r.p.6.p.dXNXNXgXgXcXhXsXNXgXgXgXNXNXNXNXbX",
"bXbXbXbXbXbXbXbXbXbXbXbXbXbXbXbXbXbXbXcXbXbXcXbXbXdXaXJ.q W i.^.fXuX).).^.^.4X4XNX).7.q.6 ^ dXbXNXNXgXdXNXhXNXNXNXNXbXbXbXbXNXNX",
"bXbXbXbXbXbXbXbXbXbXbXbXbXbXbXbXbXbXbXbXbXbXbXcXNXNXaXl.R ;XqXuXuXuXiXVXqXiXiX9XuX6X4X).I ! qXbXNXNXgXdXdXNXdXNXNXNXbXbXcXbXbXdX",
"bXbXbXbXbXbXbXbXbXbXbXbXbXbXbXbXcXbXbXbXbXbXbXhXiXuX:XE Z.=X-X+X4X$X$X$X$X$X$X$X@X@X6X-X! L J.uX9XwXdXNXNXdXsXNXNXNXbXcXhXcXbXbX",
"bXbXbXbXbXbXbXbXbXbXbXbXbXbXbXbXbXbXbXcXNXNXNXVX4X:X:XJ.*X*X#X>X7X@X#X#X$X#X#X#X@X#X#X;XS.G J.6X+X#XiXdXbXNXNXbXbXNXcXbXcXcXbXbX",
"bXbXbXbXbXbXbXbXbXbXbXbXbXbXbXbXbXbXbXhXdXdXdXhXiXiX6X9X-X%X#X#X@X@X@X@X@X@X$X$X%X@X$X$X*Xm.6X6XuXVXNXNXbXbXcXbXNXbXbXbXbXNXbXbX",
"bXbXbXbXbXbXbXbXbXbXbXbXbXbXbXbXbXbXbXdXsXdXNXNXNXgXNXbXsXsXpXuXuX8X8X8X8X8X8X8XwXwXyXyXfXcXfXNXbXbXNXbXcXcXbXNXbXbXbXbXNXNXNXNX",
"bXbXbXbXbXbXbXbXbXbXbXbXbXbXbXbXbXbXbXhXdXdXdXNXNXgXcXsXhXsXhXbXbXbXbXbXsXcXdXbXcXhXhXcXcXsXNXcXdXbXNXNXcXcXcXNXNXNXNXNXdXNXNXdX",
"bXbXbXbXbXbXbXbXbXbXbXbXbXbXbXbXbXbXbXbXNXdXNXNXNXNXcXsXhXsXNXbXbXbXbXbXbXcXNXNXcXcXcXbXcXNXNXdXcXbXNXNXcXcXNXNXdXNXdXdXNXdXNXNX",
"NXbXNXbXNXbXNXNXbXNXbXNXbXNXNXNXcXbXbXbXcXbXNXNXNXbXcXsXhXNXbXbXNXNXNXNXNXbXNXNXbXgXbXNXsXNXsXbXNXcXNXNXbXbXbXbXbXNXNXNXbXbXcXbX",
"bXNXcXNXbXNXbXbXNXbXNXbXNXbXNXbXhXNXbXbXbXbXNXNXNXgXNXcXbXbXgXbXdXdXNXNXNXNXgXNXbXNXNXdXdXNXbXhXhXbXNXNXbXbXcXbXbXbXNXbXcXbXgXNX"
};
