/* XPM */
static char *_8664_832f4303d6c549afe258ae8cc8676555e363844a07cb1d42dd685bfe09c24a16[] = {
/* columns rows colors chars-per-pixel */
"64 64 184 2 ",
"   c #000F00",
".  c #001500",
"X  c #001E00",
"o  c #0F290E",
"O  c #1A4706",
"+  c #264E08",
"@  c #324B0B",
"#  c #324905",
"$  c #2A5D1A",
"%  c #335312",
"&  c #2F6118",
"*  c #346A15",
"=  c #3C721E",
"-  c #3E6A23",
";  c #49641D",
":  c #437B1A",
">  c #537B1B",
",  c #416C24",
"<  c #446E2C",
"1  c #536D26",
"2  c #497B22",
"3  c #4B6E36",
"4  c #47743D",
"5  c #5C7B36",
"6  c #507839",
"7  c #57754F",
"8  c #5C6C52",
"9  c #5C7D50",
"0  c #6B7E5E",
"q  c #637964",
"w  c #528C1E",
"e  c #588628",
"r  c #638926",
"t  c #6B9026",
"y  c #688938",
"u  c #648536",
"i  c #649A3A",
"p  c #6DA538",
"a  c #7FAB38",
"s  c #6B8A46",
"d  c #728D4A",
"f  c #7D9F4B",
"g  c #628950",
"h  c #6F865A",
"j  c #6E9350",
"k  c #7DB44C",
"l  c #74A554",
"z  c #7C8B6B",
"x  c #6E9661",
"c  c #789368",
"v  c #7C9B6F",
"b  c #7C9473",
"n  c #7F9179",
"m  c #7FA17E",
"M  c #89B141",
"N  c #92BD49",
"B  c #84AD56",
"V  c #8FB153",
"C  c #849B77",
"Z  c #839C7C",
"A  c #8B9E70",
"S  c #92BD64",
"D  c #85A273",
"F  c #8DA576",
"G  c #98AC77",
"H  c #86B66A",
"J  c #96C344",
"K  c #A4CB4E",
"L  c #B4DD57",
"P  c #ABD557",
"I  c #B3D463",
"U  c #ACCD74",
"Y  c #B6D27A",
"T  c #C3EA5E",
"R  c #C5DE78",
"E  c #CCEC6F",
"W  c #CBF16A",
"Q  c #C7E87D",
"!  c #D0F470",
"~  c #D7F47D",
"^  c #869D80",
"/  c #889E82",
"(  c #879584",
")  c #909D89",
"_  c #8EA287",
"`  c #8FAE82",
"'  c #98AC87",
"]  c #96A989",
"[  c #9BB582",
"{  c #A4BC8C",
"}  c #A8BE8F",
"|  c #A1B68B",
" . c #A2B49B",
".. c #A7BA9E",
"X. c #A8B89D",
"o. c #A5B694",
"O. c #A4AEA5",
"+. c #B4BDA0",
"@. c #B0B4B5",
"#. c #9CC38C",
"$. c #A9CB81",
"%. c #A8C288",
"&. c #B9D482",
"*. c #A7C098",
"=. c #ABC39C",
"-. c #AECC90",
";. c #BAC791",
":. c #B2C599",
">. c #AAD19A",
",. c #B1D097",
"<. c #A9C1A7",
"1. c #B6CBAC",
"2. c #BACCAA",
"3. c #B8C3A8",
"4. c #B8D5AA",
"5. c #B8CBB5",
"6. c #BBD5BA",
"7. c #C7DC8F",
"8. c #C3DF94",
"9. c #CAE98D",
"0. c #D3EC86",
"q. c #CEF284",
"w. c #C4CBA9",
"e. c #C2D6AD",
"r. c #CBDDB7",
"t. c #C6DCBB",
"y. c #C9DEBF",
"u. c #C6E7A2",
"i. c #CEE3BD",
"p. c #D6E7B0",
"a. c #D6E7BB",
"s. c #FBFFAD",
"d. c #EDFFBB",
"f. c #FCFEB4",
"g. c #FCFFBC",
"h. c #C7CCC8",
"j. c #CDCFCE",
"k. c #C8D7C4",
"l. c #D0D5CF",
"z. c #CECFD3",
"x. c #CFE5C1",
"c. c #CAEEC0",
"v. c #D1EAC5",
"b. c #D6EECE",
"n. c #D2E3C7",
"m. c #DFFEC2",
"M. c #D1F6CB",
"N. c #DCECD6",
"B. c #D8E4D3",
"V. c #DAF3D4",
"C. c #E3EDCA",
"Z. c #E0FEC2",
"A. c #E8FFCE",
"S. c #FBFEC4",
"D. c #FCFECC",
"F. c #E5FBD4",
"G. c #EDF7DE",
"H. c #E7FFDF",
"J. c #ECFFDE",
"K. c #E6F9D6",
"L. c #F4FFD3",
"P. c #FCFED5",
"I. c #F3FFDA",
"U. c #FDFFDC",
"Y. c #DFE9E0",
"T. c #E4EFE1",
"R. c #E8E9EB",
"E. c #E7F3E3",
"W. c #E5FCE3",
"Q. c #EDFFE2",
"!. c #EDFEE9",
"~. c #EAF5E7",
"^. c #F3FEE4",
"/. c #FDFEE3",
"(. c #F3FFEB",
"). c #FDFEEB",
"_. c #F2F7E3",
"`. c #EEEDF3",
"'. c #F5F7F1",
"]. c #F5FEF3",
"[. c #FDFEF3",
"{. c #F5FEFA",
"}. c #FDFEFB",
"|. c #F6F5FA",
/* pixels */
"s.s.s.f.f.g.g.f.g.g.S.S.S.S.D.D.D.D.D.D.P.D.P.P.P.P.U.P.P.U.P.P.P.P.P.U.P.U.P.P.P.P.P.D.D.P.D.D.D.D.D.S.D.S.S.g.g.g.g.f.f.f.f.f.",
"s.s.f.f.f.g.g.g.S.g.g.S.S.S.S.D.D.D.D.P.P.P.P.P.P.P.P.U.P.U.P.U.U.P.P.P.P.P.P.P.P.P.P.P.P.D.P.D.D.D.D.D.S.S.S.S.g.S.g.f.f.f.f.f.",
"s.f.f.f.g.g.g.g.g.S.S.S.D.D.D.D.D.P.D.P.P.P.P.P.P.U.U.U.U.U.U.U.U.P.U.U.U.P.U.P.P.P.P.P.P.P.D.D.D.D.D.D.S.S.S.S.S.g.g.g.f.f.f.f.",
"f.f.f.g.g.g.S.S.S.S.S.D.D.D.D.L.P.P.P.P.P.P.U.U.U.U.U.U.U.U.U.I.U.U.U.U.U.U.U.U.U.P.U.P.P.P.P.P.D.D.D.D.D.D.S.S.S.g.S.g.g.g.f.f.",
"f.g.g.g.g.S.S.S.S.D.D.D.D.D.P.P.P.P.P.P.P.U.U.U.U.U.U.U./.U.U.U.U./.U./.U.U.U.U.U.U.U.P.U.P.P.P.P.P.P.D.D.D.S.S.S.S.S.g.g.g.f.g.",
"g.g.g.g.S.S.S.D.D.D.D.D.P.P.P.U.P.U.U.U.U.U.U./.U././.U./././././.U./.U./.U.U././.U.U.U.U.P.U.P.P.P.P.D.D.D.D.S.S.S.g.g.S.f.S.f.",
"g.g.S.S.S.S.D.D.D.D.D.P.P.P.U.U.U.U.U.U./.U.U.U./.U.)._././././././././._././././.U./.U.U.U.U.U.P.P.P.P.D.D.D.D.S.S.S.S.g.g.g.g.",
"g.g.S.S.D.D.D.D.D.D.P.P.P.U.U.U.U.U._.U././././.)./.)./.)./.).).)./.).)././.)././.U./.U./.U./.U.P.P.P.P.P.D.P.D.S.D.S.S.S.S.S.g.",
"g.S.S.S.S.D.D.D.P.D.P.P.U.P.I././././././././.).).).).).).).).).).).)./.).)./.)./.^./././././.U.U.P.U.U.P.P.P.D.D.D.S.S.S.S.S.g.",
"S.g.S.S.D.D.D.P.P.P.P.P.U.U.U././././././.)./.).).).).).).).).).).).).).).).).).).).)./././././.U.U.U.U.P.P.P.P.D.D.D.D.S.S.S.S.",
"S.g.S.S.D.D.D.D.P.P.P.P.U.U.U././././././.).).).).).[.).[.).).[.[.).[.).).[.).).).).).).^././././.I.U.I.U.I.P.P.P.D.D.D.S.S.S.S.",
"S.S.S.D.D.D.D.P.P.P.P.U.U././.^././.).).'.).).).).[.).[.[.[.[.[.[.[.[.[.[.[.[.[.).).).).).).).)./././.U.U.U.U.P.P.D.D.D.D.D.S.S.",
"S.S.S.D.D.P.P.P.P.U.U.U./.^./.^.).).).).).).).[.[.).[.[.[.).[.[.).[.[.).[.[.[.).[.[.).).).).)././././.U.U.U.U.P.P.P.P.D.D.D.D.S.",
"D.S.D.D.P.P.P.U.P.U.U.U././.).).).).).).[.).[.).[.[.[.[.}.[.}.).[.[.[.[.).[.[.[.[.[.[.).).).).).^./././.^.U.U.U.P.P.D.P.D.D.D.D.",
"S.D.D.D.P.P.U.U.U.U.U././././.).).).).).).[.[.[.[.).[.}.[.[.[.[.[.[.[.[.[.[.[.[.[.).[.).).).).).)./.^././.U.U.I.P.P.P.D.D.D.D.D.",
"D.D.D.L.P.P.P.U.I.U././.^.).).).).).).).).[.[.[.}.}.[.[.}.[.[.[.[.{.[.}.{.[.[.[.[.[.[.[.[.).).).)./.)././.U.U.U.U.U.P.P.D.D.D.D.",
"D.D.D.D.P.P.U.U.U././.)./.).).).).).).).[.[.}.{.{.}.[.[.[.}.}.}.}.[.}.[.|.}.[.).[.[.}.{.}.[.[.).)./.)././././.U.U.U.U.P.D.D.D.D.",
"D.D.D.P.P.P.U.U.U././././.).).).[.].[.).[.{.[.}.[.}.}.}.'.[.}.}.'.}.}.|.}.{.).[.[.}.}.}.}.}.).).).).).).)./././.U.U.P.P.P.D.D.P.",
"D.D.D.P.P.U.U.U.U././.).).).).).).[.[.[.}.[.[.[.[.[.[.}.}.|.}.].[.[.}.}.[.[.[.).[.[.}.[.[.[.[.).).).).)./.^./././.U.U.P.P.D.D.D.",
"D.P.P.P.P.P.U.U././././.).).).).[.[.}.}.[.[.[.[.[.[.}.[.[.[.[.).).).[.'.'.[.[.}.[.[.}.}.[.[.).[.).).).).).)./././.U.U.P.P.P.P.D.",
"P.D.P.P.P.U.U.U././.).).).).[.).).[.}.|.[.).).[.}.}.|.{.G./.a.:.C.)._.[.}.}.}.}.[.[.{.}.[.[.[.[.[.).[.).).)./.^./.U.U.U.P.P.P.D.",
"P.P.P.P.U.U.U./././.).).).).).[.).).}.}.[.[.).[.}.|.}.}.2.:.A A z 3.w.U.}.}.}.}.[.[.[.}.[.[.).[.[.[.).).).^.)././.U.U.P.P.P.P.P.",
"P.P.P.P.U.U././.^.).).).[.).[.).).[.}.}.}.[.[.[.}.}.{.].^ b b.Q.(.+.;.L.(.}.}.}.}.[.}.}.}.[.[.).[.].).).).).).)./././.U.U.P.P.D.",
"P.P.P.U.U.U././.).).).).[.[.[.).).[.}.}.}.}.}.}.}.{.{.<.7 4.6.q h.U.&.7.).}.}.}.}.}.}.}.[.[.[.[.).[.[.[.).).)././.U.U.U.U.P.P.P.",
"P.P.P.U.U.U././.).).).).[.[.[.).[.[.}.}.}.}.}.}.}.{.V.9 g >.m o 8 L.0.R p.).{.}.}.}.}.}.}.}.[.[.}.).[.).[.).).)./././.U.U.P.P.P.",
"P.P.P.U.U./././.).).[.[.).[.[.[.[.[.{.}.}.}.}.}.{.{.` < l H #.v :.d.~ E Y L.[.{.}.}.}.}.}.[.}.{.[.}.'.[.[.).).)././.U./.U.U.P.P.",
"P.P.U.U.U.U./.).).).).[.[.[.[.[.[.}.{.}.}.}.}.}.}.N.6 2 i k B $.8.9.! T I 7.(.}.}.}.}.}.}.[.}.}.}.).[.[.).[.).).)././.U.U.P.U.P.",
"U.P.P.U./.U././.).).).[.[.[.[.}.}.}.{.[.{.}.}.[.{.2., : w p S &.9.Q W W K Y I.{.}.}.}.}.[.}.}.}.}.[.[.[.[.).).).)././.U.U.U.U.P.",
"P.P.P.U.U./././.).).).[.[.[.[.[.}.}.[.{.}.}.}.}.).F - * e s j s U q.L L J V A.[.}.}.}.}.}.}.}.}.[.[.[.).[.).).).'././.U.U.U.P.P.",
"U.P.U.U.U././.).).).[.).[.[.[.}.}.}.}.{.}.}.}.}.].c - & = = X   . t P J M B F.].[.}.}.}.}.}.{.[.}.[.[.[.[.[.).)././././.U.U.U.P.",
"P.P.U.U./././.).).).).[.).].[.[.}.}.[.[.}.}.}.}.].C x $ * = 6 d u e N a B %.t.{.}.}.}.}.}.}.{.[.}.[.[.[.[.).).).)././.U.U.U.P.P.",
"P.U.U.U.U./././.).).[.[.[.[.[.[.}.|.}.}.}.}.}.[.(.^ M.4 O + , 1 5 y r > u.4.t.].}.[.}.}.}.}.[.[.[.[.[.[.[.).).).)././.U._.U.P.P.",
"P.P.U.U././././.).).[.[.[.).[.}.}.}.}.}.}.}.[.[.[._ W.i.3 % # # # @ ; $.I.e.r.).}.}.}.}.}.}.}.}.[.[.[.[.[.).).).).^./.U.U.U.P.U.",
"U.P.U.U.U././.).).).[.).[.[.[.[.}.}.}.}.}.}.[.[.(. .V.J.D { %.G } } G L.^.i.e.^.}.}.}.}.}.}.}.[.[.[.[.).[.).).).)././.U.U.U.P.P.",
"P.P.U.U.U.^.^.).).).[.[.[.).[.[.[.[.}.}.}.}.[.[.[.1.V.Q.D v.).Q.^.(.=.F.!.n.r.^.[.}.[.}.}.}.}.[.[.[.[.[.[.).).).)./././.U.U.U.P.",
"P.P.U.U.U././././.).).[.[.[.[.[.[.).[.[.}.[.[.[.[...=.J.D v.{.{.{.!.Z W.(.x.w.^.{.}.[.[.}.}.[.[.[.[.[.).[.).)././././.U.U.U.U.P.",
"U.P.U.U.U./././.).).).[.).[.|.[.[.[.[.}.}.}.}.}.[._ [ A.[ i.{.{.{.W.b (.!. .' Q.{.}.[.[.}.}.}.[.[.[.[.[.[.).).)././././.U.U.P.P.",
"P.P.P.U.U./././.).).).[.[.'.[.[.[.[.}.[.}.}.}.}.{...[ Z.,.*.{.].].V.b (.(./ z Q.{.}.}.}.}.}.}.[.[.[.).].).).).)./././.U.U.P.U.P.",
"P.P.U.U.U./././.).).[.[.[.[.[.[.}.[.}.}.}.}.}.}.}.E.[ Z.-.{ {.].!.x.Z J.(.5. .].}.}.}.}.}.}.}.[.[.[.).[.[.).).).)././.U.U.U.P.P.",
"P.P.U.P.U.U././.).).).).).[.[.[.[.}.[.{.}.}.}.}.{.].a.F h | B.T.K.o.h 0 n 5.(.].}.}.}.}.}.}.}.}.[.[.[.).).).).).)././.U.U.P.P.P.",
"P.P.P.P.U.U././.).).).).).'.).[.[.[.[.}.{.}.}.}.}.].3.' _ 2.B.Y.B.l.X._ ( h.~.[.}.}.}.}.|.[.[.).).[.[.).).).'././.U./.U.U.U.P.P.",
"P.P.P.P.U.U./././.).).).).).[.).).[.[.[.[.}.}.}.}.}.].!.(.Q.}.{.}.{.[.(.{.}.[.{.}.}.[.[.[.}.[.[.[.[.).).).).).).).U.U.U.P.P.P.P.",
"P.P.L.P.U.U.U././.).).).).).[.[.[.[.[.[.[.[.[.[.}.'.}.{.E.O.@.z.R.z.h.l.{.[.}.[.}.[.[.[.).[.[.[.[.).).).).).)./././.U.P.P.P.U.P.",
"D.P.P.P.P.U.U.U./.)./.).).).).[.[.[.[.[.).).).[.[.}.}.].{.{.}.`.|.}.}.{.{.[.[.}.).[.[.[.[.[.[.[.[.).).).).)././.U.U.U.U.P.P.P.P.",
"D.P.P.P.P.P.U.U./././.'.).).).[.[.}.}.{.].).).[.}.}.}.[.}.}.}.}.}.}.|.[.[.}.[.[.[.[.).[.|.[.}.[.[.).).)././././.U.U.U.U.P.P.P.D.",
"D.D.D.P.P.U.U.U.U./././.).).).).[.[.}.[.[.).).[.}.}.|.}.|.}.}.}.}.}.}.}.}.[.}.}.[.[.[.}.[.[.{.[.).).).).'.)././._.U.P.P.P.P.P.D.",
"D.D.P.D.P.U.U.U././././.).).).).[.[.[.{.[.[.[.}.}.|.}.}.[.[.[.}.}.}.}.}.}.}.}.}.}.}.[.[.[.[.[.).).).).).)././._.U.U.U.P.P.P.D.D.",
"D.D.D.D.P.P.P.U.U.U./.)././.).).).[.).[.[.[.[.}.}.}.}.[.[.[.}.}.[.[.).}.[.}.}.}.}.[.[.[.[.).).).)./.).)././.U.U.U.U.P.P.P.P.D.D.",
"D.D.D.D.P.P.U.U.U.^.^./././.).).).).).[.).[.[.[.}.[.}.[.[.[.[.}.}.[.[.}.[.}.}.|.[.[.[.[.).).'.)././.)./.^./.U.U.U.P.P.P.D.D.D.S.",
"D.D.D.D.D.P.P.P.U.U./././.)./.).^.).).).[.).).[.[.[.[.[.[.}.[.[.[.[.[.[.[.[.[.[.[.[.).[.).).).).)./.)././.U./.U.U.P.P.P.D.D.S.D.",
"D.S.S.D.D.P.P.P.U.U.U./././.^.).).).).).).).[.[.).[.[.[.}.).[.[.).[.[.'.).[.[.).[.).[.).).).)./././.^././.U.U.U.U.P.P.D.D.D.D.S.",
"S.D.S.D.D.P.P.P.U.U./.I././././.).^.).).).[.).[.[.[.[.[.[.[.[.).).[.[.).[.[.[.[.[.[.[.).).).).)././././.^.U.U.U.P.P.D.D.D.D.S.S.",
"S.S.S.D.D.D.P.P.P.U.U.U./././.^.)./.).).).).).).).[.[.[.[.).[.[.[.[.[.).[.).[.[.).).).).).)./.)././.^./.U.U.U.P.P.P.D.D.S.S.S.S.",
"S.S.S.D.D.D.D.P.U.P.I.U.U.U.U././././.).).).).'.).[.[.).[.[.[.).).[.).[.).).).).).).).)./.)./././.I.U.U.U.U.P.P.P.D.D.D.S.S.S.S.",
"S.S.g.S.D.D.D.D.P.P.P.U.U.U.U././././././.).).).).).).).).).).).).).).).).).).).'./././.).U././.U.I.U.U.U.P.P.P.D.D.D.S.S.d.S.g.",
"g.S.g.S.S.D.D.D.P.P.P.P.U.P.I.U./.U././._.U././.)./.).).).).).).).).).).).).).)./.)./././././.U.U.U.U.P.P.P.P.P.D.D.D.S.S.S.S.g.",
"g.g.g.g.S.S.S.D.D.D.P.P.P.P.U.P.U.U.U./././././././.).).).)./.)./.).).^.)./.)./.).U./.U./.U.U.U.U.P.P.P.P.P.D.D.D.D.S.S.S.g.g.g.",
"g.g.g.g.S.S.S.S.D.D.D.P.P.P.P.P.U.U.U.U.U.U._.U././././././././././././././.U././.U.U././.U.U.U.P.P.P.D.L.D.D.D.S.S.S.S.g.g.g.g.",
"g.f.g.g.g.g.S.S.D.D.D.D.P.P.P.P.U.P.P.U.U.U.U.U./.U._.U./.U././.U./.U.^./.U./.U.G.U.U.U.U.U.P.P.U.P.P.D.D.D.D.D.S.S.S.g.g.g.g.g.",
"f.f.g.g.g.g.S.S.S.S.D.D.D.D.D.D.P.P.P.P.U.U.U.U.U././.U.U./.U.U./.U./.U.U.U.U.U.U.U.P.U.P.P.U.P.D.D.P.D.D.D.D.D.S.S.g.g.g.g.f.f.",
"f.f.f.f.g.g.g.S.S.S.S.D.D.D.D.D.P.P.P.P.P.P.U.U.U.U.U.U.U.U.U.U.U.U.U.U.U.U.U.U.U.U.P.P.P.P.P.L.D.D.D.D.D.D.S.S.S.S.g.g.f.f.f.f.",
"f.f.f.f.g.f.g.S.S.S.S.D.S.D.D.D.D.P.D.P.P.P.P.P.P.U.U.U.U.U.U.U.U.P.U.U.U.P.P.P.P.P.P.P.D.L.P.D.D.D.D.D.S.D.S.S.S.g.g.f.f.f.f.f.",
"s.f.f.f.g.g.g.g.S.S.S.S.D.S.D.D.D.D.D.P.P.P.P.P.P.U.P.U.U.P.P.P.P.P.U.P.U.P.P.U.P.P.P.D.P.D.D.D.D.D.D.S.D.S.S.g.g.g.g.g.f.f.f.f.",
"f.f.f.f.f.g.g.g.S.S.S.S.S.S.D.D.D.D.D.D.D.P.P.P.P.P.P.P.P.P.U.U.P.U.P.P.P.P.P.P.P.P.P.P.P.D.D.D.D.S.D.D.S.S.S.S.S.g.g.g.f.f.f.s."
};
