/* XPM */
static char *_2e86b5863864052cd1b03e9a658f7abg9DX29gaOA47nZN7[] = {
/* columns rows colors chars-per-pixel */
"64 64 243 2 ",
"   c #390705",
".  c #2C2929",
"X  c #591C1C",
"o  c #450A0A",
"O  c #5C211F",
"+  c #5C1D24",
"@  c #681E25",
"#  c #5B2324",
"$  c #672729",
"%  c #732C31",
"&  c #6D3134",
"*  c #773B39",
"=  c #692C31",
"-  c #6D7403",
";  c #757B08",
":  c #75701B",
">  c #78783A",
",  c #746F2D",
"<  c #515A0B",
"1  c #773F42",
"2  c #716B6B",
"3  c #615E54",
"4  c #8A7916",
"5  c #876D16",
"6  c #917429",
"7  c #864849",
"8  c #955357",
"9  c #8D744F",
"0  c #A4655E",
"q  c #947474",
"w  c #AC6C73",
"e  c #B77579",
"r  c #AB706D",
"t  c #835768",
"y  c #CE7D78",
"u  c #7C811D",
"i  c #78802C",
"p  c #879206",
"a  c #969B19",
"s  c #999710",
"d  c #99A01C",
"f  c #B0A91B",
"g  c #948B31",
"h  c #A38B28",
"j  c #A39925",
"k  c #A78E3B",
"l  c #B19D3A",
"z  c #9EA636",
"x  c #ACA625",
"c  c #A7A637",
"v  c #B6B72E",
"b  c #BCC131",
"n  c #CEDC16",
"m  c #D3DC1B",
"M  c #D8DB18",
"N  c #D9E11A",
"B  c #CECC2E",
"V  c #D3DB23",
"C  c #D5DC2A",
"Z  c #CDD536",
"A  c #D5DC34",
"S  c #D8D939",
"D  c #C8D02E",
"F  c #D9E138",
"G  c #DAE12D",
"H  c #E1E536",
"J  c #8B8B57",
"K  c #9B9A54",
"L  c #928C45",
"P  c #A68A47",
"I  c #AA8957",
"U  c #A09155",
"Y  c #B79554",
"T  c #AC8F50",
"R  c #B1AE57",
"E  c #9A8869",
"W  c #939074",
"Q  c #B58864",
"!  c #A9976E",
"~  c #ABA779",
"^  c #ADAF67",
"/  c #C5BD4C",
"(  c #C6867C",
")  c #C79473",
"_  c #E4857F",
"`  c #C4BD6A",
"'  c #D1A576",
"]  c #B5C048",
"[  c #C8D245",
"{  c #D3D847",
"}  c #C9C656",
"|  c #D7D754",
" . c #CBCC49",
".. c #DCE344",
"X. c #D6E451",
"o. c #E2E34A",
"O. c #C3C669",
"+. c #CDD171",
"@. c #E7EC65",
"#. c #7D6985",
"$. c #8B768A",
"%. c #DB7F80",
"&. c #999697",
"*. c #94868E",
"=. c #A98588",
"-. c #A5998B",
";. c #A88C96",
":. c #A79795",
">. c #B99695",
",. c #B78D90",
"<. c #AFAD86",
"1. c #A385A8",
"2. c #A895A4",
"3. c #AB8BB6",
"4. c #AD94BE",
"5. c #B699AD",
"6. c #BABABA",
"7. c #B1AFAD",
"8. c #9B8AAA",
"9. c #CD8C8B",
"0. c #C98785",
"q. c #D48C8C",
"w. c #D78989",
"e. c #C9968A",
"r. c #D8958D",
"t. c #C48D91",
"y. c #D98E94",
"u. c #D18F91",
"i. c #CA9697",
"p. c #D59493",
"a. c #D79993",
"s. c #D49B9A",
"d. c #D99C9B",
"f. c #DB9595",
"g. c #E78A88",
"h. c #E6948D",
"j. c #ED8C91",
"k. c #E6959A",
"l. c #E69C9B",
"z. c #EB9D9C",
"x. c #E79895",
"c. c #F39D9C",
"v. c #F49B9A",
"b. c #F08C96",
"n. c #D8A484",
"m. c #DCA49E",
"M. c #D8A497",
"N. c #C2A38F",
"B. c #E4A88E",
"V. c #EEA49D",
"C. c #E7A899",
"Z. c #F3A39E",
"A. c #FBA59D",
"S. c #F0AF99",
"D. c #EBB192",
"F. c #DD9CA1",
"G. c #EC9DA1",
"H. c #E59CA2",
"J. c #F49EA3",
"K. c #FB9EA4",
"L. c #FC9FAC",
"P. c #DBACAC",
"I. c #D8A5A4",
"U. c #D8B6B5",
"Y. c #D2ACA9",
"T. c #E3A3A4",
"R. c #ECA3A3",
"E. c #EDAAA2",
"W. c #E2A5AA",
"Q. c #EDA6AA",
"!. c #EBABAB",
"~. c #E4AAAB",
"^. c #F4A4A4",
"/. c #FBA3A4",
"(. c #F4AAA5",
"). c #FAA9A5",
"_. c #F4A5A9",
"`. c #FBA4AA",
"'. c #F4ABAB",
"]. c #FCAAAB",
"[. c #E9B4A8",
"{. c #F6B4A9",
"}. c #FBABB3",
"|. c #F8A9B1",
" X c #E6B5B2",
".X c #E9B7B6",
"XX c #F6B1B3",
"oX c #FAB2B3",
"OX c #F9B8B9",
"+X c #E6AAB2",
"@X c #C7C396",
"#X c #CFCEAE",
"$X c #EAC3BD",
"%X c #EDC8B3",
"&X c #FDBEC8",
"*X c #EEB9C1",
"=X c #C7C8C6",
"-X c #D6D1CE",
";X c #FBC8C7",
":X c #F9D4CC",
">X c #E8D8D8",
",X c #FED4D3",
"<X c #FFDBD5",
"1X c #FFDCDB",
"2X c #F5D7D7",
"3X c #EBCCCC",
"4X c #DAE2CF",
"5X c #FFE4DD",
"6X c #FFE8DF",
"7X c #F2F2D4",
"8X c #DEDEE0",
"9X c #E7E2E3",
"0X c #FEE4E3",
"qX c #FFEBE4",
"wX c #FBEDEC",
"eX c #FCFDE4",
"rX c #FFF3ED",
"tX c #FEFCED",
"yX c #F6F6E5",
"uX c #FFEEF2",
"iX c #ECF5F7",
"pX c #FFF6F3",
"aX c #F5FBF5",
"sX c #FEFBF5",
"dX c #FEF6FC",
"fX c #F6FEFD",
"gX c #FFFAF9",
"hX c #FFFFFB",
"jX c #FEFDFA",
"kX c #FBFFFE",
"lX c #FFFFFD",
"zX c #FFFEFD",
"xX c #FFFDFF",
"cX c #FCFFFF",
"vX c #FDFFFF",
"bX c #FFFEFF",
"nX c #FEFFFF",
"mX c white",
"MX c #FEFEFE",
"NX c #FDFEFD",
"BX c #FEFEFE",
"VX c #F6F7F3",
"CX c #EFF0EB",
/* pixels */
"mXmXmXmXmXmXmXmXmXmXmXmXmXmXmXmXmXmXxXmXxXmXcXcXmXjXmXgXmXxXcXcXcXcXaXjXjXsXtXjXgXgXjXmXxXxXmXcXmXmXmXmXmXmXmXmXmXmXmXmXmXmXmXmX",
"mXmXmXmXmXmXmXmXmXmXmXmXmXmXmXmXxXmXmXmXmXmXcXmXgXmXmXmXmXmXmXcXcXcXjXsXsXsXrXtXgXjXjXgXxXxXcXcXmXmXmXmXmXmXmXmXmXmXmXmXmXmXmXmX",
"mXmXmXmXmXmXmXmXmXmXmXmXmXmXmXmXmXmXmXmXcXcXmXcXmXjXjXmXmXmXmXmXcXaXgXjXpX.Xi.i.2XgXsXkXxXmXcXcXcXmXmXmXmXmXmXmXmXmXmXmXmXmXmXmX",
"mXmXmXmXmXmXmXmXmXmXmXmXmXmXmXmXmXmXmXmXmXmXmXmXjXmXjXmXmXmXmXmXjXsXsX5Xs.p.`.H.Y.gXjXkXxXgXfXjXmXmXmXmXmXmXmXmXmXmXmXmXmXmXmXmX",
"mXmXmXmXmXmXmXmXmXmXmXmXmXmXmXmXmXjXmXmXmXmXmXmXmXmXxXmXmXmXmXjXjXpX;Xq.G.]._.T.Y.gXjXjXjXmXjXmXmXmXmXmXmXmXmXmXmXmXmXmXmXmXmXmX",
"mXmXmXmXmXmXmXmXmXmXmXmXmXmXmXmXmXjXmXmXmXmXmXmXmXmXmXmXmXmXmXgXsX<Xq.^.`.`.`.C.P.rXjXkXmXjXmXgXmXmXmXmXmXmXmXmXmXmXmXmXmXmXmXmX",
"mXmXmXmXmXmXmXmXmXmXmXmXmXmXmXmXmXmXjXkXmXjXmXxXmXmXmXcXjXjXjXpX1Xu.E.).K.c.`.y.3XtXjXcXmXdXmXxXmXmXmXmXmXmXmXmXmXmXmXmXmXmXmXmX",
"mXmXmXmXmXmXmXmXmXmXmXmXmXmXmXmXmXmXkXkXmXmXxXmXmXmXmXmXjXjXgXpXm.l.).Z.j./.J.p.rXjXsXgXxXmXmXcXmXmXmXmXmXmXmXmXmXmXmXmXmXmXmXmX",
"mXmXmXmXmXmXmXmXmXmXmXmXmXmXmXmXmXmXcXkXjXjXmXmXmXmXcXjXjXpXsX$Xa.(.^.`./.).9.<XrXjXjXmXmXxXmXmXmXmXmXmXmXmXmXmXmXmXmXmXmXmXmXmX",
"mXmXmXmXmXmXmXmXmXmXmXmXmXmXmXmXmXmXkXkXjXjXmXmXmXmXcXjXjXaX5Xi.!.].^.Z.].x.d.rXgXjXmXmXxXmXmXmXmXmXmXmXmXmXmXmXmXmXmXmXmXmXmXmX",
"mXmXmXmXmXmXmXmXmXmXmXmXmXmXmXmXmXmXkXkXjXjXmXmXmXcXmXkXjXpXU.P.!.R.^./.^.R.P.tXjXsXmXmXxXmXmXmXmXmXmXmXmXmXmXmXmXmXmXmXmXmXmXmX",
"mXmXmXmXmXmXmXmXmXmXmXmXmXmXmXmXmXmXjXkXjXmXjXmXxXmXkXjXgX2Xe ~.!.OX(.^.`.G.M.sXjXfXmXmXxXmXmXcXmXmXmXmXmXmXmXmXmXmXmXmXmXmXmXmX",
"mXmXmXmXmXmXmXmXmXmXmXmXmXmXmXmXmXxXcXkXkXmXmXmXmXcXcXjX-X  * XXd.* e (.`.G.~.pXsXjXmXmXxXmXcXcXmXmXmXmXmXmXmXmXmXmXmXmXmXmXmXmX",
"mXmXmXmXmXmXmXmXmXmXmXmXmXmXmXmXxXmXcXkXkXjXgXxXdXcXgXaX>Xr {.R.!.*   H._.l.W.pXjXjXxXmXmXmXcXcXmXmXmXmXmXmXmXmXmXmXmXmXmXmXmXmX",
"mXmXmXmXmXmXmXmXmXmXmXmXmXmXmXmXxXmXcXkXkXjXmXmXmXmXcXVXU.P.E.].E.oXw.Q.].G.P.rXjXjXmXxXxXmXjXmXmXmXmXmXmXmXmXmXmXmXmXmXmXmXmXmX",
"mXmXmXmXxXmXmXmXmXmXmXgXgXgXjXmXmXmXmXmXmXjXjXmXcXmX=X&.7.,.W.9.t.t.Q.'._.R.i.jXsXjXmXmXxXmXmXjXmXmXjXmXjXjXmXjXmXcXmXxXmXmXmXmX",
"mXmXcXmXmXxXmXmXmXgXrX3X:XrXrXjXmXmXdXmXmXxXxXcXfX8X7.fXsX9X$.>XpX5X,.W.'.R.s.sXpXcXfXcXdXmXjXjXjXjXjXsXjXjXtXjXjXcXxXmXxXxXmXcX",
"mXmXcXjXxXxXmXcXVXgX$Xu.a.M.qXgXjXgXmXmXxXdXcXdXiX7.CXiXaX8X-XdXcXjXU.s.'.l.M.wXgXcXfXcXcXmXmXjXgXgXpXsXrXqXsXpXjXcXmXmXxXxXmXkX",
"mXmXmXmXmXmXcXfXmXgX Xz.'.T.t.<XpXjXjXjXdXxXmXdXCX7.xX7.. 6.mX&.&.kX3Xs.!.'.9.rXgXxXxXxXmXjXjXsXVXrX1XQ.i.i.2XsXjXcXcXcXmXmXjXjX",
"mXxXgXxXxXmXcXfXaXpXXXz._._._.9.$XgXrXjXcXfXxXmX8X6.xX:.. =XgX. 3 sX3Xt.oX^.p.qXpXgXxXxXmXjXgXpX5XI.y.k.`.d.Y.sXmXmXmXmXmXmXjXkX",
"cXmXgXxXmXmXfXcXjXgX;Xy.).K.`.`.d. XtXrXaXfXmXmX9X7.mXVXdX6.VX=X-XdXY.W.R.].9.<XsXsXVXjXgXpXwX X0.a._.].`.R.U.sXgXxXxXxXxXmXkXsX",
"cXmXxXxXxXmXcXcXjXjX0Xa././.K./.^.f.P.pXjXjXaXmXxX=.CXdXpX&.uXdXfX2Xi.!.z.oXq.:XtXsXjXgXdX1Xs.f.).).^.Z.`.y.1XpXgXxXxXxXxXjXfXfX",
"cXkXxXgXmXmXcXcXjXrXsXI.z./.A./.).(.R.I.0XtXjXjXdX$.;.U.>.=.Y.wX2X,.W.+X'.E.r.;XtXyXtXpX&Xy.V.)./.v.).E._.f.pXgXjXmXmXmXmXjXjXjX",
"kXkXmXxXmXcXmXmXjXjXsX:Xq.].V.(.^.x.J.G.a.:XrXtX;XF.+Xt.F.OXF.,.i.*X~.7 w.{.j.!.tXtXrXP.y.].^.^.A.A.).(.9.,XpXgXjXcXcXmXmXmXmXmX",
"kXjXmXmXmXmXmXmXjXjXsXtXF.l.(.E.^._./.K.^.q.%XqXz.k.XXOXoXoX*XOX+X$.* + y _.c.R.rX0Xs.G._.'.^.Z.Z.)./.y. XpXgXjXcXfXfXcXmXmXxXxX",
"sXmXxXxXmXcXcXcXkXjXjXsX:X9.(.(.(._.K.`.).).C.0.z.v.8 8 0 w 8 7 @ @ + * XX(.^.x.;Xd.G.].J.R.^.(.Z.).J.f.rXsXjXmXfXfXfXfXmXmXxXxX",
"mXmXxXxXmXcXfXkXjXjXjXsXpXM.l.].`.`.].c.^.Z.A._ Z.oX0 o + X + @ % = + w XXJ.].j.w.G.].K.].].V.V./._.y.,XgXVXmXmXmXcXcXmXmXxXxXmX",
"jXmXdXxXmXcXkXkXcXmXmXpXgX,Xq.`.L.`._.(.S.)._ j.S.S.7 $ % $ = = @ $ % Q.(.`.g.j.].|.J.`.J.J.).^.].w.OXpXsXfXcXmXmXmXmXmXxXxXmXmX",
"mXmXxXxXmXcXkXkXjXmXxXdXdXpX~.k.`.J._.Z.Z.Z.y ).{.q.@ @ @ % @ 1 7 @ e ].J.^.v./.^./._.E.^.c.j.).y.+XdXpXgXmXmXmXmXmXmXmXmXmXmXmX",
"xXmXmXxXmXmXjXjXjXmXxXxXxXgX1Xa.].`.A.A.)._ v.h.( * + 8 H.%.%.}.0.w }._./.c.].J./._._.'.(.^.A./.s.uXgXmXxXdXdXcXmXjXmXmXmXcXmXmX",
"mXmXcXcXmXmXjXjXjXmXmXcXcXgXsX$Xq.).Z.).g.g.].R.7   8 &X&X+XW.w e XXQ.E.^.].c.`.^.'.R.V._.].Z.0.0XjXgXjXxXmXcXfXmXjXjXjXjXjXmXcX",
"mXmXcXcXmXxXjXjXmXxXcXfXcXjXgXtXI.z.).v.w.c.J.`.oX%.w w $.%.$.k.}.`.R.^./.`./.^.R.^.^._._.^.w.;XjXsXkXmXxXmXfXfXmXjXjXmXjXmXcXcX",
"mXmXmXmXmXmXjXmXmXmXmXcXmXmXjXsX6Xr.A._ b.`.`./.c.).}.^.R.].}.|._.L._.^./.^.`.^.V.(./.K.).w. XgXjXmXmXmXmXmXcXcXmXjXmXjXmXmXmXmX",
"mXmXmXmXmXmXmXmXmXmXmXmXmXmXmXjXtX%Xy g.].J././.v.v._.^.J./._.J.L.`.^.^.`.`.`.^.(.Z./.).k.C.pXgXmXmXmXmXmXmXmXmXmXmXmXmXmXmXmXmX",
"mXmXmXmXmXmXmXmXmXmXmXmXmXmXmXgXsX6Xw.A.K.`.'.'.^.^._._.).K././._._._.E.^.^.K.^.^.(.c.).r.5XxXdXmXmXmXmXmXmXmXmXmXmXmXmXmXmXmXmX",
"mXmXmXmXmXmXmXmXmXmXmXmXmXmXmXgXsXM.k.`.v._.T.R.]._._.^./.K.^.).^.^.!._.^./._.`.^.(.).0.{.rXpXfXcXmXmXmXmXmXmXmXmXmXmXmXmXmXmXmX",
"mXmXmXmXmXmXmXmXmXmXmXmXmXmXmXgX1Xu.`.K.A.Z.E.'._._._._.`.J.Q.R.Z.^._._./.^.L._.^._.z.y.C.rXgXmXmXmXmXmXmXmXmXmXmXmXmXmXmXmXmXmX",
"mXmXmXmXmXmXmXmXmXmXmXmXmXmXmXgX.Xl.}.b.V.V.^.^.J.`._.|.|.`.(.^.Z._._._././.L.`.^.^.G._.a.:XgXmXmXmXmXmXmXmXmXmXmXmXmXmXmXmXmXmX",
"mXmXmXmXmXmXmXmXmXmXmXmXmXmXmXsX{.x.K.v.).(._.`.L.L.L.J.J._.^.^.)./._.`._./././.Z.S.).'.a.;XpXxXmXmXmXmXmXmXmXmXmXmXmXmXmXmXmXmX",
"mXmXmXmXmXmXmXmXmXmXmXmXmXmXjXsXM.x.).`.^.R.`.`.L.L.`.`./.K.Z.Z./._._._.L./.K./.A.Z.^.'.C.[.dXxXmXmXmXmXmXmXmXmXmXmXmXmXmXmXmXmX",
"mXmXmXmXmXmXmXmXmXmXmXmXmXjXjXsXJ Q oX^.^.).(.Z.)._.^.).^.v.v.^._._._._./.).K.K./.|.G.XXM.N.jXmXmXmXmXmXmXmXmXmXmXmXmXmXmXmXmXmX",
"mXmXmXmXmXmXmXmXmXmXmXkXmXmXjXyX> U e.{.Z.Z.Z.V.f.'.(.V.c.)./.`._.^.^.).^.Z./.].J.J.'.C.9 3 jXmXmXmXmXmXmXmXmXmXmXmXmXmXmXmXmXmX",
"mXmXmXmXmXmXmXmXcXmXcXdXmXmXgXyX> K P ' {.(.V.( u.H.Q.^.).).c.L.`.J.J.^.]._.^._.|.!.n.P P g eXkXmXmXmXmXmXmXmXmXmXmXmXmXmXmXmXmX",
"mXmXmXmXmXmXmXmXmXmXmXmXmXmXcXyXg O.U E ! m.{.( y %.a._._.^.`.]./.`.`._.V.(.(.{.M.) h P } L eXkXmXmXmXmXmXmXmXmXmXmXmXmXmXmXmXmX",
"mXmXmXmXmXmXmXmXmXcXgXmXmXmXjXeXg +.E E E ! ) D.f.C.E.'.Q._.`.J./._._.(.[.D.' Y k h f H } L eXmXmXmXmXmXmXmXmXmXmXmXmXmXmXmXmXmX",
"mXmXmXmXmXmXmXmXmXmXmXmXmXcXjXtX^ O.~ ~ E 9 9 r t.s.d.C.E.[.E.S.D.D.D.n.) P h j f B G H c ^ tXgXmXmXmXmXmXmXmXmXmXmXmXmXmXmXmXmX",
"mXmXmXmXmXmXmXmXmXmXmXmXmXkXcXtX@XK O.U -.:.2.$.q q q r I T Y Y T k h 6 s d v D H C M F i 4XtXmXmXmXmXmXmXmXmXmXmXmXmXmXmXmXmXmX",
"mXmXmXmXmXmXmXmXxXmXmXjXmXmXcXsX7XJ +.O.~ ;.3.4.2.=.W E L g c j j x v b Z G N C S  .{ ] J aXkXcXcXmXmXmXmXmXmXmXmXmXmXmXmXmXmXmX",
"mXmXmXmXmXmXmXmXmXmXmXmXmXmXmXjXkX<.g +.W 8.3.3.1.:.&.-.K } { A C F F A C M V { ` ! ^ 3 =XkXcXmXmXmXmXmXmXmXmXmXmXmXmXmXmXmXmXmX",
"mXmXmXmXmXmXmXmXmXmXmXmXmXmXcXmXcXtX< > @X-.W ,.W <.-.K ^  .C n n n V V M C Z / E 2.2 W sXmXdXmXmXmXmXmXmXmXmXmXmXmXmXmXmXmXmXmX",
"mXmXmXmXmXmXmXmXmXmXmXmXmXmXmXcXcX7X, ; : O.O.R l } | B { A M M N M n m m S } U <.*.2 iXjXjXjXjXmXmXmXmXmXmXmXmXmXmXmXmXmXmXmXmX",
"mXmXmXmXmXmXmXmXmXmXmXmXmXmXmXdXfX#Xu @.p - c X.@.H S B C V M N M M N M C { ` W $.2 iXfXaXjXjXjXmXmXmXmXmXmXmXmXmXmXmXmXmXmXmXmX",
"mXmXmXmXmXmXmXmXmXmXmXmXmXmXcXmXmXW z X...Z p - s b Z S H H G C m m m V F [ O.#X2 #.cXfXcXgXsXjXjXmXmXmXmXmXmXmXmXmXmXmXmXmXmXmX",
"mXmXmXmXmXmXmXmXmXmXmXmXmXmXcXmXmX#X: D ..S X.[ d - - a a x v s C m m A { c J :.$.*.mXcXcXsXkXsXmXmXmXmXmXmXmXmXmXmXmXmXmXmXmXmX",
"mXmXmXmXmXmXmXmXmXmXmXmXmXmXmXxXxXgX%X: g / | | @.+.i 7X#X<.^ - A M n V  .K &.4.8.8.xXaXjXjXVXjXjXmXmXmXmXmXmXmXmXmXmXmXmXmXmXmX",
"mXmXmXmXmXmXmXmXmXmXmXmXmXmXjXxXmXpXpXe.T 5 5 4 4 : #XmXjXjXtX, } ....X.| ! 5.8.#.5.xXmXjXaXjXxXmXmXmXmXmXmXmXmXmXmXmXmXmXmXmXmX",
"mXmXmXmXmXmXmXmXmXmXmXmXmXmXmXmXjXgXgX Xn.D.B.n.Q %XtXsXmXcXcX7., 6 k k P 9 t t -XrXxXmXcXcXmXxXmXmXmXmXmXmXmXmXmXmXmXmXmXmXmXmX",
"mXmXmXmXmXmXmXmXmXmXmXmXmXmXmXjXjXjXdX0Xr.h.}.'.r.<XjXjXdXmXcXcXrXq Q Q I ) a.s.0XgXxXdXcXfXmXxXmXmXmXmXmXmXmXmXmXmXmXmXmXmXmXmX",
"mXmXmXmXmXmXmXmXmXmXmXmXmXmXmXmXmXmXjXsX[.r.^.r.M.eXsXjXdXmXfXsXsX%XM.{.).{.(.m.dXmXdXxXmXcXdXmXmXmXmXmXmXmXmXmXmXmXmXmXmXmXmXmX",
"mXmXmXmXmXmXmXmXmXmXmXmXmXmXmXmXfXcXjXsXsX Xa.M.0XgXsXjXmXmXjXjXjX0XM.Z.K.].f.%XdXdXxXxXxXmXcXcXmXmXmXmXmXmXmXmXmXmXmXmXmXmXmXmX",
"mXmXmXmXmXmXmXmXmXmXmXmXmXmXmXmXfXcXsXtXpXgXpXsXxXdXmXjXjXsXsXgXmXgX$Xq.Z.x.e.qXgXgXmXmXxXjXsXsXmXmXmXmXmXmXmXmXmXmXmXmXmXmXmXmX",
"mXmXmXmXmXmXmXmXmXmXmXmXmXmXmXcXfXcXtXsXxXjXVXjXxXxXmXgXkXjXkXmXxXjXrX%XT.s.<XsXjXkXcXfXdXjXjXjXmXmXmXmXmXmXmXmXmXmXmXmXmXmXmXmX",
"mXmXmXmXmXmXmXmXmXmXmXmXmXmXmXmXdXmXjXjXjXkXcXfXfXdXdXxXmXcXVXmXmXgXjXjXuXuXjXgXcXxXfXfXkXjXxXxXmXmXmXmXmXmXmXmXmXmXmXmXmXmXmXmX",
"mXmXmXmXmXmXmXmXmXmXmXmXmXmXmXmXxXxXmXjXaXaXfXfXfXfXxXdXxXmXmXcXcXfXaXgXxXxXjXjXdXcXfXfXaXjXxXxXmXmXmXmXmXmXmXmXmXmXmXmXmXmXmXmX"
};
