/* XPM */
static char *_9219_1c4e372c81cdc063ed0080310884659f1fee93ded436172c37b114db6aa35ab8[] = {
/* columns rows colors chars-per-pixel */
"64 64 37 1 ",
"  c #ABACA7",
". c #AEAEAD",
"X c #B0AFAD",
"o c #B1B2AD",
"O c #B6B6B4",
"+ c #B8B8B6",
"@ c #BCBCBB",
"# c #C0BFBD",
"$ c #C1C1BE",
"% c #BEBEC0",
"& c #C5C5C3",
"* c #C9C7C4",
"= c #C7C8C3",
"- c #CAC9C6",
"; c #CDCDCB",
": c #D0CFCC",
"> c #CFD0CB",
", c #D2D1CE",
"< c #CECED0",
"1 c #D1CFD0",
"2 c #D4D4D2",
"3 c #D8D7D4",
"4 c #D7D8D3",
"5 c #DAD9D6",
"6 c #D6D6D8",
"7 c #D9D7D8",
"8 c #DCDCDA",
"9 c #E0DFDC",
"0 c #DFE0DB",
"q c #E2E1DE",
"w c #E1DFE0",
"e c #E4E4E1",
"r c #E8E7E4",
"t c #E7E8E3",
"y c #EAE9E6",
"u c #E9E7E8",
"i c #ECEBEA",
/* pixels */
";7+;<;<<8w&<06;&%w2-2;<6w6i0>0<6t&,6>665725323#3322w::977:$#99$2",
"6;6&<<;<<&&68<&6<6%<<;&<66<;6,-5006>ew>>;:::33*3;*79:9i22:-293*2",
"66&+8<&w<-@<-&<%2&%&&w-60<%20>066>80-+%$2*;97:3879e32222993yw7:9",
"-;+<&%<<6<;<-<<>&6826<&w6e<2u6,6>68e-645:,:78-1293:32e523qq97999",
"<&%-%66-<<%-68&<-<--<-<66=;020e---65;05<3281*3y1:783*7229:2722-7",
"<&6<-6<<<;&,<&<<58w6-;5w00664<,>8<84,>;2233*;78::2:-7935379179;;",
"&<&-w<%;6.%,%;-;&6>6<<w<<6660660606&e0603,99,23*e::783887997ww79",
"<---&--<><<<<6<%;666<<;5<<6w<>0&<-$486427932#&3738;888229977i617",
";6<O666-%64-6>%-5;67>86-,%>=4q4+-O8e&*27:239997929299:33ww9r7&11",
"55>6;&<@-e60>+&5&08--<--,6>e,0>54282*:22:3w22::,999992332:399291",
"<;6<<-&66,>>>66 +-&$46608e0=$0>4823339878392723921:92991329319-9",
"6<<<;&66-26$>-&&<&$-8>248>-@40q4&2e8;:2::*229388iq29:9991319919$",
"<5&<&--;>>$@0,>0<-260462-&%2>$448::5:&1r987,::8713r3i9:22797q9-9",
";<--<6@<74<<;6;&<>4>8-%-6,tq>44088,28:;:9989388299992*7:29qw3:39",
"65<66-5;-624--&8;;--4&@>5-0>4040*;&#**:981*72899993r:2i9999::33y",
"<6<<&<<<&4;86&6>2468e->040--4$>+@*:&&89:ee98:398-*9*2y:9297999i9",
"w86;-,<&@272-2;,:&,-&88w0$o>$44>q2q8#q3,3#3933,,3999y003:3qq3q3:",
"O<&w6<-&842>26;;,*-O-e2->>0004t4889#$q$333:500qy9:-333t30qqq33*:",
"-<;8<>>ue&>82>22*246658-$444=$+ 2,5:9933e99q:$::3$33$::,3*:033qq",
";6<<22e&o;66-,;,;7;O%85504$$>4>=,2,5q2359:,3*3*:q3q3qy3t0030q999",
"62<-8<0%<2>6>887,>&4>>5,=$4044>02$48>53,99:3qt:059:35$,y:399::9:",
";-<<<O+,-84-72,62462w8;-4>4>$4>t244q35$3:99ytq0y530ty3,:3q3:*339",
"2<O%>62&4;>5i2-$;-6e,%--t00t4040y04q::::3q393*00>$q5:30033:::333",
";%---0647e86>@-0e842>6<6$+4$>>$44=4,#:::qq3:53*330qq,303#:39ry5y",
"+%+<0&<062%&%->2>56>0>40->>444t4>-$,,339>00qq0033tq*39q:3r93:9:3",
"<<;6<8w<<42=46>&--00440440$0444$,4$->35303*3:33300::53:*9:535339",
";<6w<62<-6626,>e>202>->>4000$04>4$>>0q4$30303300t:339q:3:333:9q5",
"6;&O.;0<2>>00,&0>>04$40>4>04$t444:q4q4,,qq*::33,3:3:3:333r33:935",
"6<<<w0-<6;4;4,26,0q4>4>$>>>4040>33*$$$0::0:0tt0q:5q03:y99393#3y3",
"86<-&<<<&>626,6,>00$4-$4>4>04$>$::500y:0q0:005,350t3:333rr3:$3::",
"0<;;<<<226>6>>->04404>4444>>$4$$:t,y0$0q,30y3:30:*3*:93933*3:333",
"<&<<6-2<$42,6;-644$>>>>0>>$44>4033,33$330,30*:t500**::r939::339#",
"<&<20<6<<66866e66-22<<,0>>>44=0->t455400q*t3#0q03330:*35q9393:33",
"62&;<<<80%8w2t>0000<00064=>=,>00303>>0>4$:t03qqt53333:93:q3339r3",
"<6&86><;&%8;>6,<2<0;>6w->>04;>0$$>>>>>>4t903:55::333t9q3q:9:99:#",
"68<868<-;6>=t>,>,;22<>26404;004=003404qy33:*:30:*555:*:q:33:r#:q",
"%8&&<<68<<80>,w0>240;600>e64e0400$4$0q003q33q3350330*33:#:1q3:3q",
"6;6<<20;&;-%>6<;%e><20-<>0t,$44<4$4440$$33*:q350300q30033rr53##9",
";;%%ww6<06<60;>22>&60-&,<0<+$0,-4040000433035:03>03*:3:3r9::q:i3",
"&$62;&>6<<88;><202>62>,<<0--,0000$$44444:99:::03:3330*3q:#33qq99",
";6w<6008<6206606,6,e,-80>0000t>0404>44t44>4400*33003:3999q999:31",
"<6<6<<6w0-628w<260e&0e8<0>>t=$4=$4400t04>0tt>:,0303:30:3q399*:9*",
"086<6<<2%;e6w68<><,%00,<4=0>>t4,400$>000044>>0t3q3$53q95#37939w9",
"O6@;<%;;<w8-2<6-&>50665600,00,4444400y$>04>4*303553500#:39rq9rr7",
";%;;%26<8<-&6www046e2ete0>>,00404444t400,40*3>3,33,y3:39991:*31:",
"668;<26-66;00,<<,6e<>t6&004>00,4>0$44400303*3q333qy3:9:3933*3339",
"-<0<<0-w68>0>;<-8>856+&8>,>0>,,044>0t>t03000t*>03>:y9$*:9*993797",
"66;<64<<86e6-6<565,;>>t84,==>q4->4>>>>043q3303003*::*:99971:99::",
";662-222602&<6<0284><886e64>>6-->03*:3:qy:30q033:00313:3:9339:qw",
"66<6<<6$6<2<0ue02;6>8e>>6-;6e20>>*0,300:$$tt5:3903993331:33e3rr*",
"<%2<-<<<w26066<6<8584-;48;8-0642*>:003*q,33$$0qq3#*3339:19997:#3",
"<-,660w0%<2<<06680<74<872008>=;>*0>t*#33#3355q0$*:::q339r393*:e3",
"%<0<2<<><<-;<66<e>25556:r7&682-->3333*t3*q33#::35399rqq3797wr9w9",
"<26<60<2e&6it;<22&;76288w58644>e03033*3:33*:#33r5$39,39:377u9139",
"<066<<we6-66&@6080652>22>00,05e0*03>,035t30:-:::33333:#:31173993",
"e6-<<<<>;<<6-<<6-58--,&6w6w-,5,503300,,>3:5:93993339333993w7uu9w",
"-<2<<<6w66ww<6i<26;X,,3e48<+84&q0::3$:*$3:93*79299:72298919991:9",
"%---;<<<4w-<we<62;&,*:q2-e<-8qi&o*:$00qq113:91:19::89y2;19193*72",
"-<26;<<-0&%86<;68>e2-2:&;6-85--853:,:3:$**99:299*#e33:;373:79r3:",
"<6%.@<w86;6w<26646w5222-4-8-4<7q*33,5:3q1919192#3*:1r3919:932u*1",
"i;;&6w0&%%&<02<0>8;24-o<6748q6,q,3293::#*93;3:3993*99383999912:9",
"&.<<-&6-%=<&60066>5826&5e-;>,6q&#3*233$0931*:3q999:3:12899:99222",
"<<<&666=262<0<-<285;<-6->+;5,7&;::::93393:::3r931:3**:39;:273329",
"8%;6<2e%2666e66<266>-488i$<-2;$2::9::33>913**339#199382*27799193"
};
