/* XPM */
static char *_474d67df6764a308623a1d35c3021a4fIy5cLFIPDcJXuVV[] = {
/* columns rows colors chars-per-pixel */
"64 64 256 2 ",
"   c #313B37",
".  c #221D2D",
"X  c #4C3928",
"o  c #324739",
"O  c #6D5417",
"+  c #4C5032",
"@  c #6E532B",
"#  c #34364A",
"$  c #3F3661",
"%  c #4F3456",
"&  c #453867",
"*  c #513571",
"=  c #673C70",
"-  c #38514D",
";  c #3F6360",
":  c #485757",
">  c #4B4E4F",
",  c #496757",
"<  c #586754",
"1  c #6B6E51",
"2  c #52506D",
"3  c #6A4D75",
"4  c #546968",
"5  c #5B7969",
"6  c #52726F",
"7  c #667878",
"8  c #68716E",
"9  c #6B4A4F",
"0  c #906E17",
"q  c #AB7A16",
"w  c #95702A",
"e  c #AC7A2B",
"r  c #885515",
"t  c #8D6961",
"y  c #698779",
"u  c #6F8975",
"i  c #688669",
"p  c #B88E11",
"a  c #B88C2A",
"s  c #C38A1C",
"d  c #C9971B",
"f  c #D29614",
"g  c #DDA81B",
"h  c #ECAA15",
"j  c #CA9128",
"k  c #D9A929",
"l  c #D4AC2C",
"z  c #EBB53A",
"x  c #ECB12C",
"c  c #E09E2E",
"v  c #F3C63A",
"b  c #F1C719",
"n  c #8D916F",
"m  c #9C8C54",
"M  c #E8B947",
"N  c #F3B645",
"B  c #D9A94E",
"V  c #F7C847",
"C  c #583C84",
"Z  c #573B8C",
"A  c #69388C",
"S  c #7537A7",
"D  c #584E89",
"F  c #675888",
"G  c #6D4A92",
"H  c #5C678A",
"J  c #7B7784",
"K  c #6A6C8C",
"L  c #5A4BA3",
"P  c #6B53A7",
"I  c #7C58BD",
"U  c #7B57B8",
"Y  c #764EAF",
"T  c #7170AA",
"R  c #7D5AC4",
"E  c #7E5CCC",
"W  c #7956C5",
"Q  c #7A5AD4",
"!  c #7E6CD1",
"~  c #7F71E0",
"^  c #81489A",
"/  c #834AB9",
"(  c #8358BB",
")  c #8949AB",
"_  c #8377B1",
"`  c #807295",
"'  c #8359C4",
"]  c #835DCD",
"[  c #8C5CCC",
"{  c #8957C5",
"}  c #935CCD",
"|  c #9659CA",
" . c #855ED2",
".. c #8C5DD6",
"X. c #9C5DD5",
"o. c #975CD7",
"O. c #904DCB",
"+. c #A75EDC",
"@. c #B35CDC",
"#. c #8461CC",
"$. c #8461D3",
"%. c #8A62D5",
"&. c #8C64DA",
"*. c #8867DB",
"=. c #9364DC",
"-. c #9B63DD",
";. c #9568DC",
":. c #857ADA",
">. c #8A7BDD",
",. c #8474D6",
"<. c #8B71CA",
"1. c #A462DD",
"2. c #A966DD",
"3. c #B068DD",
"4. c #8E59E8",
"5. c #A35DE2",
"6. c #AD5DE4",
"7. c #A85DEC",
"8. c #B55DE7",
"9. c #AA5EF4",
"0. c #B25EF2",
"q. c #9565E1",
"w. c #9B64E4",
"e. c #956AE4",
"r. c #9B6AE5",
"t. c #9E65E9",
"y. c #9E6CEA",
"u. c #9364ED",
"i. c #8C7BE1",
"p. c #9D73EC",
"a. c #967CE9",
"s. c #9C68F4",
"d. c #9A77F3",
"f. c #8B63E3",
"g. c #A463E5",
"h. c #AB62E5",
"j. c #A36CE4",
"k. c #A466EC",
"l. c #AC63E9",
"z. c #A46BEC",
"x. c #AA6CED",
"c. c #AD6AE4",
"v. c #B261E4",
"b. c #B362EA",
"n. c #B965EC",
"m. c #A274E6",
"M. c #A373EC",
"N. c #A37AEC",
"B. c #A876E9",
"V. c #A666F2",
"C. c #AA65F2",
"Z. c #A56BF2",
"A. c #A96AF2",
"S. c #A56BFB",
"D. c #AB6BFD",
"F. c #A864FC",
"G. c #B568F7",
"H. c #A473F2",
"J. c #AA73F4",
"K. c #A57BF4",
"L. c #AA76FA",
"P. c #B378FC",
"I. c #B173EC",
"U. c #C465F6",
"Y. c #813A98",
"T. c #6C8A84",
"R. c #748A86",
"E. c #7B9589",
"W. c #7A9A95",
"Q. c #728B94",
"!. c #7BA68E",
"~. c #768CAB",
"^. c #7EA5A7",
"/. c #5F8681",
"(. c #738DCA",
"). c #879493",
"_. c #8AA59A",
"`. c #92AD96",
"'. c #8C90AB",
"]. c #89A9A5",
"[. c #96ABA6",
"{. c #89B5A9",
"}. c #97B6A9",
"|. c #9ABBB5",
" X c #88B8B9",
".X c #A8BCB4",
"XX c #A9B5AA",
"oX c #B6A88D",
"OX c #9AC5B5",
"+X c #A9C5B8",
"@X c #B3C9B4",
"#X c #A6D1AC",
"$X c #E6DFA9",
"%X c #8D89D1",
"&X c #9784E9",
"*X c #9D84F1",
"=X c #978BEA",
"-X c #A685EC",
";X c #A484F5",
":X c #A984F6",
">X c #A683F9",
",X c #A983F9",
"<X c #AA88FA",
"1X c #A68AF6",
"2X c #B387F8",
"3X c #AB9CF4",
"4X c #AB95FB",
"5X c #AC9CFD",
"6X c #A896F8",
"7X c #B49AF9",
"8X c #AD99EC",
"9X c #ADA1FD",
"0X c #AEA1F7",
"qX c #B3A3FD",
"wX c #B6A8FC",
"eX c #BAACFC",
"rX c #B9A6F7",
"tX c #BEB1FC",
"yX c #BBB0F4",
"uX c #BCA0ED",
"iX c #A2BAC4",
"pX c #C4A9F8",
"aX c #C2B4FE",
"sX c #C5BAFD",
"dX c #CABDFD",
"fX c #C7B6F8",
"gX c #C9B1F7",
"hX c #A8C9C5",
"jX c #B4CDC7",
"kX c #B9D7CA",
"lX c #BAD9D3",
"zX c #ABD2D1",
"xX c #BBE3CE",
"cX c #B5E6E4",
"vX c #9DC6C8",
"bX c #C3DACC",
"nX c #C3DCD3",
"mX c #C5DBD8",
"MX c #CCD0CC",
"NX c #C7E4CA",
"BX c #C4E3DB",
"VX c #CBE4DB",
"CX c #C9E6D7",
"ZX c #D3E8DA",
"AX c #C5F2DA",
"SX c #F9F6D7",
"DX c #CCC2FD",
"FX c #CDC5F4",
"GX c #C6D5EA",
"HX c #CDE4E3",
"JX c #CBEAE5",
"KX c #D4EBE3",
"LX c #D7EBE8",
"PX c #D7F3EC",
"IX c #FDFDE5",
"UX c #E6FAE9",
/* pixels */
">.>.>.:.~ ~ %X~ ! %X~ ~ :.~ ~ ! :.! %X=X%X=X=X6X9X9X9X9X4X5X9X5X3X9X5X9X9X9XqX7X9X9X6X0X5X5X5X5XeXDXDXeX6X5X5X0X5XeXdXwX5X5XtXDX",
":.:.:.>.i.i.:.&Xi.%X%X~ %X~ :.:.~ ,.! ! ~ &X=X=X*X6X3X3XrXqX5X9XqXqX7XrX5X6X5X9X3X6X9XqX5XqX5X3XqXfXDXsXwX9X5X5X6XqXdXtX3X5XeXDX",
"i.i.i.i.i.&X&X&X&X&X&X&X&Xi.%Xi.:.$.,.~ ~ %X~ d.*X6X=X,._ _ T _ '._ >.=X8XyX9X9X5XrX5X5X5X5X6X5X5XeXsXDXdXtX9X5X5X3XtXtXwX0XtXDX",
"&Xa.&X*X&X*X*X*X*X*X*X*X*X*X&Xi.>.>.,.~ ! ! %X~ T T '.[..XbXmXjXmXlX@X'.~.! &X6X4X3X3X9X5X6X9X5X5X6XqXtXdXDXsXeXeX5XqXtXtXtXsXsX",
"*Xd.*X*X;X;X;X;X1X1X1X1X*X*X*X*X&X*.i.! ,.,.L H ].+XKXPXPXKXKXkXPXPXPXPXNX.X'.'.8X0X9X6X6X9X6X6X6X5X6X5XwXtXdXdXsXeXqXqXeXtXtXeX",
";X<X>X>X<X<X<X<X<X1X>X<X1X1X;X>X;X&Xa.*X~ D ).NXVXnXbX@XZXZXLXLX+XCXKXVXHXPXBXXX'.%X5X5X3XqX6X9X3X6X5X5X5X9XeXaXDXaXqX9X0XyXeX9X",
"<X>X<X<X<X<X<X<X<X1X1X<X<X<X<X;XK.1Xa.a.D }.NXCXHXKXHXlXPXHXCXCXkXHXLXLXNXkXlXhXZX'.:.5X5X6X5X5X3X5X5X5X9X6X9XwXDXDX9X6X9XtXtXtX",
">X>X:X<X<X>X>X>X<X,X>X>X>X<X<X;X<X>X1XF .XZXjXJXCXZXCXCXVXVXVXZXKXLXCXKXnXkXLXKXNXNX'.%XqX6X5X5X5X5X5X5XqX5XqXsXFXdX0X5XwXsXDXDX",
",X,X,X,X,X:XL.:X,X,X,X,X,X,X,X,X;XP._ E.VXlXBXHXZXnXLXLXKXLXZXZXVXVXjX+XkXZXVXCXmX|.kXJ 5XqX3X5X5X9X9X0XyXtXsXDXDXqX5X9XqXtXDXDX",
">XK.>XK.>X:X:X:XK.,X,X,XL.,X,X:X:XP.D @XbXnXBXVXVXPXZXZXHXKXKXmXVX+X].XX}.lXmXVXVXlXHX[.<.qX3X5X5XeXtXsXdXDXdXaXeX9XqX9X9XeXeXeX",
"K.K.>X>XK.K.L.:XK.,X:XK.,X,XK.K.,X,.8 hXkXbXnXnXKXVXLXZXLXKXBXBX}.E.).u +XnXnXVXVXNXBXkXT 4X6XqXtXDXfXtXtXyXwX5X5XeXtXtXeXeX5X6X",
"K.K.K.>XK.K.K.K.K.K.K.K.K.K.K.K.P.T 7 hXbXmXlXCXmXCXmXCXVXnXVXjX]..XjXkX).lXVXNXZXbXlXCXQ.=X5XpXdXsXyXrX5X3X5X6XtXfXdXaXfXaX9X4X",
"d.K.K.K.K.K.K.K.K.K.K.K.K.L.K.K.P.P i hXbXmXlXkXBXKXUXZXKXBXCX+X.XkXjXjX.XjXBXBXHXnXlXBXR.>.7XgXdXrX4X4X4X1X6XeXDXyXwXqXsXDXeX4X",
"p.N.p.K.K.K.H.K.J.K.H.K.J.K.K.K.P.P y {.jXlXxX+XR.R.T._._.]._.jXzX_.W.hXmXmXlXnXnXmXlXkX7 <.7XfXdX8X<X<X<X<X6XtXsXuX6X1XrXdXpX4X",
"e.p.p.K.H.H.H.H.H.K.H.H.K.H.H.H.2XW 4 {.+XlXkXlXQ.- , ; 4 - }.jX6 ].zXQ.+XmXmXlXlXkXjXhX2 a.2XaXgX7X1X1X>X4XrXdXwX1X1X<X4XdXdX4X",
"e.e.p.p.p.M.H.H.H.H.H.Z.H.H.H.H.Z.J.> !.].+XxXhXy /.vXzXcX|.].W.^.JXHXHXR.lXkXkXjXjX@X}.2 K.-X7XgXpX8X1X,X8XgXfX4X-X-X1X-XgXgX8X",
"*.>.e.p.p.M.M.K.H.H.H.H.H.z.Z.H.p.P.U 4 ].^.OX`., W.vXcXxXcX6 6  XGXcXcX].`.hXOX|.|.}.4 U P.K.-XpXpXpX8X8XpXpX7X-X-X;XK.-XpXdX8X",
"%.&.e.e.p.M.H.z.H.H.H.z.H.H.H.H.H.y.P.L > `.{.u , ^.W.^.W.zX7 6 OX^. XzXiX5 }.^.].`.i & -XP.M.N.2X7XpXpXpXpX7X2X-X-XK.>X-XuXdX8X",
"$.*.&.e.r.y.z.M.H.z.z.H.H.H.H.H.D.K.y.2XD # u E.- ; - : 6 5 , 6 y /.5 ].iX4 y `.`., & m.H.M.K.L.N.B.2X2X7X8X:Xa.K.K.K.K.B.8XgXpX",
"Q *.*.;.e.y.y.y.y.H.y.H.Z.H.Z.H.M.S.A.2.P.W # - 1 m oXt 1 n > @ m > 1 m < 6 ].5 # 2 J.L.m.m.M.H.B.B.B.B.N.N.N.-XH.N.N.N.K.2XuXgX",
"$.Q *.&.e.e.y.y.y.y.Z.p.Z.p.Z.p.m.S.Z.p.g.F.p.& o $XSXSXMXIXo 1 SXoXZXSX@X< # $ U L.L.p.J.p.z.J.B.J.J.K.K.M.M.p.N.N.N.N.K.K.2X7X",
"$. .Q &.*.e.e.y.y.z.y.Z.Z.Z.p.Z.V.K.e.Z.z.q.e.Y   n SXSXIXoX.X).$XUXIXSXn 2 } P.P.s.M.m.p.Z.K.H.H.H.N.B.M.B.M.H.m.N.N.B.M.p.m.-X",
"*.$. .$.*.&.q.e.t.y.y.y.y.p.z.y.S.s.y.y.q.u.*.I ; 4 m $XoX_.UXHXn $XSXn _.F G.J.z.J.K.y.H.K.M.S.H.Z.M.y.m.M.H.M.p.M.H.a.p.H.M.m.",
"*.%. . . .&.&.q.q.t.t.y.k.s.z.s.r.t.k.e.=.*.$.W & W.< < - lXLXAXXX> 1 u kXD L.z.p.m.Z.L.M.M.M.B.M.K.H.S.H.H.M.p.N.H.K.m.m.M.K.m.",
";.&.%.$.$.$.%.*.;.q.e.w.w.r.e.w.r.;.e.u.&.E E E 2 `.hXi 5 lXKXHXHX)..XLXkX2 G.s.L.z.J.H.Z.Z.z.H.x.H.H.H.Z.K.H.M.M.M.p.p.M.N.M.p.",
"e.;.*.$.$.$.$.%.&.&.&.q.q.=.q.f.=.f. .] #.W Q f.* Q.|.; W.mXCXHXBX}.bXZXbX3 k.H.-.z.z.Z.z.M.Z.Z.H.H.z.M.M.Z.M.M.M.M.M.p.M.M.M.N.",
"t.e.q.*.$.$.] #.$.%.&.%.&.*.%.*.%.$.%.[ ] *.L * : E.E.- `.mXLXHXVXXX}.lXxXF D.D.P.V.A.z.z.z.L.Z.x.x.H.Z.Z.z.M.z.Z.M.z.H.M.M.M.M.",
"t.r.q.;.&.%.$.] E  . . .$.$.E  .E E Q E $.L H MXUXAXT.: `.MXLXZXmXjXR.HX}.3 ^ 4.s.S.x.j.Z.A.A.Z.A.z.Z.z.Z.M.z.M.z.y.M.y.y.y.M.M.",
"t.e.t.q.q.&..... .] ] ] E E E E R ! Q E P 4 NXzX).W.: 4 OXxXZXCXNXCX5 E.[.@X@XK Y D.7.Z.A.A.V.Z.z.Z.z.Z.Z.M.z.z.z.z.y.z.M.M.z.M.",
"e.w.r.w.w.;.=.%.$.$. .]  . .] ] R W U &.L 7 @Xy }.#X< : {.kXZXLXBXmX7 [.].].u nXJ ..F.F.S.c.k.A.Z.A.V.A.A.Z.A.M.Z.z.M.M.y.y.y.z.",
"&.q.w.t.w.w.q.q.=...&... . . .] f.f.] &...$ _.).K - . < }.jXZXLXmXCX- o i OX.XkXJ O.P.V.S.c.C.S.V.S.Z.Z.Z.Z.Z.z.z.z.z.z.p.y.y.j.",
"....w.w.k.t.w.w.-.=.=.&.&.%...%.[ ] q.} s.P # & C { w.2 {.vXkXBXVX.XA / & . > 5 2 S.l.z.S.G.G.z.A.A.C.A.A.A.x.z.z.M.p.z.j.j.y.p.",
" .....q.w.k.k.k.t.t.w.t.w.w.w.w.o.q.w.w.t.k.k.C.G.z.L.S u OX{.vXjX2 5.G.P.2.G A A.A.Z.Z.A.A.A.A.Z.A.A.A.A.Z.Z.z.z.z.y.j.y.y.y.y.",
"Q ....=.e.t.t.k.Z.t.t.t.t.t.w.t.t.t.t.t.t.k.V.V.V.t.Z.F.3 < ).E.o & G.D.s.F.P.D.A.A.C.A.A.V.V.C.A.A.C.A.A.Z.C.z.z.z.z.z.z.y.y.y.",
"E ]  .....t.w.k.V.k.V.t.k.k.k.k.k.V.k.V.V.k.V.k.F.k.F.V.e.L % # , F P.+.F.F.l.V.A.F.C.C.C.C.V.V.A.A.D.C.C.A.A.k.k.z.k.k.k.y.y.y.",
"E E ] ....q.w.k.t.V.7.k.V.V.k.V.V.V.C.k.V.C.k.C.D.1.C.l.k.P.} 7 #XG F.b.A.C.A.9.C.C.F.C.C.C.C.C.C.C.C.C.C.C.V.k.k.k.k.k.y.g.y.j.",
" .E E  .%.&.q.w.V.k.V.Z.k.C.k.k.V.C.k.C.k.C.V.C.g.G.V.9.F.0.O.y lXG D.D.C.l.C.F.C.C.C.C.F.C.C.C.C.C.C.C.C.k.C.k.k.k.k.k.j.y.w.g.",
" . .E ] $.%.-.w.t.z.z.z.A.z.A.z.C.k.l.k.C.k.k.z.k.9.k.V.G.F.[ H jX{ G.k.G.F.1.A.V.C.C.V.C.C.C.A.C.C.C.C.C.A.Z.k.k.k.z.j.k.k.g.y.",
"=.$.] E #.$.=.;.y.k.z.z.x.z.z.x.A.x.Z.Z.A.z.z.k.F.D.j.Z.r.P./ 5 @X) J.A.1.D.D.x.C.V.V.V.A.Z.A.A.A.A.C.C.A.Z.z.z.j.x.z.z.k.j.y.j.",
"&.*.#.E #.#.#.&.r.y.z.z.z.M.z.M.z.Z.z.z.z.z.A.x.m.z.Z.c.I.2.@ 8 zX0 t F.x.Z.F.c.A.z.A.x.A.A.z.A.x.A.x.A.A.Z.A.x.z.x.z.z.z.z.y.k.",
"-.;.%.#.E E #.%.-.y.j.z.z.z.A.z.y.J.m.p.p.2.Z.y.l.K.x.D.S.t p 8 }.d B 4.P.I.j.x.I.A.V.j.H.x.2.D.H.x.H.x.x.A.H.z.x.z.z.z.j.j.z.j.",
";.;.%.#.] E #.%.=.-.j.k.k.H.x.z.S.C.h.D.z.j.A.z.D.s.u.( 3 @ a m 8 w q 9 ^ 7.S.A.j.S.D.x.Z.V.J.z.x.x.x.A.H.j.x.z.j.z.z.k.k.k.j.k.",
"j.-.&.#.] E ] #.=.=.r.w.j.A.x.x.-.A.j.k.S.V.L.J.+.t t k M e r @ @ q f b l m t W F.P.j.m.y.M.j.k.k.j.k.j.c.x.z.k.x.k.c.j.j.k.k.w.",
"g.-.;.%.] R ' ] #.=.-.j.k.j.j.z.j.Z.z.j.J.Z...Y w v v z z M k p a v N M M v v B 3 I y.A.x.j.D.c.j.k.k.z.z.z.k.j.z.k.k.g.k.w.g.g.",
"g.g.-.} ] R E R #.%.;.g.g.j.g.k.y.g.x.5./ F J : p g x e 0 z N V V M V c q h z V n ` K Y O.h.z.k.x.j.k.j.k.k.k.g.g.g.g.g.g.g.g.5.",
"g.w.-.=.[ ' R R [ #.=.-.w.g.k.z.z.[ ( J `.xXbX4 O a 0 @ @ j c z M V k w X 0 p s 1 xXxX+X'.K ( x.k.k.g.k.k.g.g.g.g.g.7.g.g.5.5.w.",
"g.w.-.o.[ E R R E ] o.-.g.g.g.V.O.J kXAXhXy 4 * = * = S 9 f k z k j s p G D % 9 2 # 4 _.ZX@X[.G k.g.g.g.g.g.g.k.g.g.g.g.g.g.g.g.",
"g.5.g.;.[ ' W W R ' o.-.-.g.k.V.Y 8 @XT.* / { A.G.f.s.s.O d k c s a d p ) J.9.5.C.X.O.A 2 xX}.* z.k.g.g.g.g.g.l.5.l.g.h.h.7.g.l.",
"h.g.g.-.o.] ' I R ] ..-.5.g.g.g.0.3 K kXT X.G.l.5.C.k.O.O s M z k g g f G l.h.k.-.c.b.P +X.X2 5.k.g.g.h.h.k.g.g.h.g.h.g.6.g.l.g.",
"g.g.g.X.} [ R R I ' } w.w.g.g.h.k.k.& u AX)./ 0.1.g.9.o.+ a g N V z b p G S.k.5.x.7.F jX+X2 O.x.g.k.g.g.g.g.h.h.c.h.h.h.g.l.l.g.",
"h.g.g.X.-.{ ' R R ' [ o.5.g.g.6.w.0.l.& u AX_.Y A.k.l.O.@ a a d l c v d A G.7.b.O.K @X#X- O.I.0.h.g.k.h.g.h.h.g.l.h.h.l.g.l.g.g.",
"h.h.h.g.o.[ ' I I ' [ X.g.5.g.h.l.+.x.7.& u LX[.D 5.G.Y O j a d j c x f = F.7./ ` nXOX# O.V.1.5.k.g.g.g.k.h.h.h.h.l.l.h.l.l.l.l.",
"l.h.h.+.o.[ ' I I ' o.X.+.g.h.6.b.5.g.6.G.* 5 AX.X3 O.Y @ g h g x x x p = 5.D ).NX`.  W n.g.V.g.g.h.h.g.h.l.h.h.v.h.h.b.h.h.l.h.",
"l.h.h.1.o.} ' I I { [ X.5.h.h.h.6.3.l.7.0.I.* K JXkXJ $ r j d f g a s a X K .XLX_.> / 0.l.6.w.b.h.g.g.h.h.h.h.h.h.h.6.6.6.l.h.l.",
"l.l.h.+.X.} ' I I { } -.6.l.6.l.h.b.6.x.7.0.c.= 5 mXKX; r e a j s c g x + nXZX).# O.G.6.h.A.v.+.g.h.l.h.h.h.h.h.h.8.h.6.h.b.6.l.",
"h.l.g.1.X.[ ( I ( { } +.g.6.l.b.7.0.v.2.6.8.b.x.A 5 mX< 0 e d x N x h h O hXW.# X.b.6.0.v.+.k.x.h.h.k.h.h.h.g.h.h.h.v.h.8.6.b.b.",
"v.h.1.1.-.' R I ' [ X.+.h.l.l.b.U.+.6.v.h.b.8.U.U.* }.> w a d a f k g x O .X: X.G.G.6.8.G.h.1.l.h.h.h.h.h.h.h.v.h.@.l.8.v.b.b.8.",
"h.1.1.X.} ' I I ' [ X.1.6.l.8.b.7.g.n.8.n.P D { O.8 zX+ e p x z M M z x 0 +X[.Y.8.G * j.5.g.k.l.l.l.l.l.h.h.6.h.h.h.v.6.h.8.b.v.",
"@.1.1.} { ( ( ( { } 1.@.8.b.b.b.b.0.+.n.8.G  XH * XXkX+ 0 e f x x x x g O _.JX2 D H H ' c.l.G.b.h.l.l.h.h.6.h.v.6.v.v.v.v.v.v.v.",
"+.+.} [ ( I ( ( } } +.h.v.b.b.8.@.U.v.h.@.C '.! 4 MXCXu   + 9 O O r O + > hXxX[.~.(.> O.n.3.6.6.l.l.h.l.l.h.l.6.v.8.v.v.v.v.v.h.",
"| X.#.( I I ( ( | X.2.v.h.v.v.v.3.@.n.6.G.2 i L 7 lXnX)., W.W.u y T.W.OXy E..X`.6 T - +.n.X.x.l.l.h.v.l.h.v.h.v.@.v.v.v.v.v.3.@.",
"| ( ( ( ( ( { | o.+.3.v.v.h.b.v.v.v.0.n.n.G , E.OXjX+X5 4 zXlXVXxXHXBXZX8 W.{.].!.7 % l.b.G.h.v.v.v.v.c.v.h.v.v.v.v.v.v.v.v.v.h.",
"( ( ( U ( ( | } +.2.@.v.@.v.v.v.l.v.v.2.8.b.= > < 4 4 >   `.kXlXlXlXHXMX> 2 6 4 , & +.G.3.b.8.3.3.n.v.c.v.v.@.v.v.v.v.v.v.3.v.v.",
"( ( ( ( ( | X.+.@.8.v.8.v.v.v.n.@.v.v.@.v.8.U.O.G S ) 8.* : ].+X+X+X}.: / @.Y.G ) G.l.3.v.v.@.I.v.v.v.v.h.v.v.v.v.3.v.v.v.v.v.v."
};
