/* XPM */
static char *_ae28e067e914dc9bb573c020b29b5f7z6ukO3PMxJmHoTtt[] = {
/* columns rows colors chars-per-pixel */
"64 64 230 2 ",
"   c #080109",
".  c #110004",
"X  c #250500",
"o  c #2D0201",
"O  c #2C0B0D",
"+  c #250B04",
"@  c #370407",
"#  c #3A120A",
"$  c #390615",
"%  c #371513",
"&  c #24081E",
"*  c #182E35",
"=  c #372A31",
"-  c #45090D",
";  c #491509",
":  c #450816",
">  c #540D13",
",  c #48121B",
"<  c #561817",
"1  c #412319",
"2  c #463009",
"3  c #4A0E27",
"4  c #571621",
"5  c #551429",
"6  c #472520",
"7  c #463230",
"8  c #6A353F",
"9  c #564817",
"0  c #6C581E",
"q  c #7C551A",
"w  c #7A6C17",
"e  c #787616",
"r  c #484F3F",
"t  c #644123",
"y  c #766522",
"u  c #726F31",
"i  c #183C48",
"p  c #573E42",
"a  c #214754",
"s  c #1C5C6B",
"d  c #204E6F",
"f  c #574448",
"g  c #6A5E53",
"h  c #766F54",
"j  c #6A5A63",
"k  c #7C7674",
"l  c #826D17",
"z  c #815935",
"x  c #864D55",
"c  c #927450",
"v  c #937375",
"b  c #B07872",
"n  c #7F8626",
"m  c #7D9B53",
"M  c #65867F",
"N  c #979619",
"B  c #91851F",
"V  c #A49A18",
"C  c #BBB61C",
"Z  c #9C952D",
"A  c #959239",
"S  c #94872C",
"D  c #AC9E28",
"F  c #AA8836",
"G  c #A69938",
"H  c #A4A327",
"J  c #B3A224",
"K  c #BBB226",
"L  c #A7A636",
"P  c #BBAD33",
"I  c #AEB335",
"U  c #E59134",
"Y  c #E49721",
"T  c #C2AE26",
"R  c #C2AE2C",
"E  c #C5B225",
"W  c #CBB925",
"Q  c #C5B22A",
"!  c #CAB62C",
"~  c #CDBB2C",
"^  c #C5BA25",
"/  c #D0BE2C",
"(  c #C4AE35",
")  c #C5B233",
"_  c #C9B533",
"`  c #CDBB33",
"'  c #CCB639",
"]  c #CEB93A",
"[  c #C7BA30",
"{  c #D3BE39",
"}  c #EEA62C",
"|  c #EDAD37",
" . c #C9C319",
".. c #EED21E",
"X. c #D3C22C",
"o. c #DBCB2D",
"O. c #D7CA28",
"+. c #DCD32C",
"@. c #D7D825",
"#. c #D4C231",
"$. c #DBCB33",
"%. c #D9C736",
"&. c #CBCD2C",
"*. c #E4D929",
"=. c #E8C838",
"-. c #E2D335",
";. c #E7DB33",
":. c #EADC35",
">. c #E5D439",
",. c #EBDC3C",
"<. c #E6D73A",
"1. c #F8D737",
"2. c #F0CB2E",
"3. c #DFE03D",
"4. c #E9E628",
"5. c #F6EB2D",
"6. c #F9ED2E",
"7. c #F7E829",
"8. c #F4F32F",
"9. c #FBF22D",
"0. c #F8F729",
"q. c #EEE13C",
"w. c #EEEB3B",
"e. c #E9E532",
"r. c #F2E635",
"t. c #FCE536",
"y. c #F6EB34",
"u. c #F9ED35",
"i. c #F3E53C",
"p. c #FAE73D",
"a. c #F6EA3A",
"s. c #F9ED39",
"d. c #EDF53B",
"f. c #F2F333",
"g. c #FBF136",
"h. c #FDF236",
"j. c #FCF234",
"k. c #FDFB34",
"l. c #F2F23B",
"z. c #FDF139",
"x. c #FDF13D",
"c. c #FDF13B",
"v. c #FEFC3C",
"b. c #F6FB38",
"n. c #EDF12B",
"m. c #908648",
"M. c #989447",
"N. c #97885A",
"B. c #8A8C4E",
"V. c #A29C4C",
"C. c #939073",
"Z. c #A19E7B",
"A. c #B3B353",
"S. c #CDB643",
"D. c #CCB543",
"F. c #EB9566",
"G. c #D8C341",
"H. c #F9C844",
"J. c #EFDD42",
"K. c #F7D046",
"L. c #EAE745",
"P. c #F4E542",
"I. c #F7EA42",
"U. c #FCEF40",
"Y. c #FBED42",
"T. c #FCED4A",
"R. c #F9E747",
"E. c #FEF142",
"W. c #FDF243",
"Q. c #FEFD43",
"!. c #FEF34C",
"~. c #FEFC4A",
"^. c #F3F245",
"/. c #FFFF55",
"(. c #2D718A",
"). c #797F8D",
"_. c #AF6F87",
"`. c #358D9F",
"'. c #3297B7",
"]. c #398FAA",
"[. c #458396",
"{. c #528693",
"}. c #7B8A97",
"|. c #5687A2",
" X c #4C91A5",
".X c #719EAF",
"XX c #37A6D4",
"oX c #429BC7",
"OX c #45ADC7",
"+X c #47AFD6",
"@X c #49A9E3",
"#X c #9B9A8E",
"$X c #9D9E98",
"%X c #928887",
"&X c #A59F92",
"*X c #92A68C",
"=X c #A9A59C",
"-X c #9D99A5",
";X c #9295A2",
":X c #91A8AC",
">X c #A6A7AA",
",X c #B1A8A7",
"<X c #B8B6AB",
"1X c #AFAFB8",
"2X c #CA8395",
"3X c #DB8FA8",
"4X c #EE96A9",
"5X c #FDAAB9",
"6X c #E5B2B5",
"7X c #B8B6D0",
"8X c #D4CCD6",
"9X c #CBCBC9",
"0X c #FCCDC3",
"qX c #FCEBDD",
"wX c #EBEBDD",
"eX c #DBD4E7",
"rX c #EBDDE4",
"tX c #E2DAF2",
"yX c #D9E0F2",
"uX c #F9FBEE",
"iX c #EAE9F2",
"pX c #F6E9FD",
"aX c #ECF3F7",
"sX c #FDFEF5",
"dX c #F4F4FD",
"fX c #FDF4FD",
"gX c #F5FDFE",
"hX c #FDFDFD",
"jX c #FBFBF4",
"kX c #EBE6E9",
/* pixels */
"s.s.s.s.s.s.s.u.s.s.s.a.s.s.s.s.s.s.s.s.s.s.s.s.s.s.s.s.s.u.u.s.u.s.s.s.s.s.s.s.s.s.s.s.Y.s.s.g.6.s.u.6.s.s.s.I.s.s.s.s.s.s.s.s.",
"s.s.s.s.s.s.s.s.s.s.s.u.s.s.u.s.s.s.u.s.s.s.s.s.s.s.s.s.s.s.s.s.s.s.u.s.s.s.s.s.s.s.s.p.s.s.c.s.E.T.E.z.a.u.u.s.s.s.s.u.s.s.s.s.",
"s.s.s.s.s.s.u.s.s.s.s.s.s.s.s.s.s.s.s.s.s.s.s.u.s.s.u.s.s.s.s.s.s.s.s.s.s.s.s.s.s.s.u.s.s.c.s.,.O.$.,.E.s.s.s.s.s.s.s.s.s.s.s.s.",
"s.s.s.s.s.s.s.s.s.s.s.s.s.s.s.s.s.s.s.u.s.s.s.s.a.s.s.s.s.s.s.s.s.s.s.s.s.s.s.u.s.s.s.y.y.W.J.X.! T ~ ,.E.s.s.Y.s.s.s.s.s.s.s.s.",
"s.s.s.s.s.s.s.s.s.s.s.s.s.s.u.s.s.s.s.s.s.s.s.s.s.s.s.s.u.s.s.s.s.s.s.s.s.s.s.s.s.s.a.s.u.Y.$.T ] ' ! X.I.u.i.s.s.s.s.s.s.s.s.s.",
"s.s.s.s.s.s.s.s.u.s.s.s.s.s.l.a.s.s.s.s.s.s.s.s.s.u.s.s.s.s.s.s.s.s.s.f.s.s.s.s.s.a.a.s.s.a.X._ ) ' _ ~ s.z.s.s.s.s.s.s.s.s.s.s.",
"s.s.u.s.u.s.s.s.u.s.s.s.s.s.s.s.s.u.s.s.s.s.s.s.s.s.s.s.s.l.s.s.s.s.s.a.s.s.u.s.s.s.s.s.h.a./ ' _ ` ' W r.s.s.y.s.s.u.s.s.s.s.s.",
"s.s.u.s.s.s.s.s.s.s.s.s.s.s.s.s.s.s.s.s.s.s.f.a.s.s.s.s.s.a.s.s.s.s.s.s.s.s.s.s.y.c.p.u.s.Y./ ' ~ Q ' { I.h.s.u.u.s.s.s.s.s.s.s.",
"s.a.Y.s.y.s.c.r.q.I.s.u.g.s.s.6.s.s.s.s.s.s.s.s.s.s.s.s.u.s.s.s.s.s.s.s.u.s.s.s.u.s.a.s.u.s.,.Q S.( ~ -.s.z.s.s.s.s.u.u.s.s.s.z.",
"s.u.s.u.g.E.J.X.W o.Y.h.y.s.s.s.u.a.s.s.s.s.s.s.u.s.s.s.u.s.s.s.s.s.s.s.s.s.s.s.s.a.a.s.u.h.i.-.W W $.i.Y.s.y.s.s.s.s.y.s.s.s.s.",
"s.s.h.5.z.i.{ R ) ~ Y.z.y.Y.I.s.s.s.s.s.s.s.s.s.s.s.s.s.s.s.s.s.s.s.s.u.s.s.s.s.z.a.s.s.5.u.s.s.i.i.s.s.s.s.s.Y.s.s.s.s.s.s.z.s.",
"s.s.Y.s.I.>.E { S.~ I.s.s.s.s.s.s.s.s.s.u.s.s.s.s.s.s.s.s.u.s.s.s.s.s.s.s.s.s.s.s.a.s.x.y.u.h.s.E.s.z.u.s.s.s.s.s.s.s.s.s.s.s.s.",
"s.y.s.Y.Y.-.T { ( X.s.u.h.r.s.s.s.s.s.s.s.s.u.s.s.s.s.s.s.s.s.s.s.s.s.s.u.s.s.s.s.s.s.s.s.s.u.u.s.y.a.u.u.z.s.s.u.s.s.s.s.s.z.a.",
"s.s.u.u.s.;.E ( W ,.Y.u.h.y.z.s.s.s.s.u.s.s.s.s.s.s.s.s.s.s.s.s.s.u.s.s.s.s.u.s.u.s.s.s.I.s.I.s.Y.Y.s.s.y.y.s.u.s.s.s.s.s.s.s.s.",
"s.c.u.6.s.i.$.{ ;.s.z.y.I.s.z.y.s.s.u.a.s.s.s.s.s.s.s.u.s.s.s.s.s.s.s.s.s.s.s.s.s.s.s.s.z.s.s.s.i.s.s.s.s.s.s.s.s.s.s.s.s.s.s.s.",
"s.s.I.s.s.s.s.Y.s.s.y.s.p.s.s.s.s.s.s.s.s.s.s.s.s.s.s.s.s.s.s.s.s.s.s.s.s.s.s.s.s.s.s.s.s.s.u.s.u.s.s.s.s.s.s.l.s.s.s.s.s.s.s.s.",
"s.s.s.s.s.s.s.u.s.u.u.s.Y.u.s.s.y.T.c.y.s.I.s.6.s.s.a.j.6.p.y.W.R.a.f.U.6.s.g.s.u.s.s.u.s.c.r.s.s.u.s.s.s.s.s.u.s.s.s.s.s.s.s.s.",
"s.s.s.s.s.s.s.s.s.s.u.s.y.y.h.E.s.:.a.s.s.s.6.I.Y.W.n.6.p.z.u.a.7.E.y.z.s.I.a.g.p.h.y.I.s.s.z.u.s.u.s.s.6.h.p.s.s.s.s.s.u.s.s.s.",
"s.s.s.s.s.s.s.s.I.u.u.s.y.h.s.:.` Q ! P.u.c.i.c.s.a.W.s.T.R.7.c.W.5.!.s.s.s.h.i.W.y.i.h.z.u.r.s.p.z.s.s.g.u.s.s.u.s.s.s.u.s.s.s.",
"s.s.s.s.u.s.s.s.s.u.y.s.u.s.i./ ( ` D./ j.y.v.r.k.[ [ !.8.y.c.s.g.s.y.s.z.$.H Q.w.k.!.a.y.u.p.j.s.s.p.P.s.s.s.s.s.s.s.s.s.s.s.s.",
"s.u.s.s.s.s.s.s.s.u.s.s.a.s.L.) ` _ ~ / j.W.B Q.k.N B k.f.w >.g.y.Q.y ;.b.C e b.k.V X.Q.I.u.E.r.x.y.o.%.<.Y.s.y.s.s.s.s.s.s.s.s.",
"s.s.s.s.s.s.s.s.s.u.s.s.s.s.,.Q ~ D.~ S.a.W.y e I h h L e e /.a.y.v.H 9 A.c g L H 9 l.5.z.s.u.s.s.y.W ( { Y.s.s.s.f.a.s.s.s.s.s.",
"s.s.s.s.s.s.s.s.s.u.s.Y.s.z.q.! ^ _ ! >.x.v.N k tXhXdXpX7Xm.@.Q.g.w.A -XkXdXdXpX;Xu d.a.s.p.I.y.y.g.X.) W s.u.c.s.s.s.s.s.s.s.s.",
"s.s.s.s.s.u.s.s.s.s.s.s.u.6.s.>.` ' -.x.k.Z 1XgXhXhXjXhXgXkXc 4.k.m.8XhXsXhXhXuXhX8XA j.p.s.I.0.a.z.>.' -.z.z.i.s.s.s.s.s.u.s.s.",
"s.s.s.s.s.s.a.s.s.s.s.s.s.s.s.s.5.y.f.!.*.C.sXhXhXfXwX>X=XaXeXH ^ 1XhX,X-X9XhXhXhXgX,XE W.^.8.s.s.s.s.s.s.s.u.s.s.s.u.s.s.s.s.s.",
"s.s.u.s.s.s.l.s.s.s.s.s.s.s.s.u.z.R.y.k.L 9XhXaXsXrX(.+XOX{.eX&Xu pXM OX@X`.<XhXfXjXaXB.h.z.6.Y.s.s.s.s.s.s.s.s.s.s.s.s.s.s.s.u.",
"a.s.s.s.u.s.s.s.s.s.s.s.s.s.s.u.W.u.y.s.M.aXgXhXsX;X+Xa * '.:X=XM 9X'.s * OX{.fXsXgXsXZ.4.z.s.t.s.s.s.s.s.s.s.s.s.s.s.s.s.s.s.s.",
"s.s.s.s.s.s.s.s.s.s.s.s.s.s.s.s.y.W.e.h.N.dXsXhXhX.X].  . (..X>Xv 1X`.    (..XwXsXaXhXZ.*.c.u.s.s.s.s.s.l.a.s.s.s.s.s.s.s.s.s.s.",
"s.u.u.s.s.s.s.s.s.s.s.s.s.s.s.s.Y.y.9.j.G yXhXfXhX>X`.d i (.7XC.r <X|.s * ].}.hXhXjXhXM.u.R.c.s.s.u.u.s.s.s.s.s.s.s.s.s.s.s.u.s.",
"s.s.s.s.s.s.s.s.u.u.s.s.u.s.s.s.r.x.i.Q.W =XfXgXhXhX*X X{.:X,XL +.A }.|. X}.kXgXjXjX6Xc 6.6.s.^.s.s.s.u.s.u.s.s.s.s.s.s.s.s.s.s.",
"s.s.s.s.s.s.s.s.s.s.s.s.s.s.s.s.Y.u.f.H.} U U 0XhXhXjXqXqXgXB.0.W.4.*XsXrXhXhXhXpXF.| | } H.d.t.s.s.s.s.a.s.s.s.s.s.s.s.s.s.s.s.",
"s.s.s.s.a.s.u.s.s.u.s.s.s.s.s.s.n.u.R.Y 2.T.j.H.dXhXhXhXgX-XS a.j.o.g aXhXhXjXhX6X..Q.1.1.U 5.g.s.s.s.s.s.s.s.s.s.u.u.s.s.s.s.s.",
"s.s.s.u.s.s.s.s.f.i.u.s.x.s.s.y.P.h.2...T.R.6.<.C.,X1X$XM.#.q.,.!.J K M.#X<X<X#XF ~.Z V v.=.=.h.s.s.s.s.s.u.u.s.6.s.a.s.g.y.a.s.",
"s.s.s.s.s.s.u.s.s.s.s.s.s.s.s.s.a.s.P.p.~.l P ~.4. .&.+.r.h.h.g.w.*.j.k.;.^  .@.k.[ % H Q.{ t.u.s.s.s.s.s.s.s.s.p.I.I.z.y.c.W.s.",
"s.s.s.s.s.s.s.s.s.s.s.s.s.s.s.s.v.y.E.y.8.G + w <.~.v.g.U.i.y.f.y.z.R.y.c.~.b.J.w o % 3.9.p.z.5.s.s.s.s.s.s.s.s.u.a.s.s.s.,.$.>.",
"s.s.s.s.s.s.u.u.s.s.s.s.s.s.s.s.e.i.g.z.j.4., $ O 0 J q.b.8.k.Q.k.0.c.f.e.I 0 O @ , 8 v.h.u.s.T.s.s.s.s.s.s.u.s.6.z.u.z.i.{ R _ ",
"s.s.s.s.s.s.s.s.s.s.s.s.s.s.s.y.~ _ i.y.Y.k.q : < $ $ # u V.G P P L M.N.1 @ @ < < @ S k.y.p.s.y.s.s.s.s.s.s.s.s.p.s.s.E.o.Q ] ( ",
"s.u.s.s.s.s.s.s.s.s.s.s.x.s.s.y.' ' ,.u.l.~.K + 4 > < X %XfXtXj . :XuXaX7 , 4 > : 6 4.j.f.s.s.j.s.s.s.s.s.s.s.s.u.z.s.c.*.T ] ! ",
"s.s.s.s.s.s.s.s.s.y.s.s.z.s.s.u.>.X.Y.u.y.i.~.9 $ < ; O -XhXhXg X $XhXhXf - # 4 o B v.r.p.!.6.R.s.s.s.s.s.s.s.s.y.g.6.s.i.%./ -.",
"u.s.s.s.s.s.s.s.s.s.s.s.s.s.s.g.j.c.s.u.s.u.j.o.- : < ; 1 f j 7 $ = f 7 $ > < : 9 I.8.Y.p.f.l.7.s.s.s.s.s.s.s.s.I.a.z.s.s.!.i.h.",
"s.s.s.s.s.s.s.s.s.u.s.s.s.s.s.s.s.z.s.y.y.h.5.Q.H o 5 ; o + @ $ - $ O o > < - 1 r.s.s.s.a.s.s.s.s.s.s.s.s.s.s.s.z.s.s.s.s.s.s.u.",
"s.s.s.s.s.s.u.s.s.s.s.s.s.s.s.s.u.s.s.s.c.Y.s.s.k.G X 5 _.3X2X8 8 2X4Xb 6 & 2 ;.y.s.Y.s.y.u.s.p.s.s.u.u.s.s.s.s.s.s.s.s.s.s.s.s.",
"s.a.s.s.a.s.s.s.s.s.s.s.s.s.u.s.c.y.y.E.P.o.$.>.I.k.C z 2X4X5X5X5X5X4X3Xx l c.c.s.s.Y.s.s.s.s.s.s.s.s.u.s.s.s.s.s.s.s.s.s.s.s.s.",
"s.s.s.u.s.s.s.s.s.s.s.s.s.s.s.s.s.s.s.R.X.! Q Q <.I.v.a.D c c b v c c G @.k.l.d.s.u.s.s.s.s.s.s.s.s.s.s.s.s.s.s.s.s.s.s.u.s.s.s.",
"s.s.a.s.s.s.s.s.s.s.s.s.s.s.s.s.u.s.c.:.E ' ' _ O.s.p.s.b.d.e.*...r.n.k.c.h.5.R.s.s.s.s.s.s.u.u.s.s.u.s.s.s.s.s.s.u.s.s.s.s.s.s.",
"s.s.l.s.u.s.s.s.s.s.s.s.s.s.s.s.s.a.s.-.W ' ' _ { s.s.s.5.z.E.p.j.5.z.P.R.a.c.s.s.s.s.u.s.s.s.s.s.s.s.s.s.s.a.l.s.s.s.s.s.s.s.s.",
"s.s.s.s.s.s.s.s.s.s.s.s.s.s.s.s.s.s.c.-.Q ' ] T $.x.i.I.g.5.I.s.Y.5.u.E.z.j.6.y.s.u.u.p.s.s.s.s.s.s.s.s.s.u.s.s.s.s.s.s.s.s.s.s.",
"s.s.s.s.u.s.s.s.s.s.s.s.s.s.s.s.p.s.s.P.~ ) _ ~ y.l.x.s.s.s.u.s.i.Y.u.t.a.^.i.c.u.s.s.s.s.s.s.s.s.s.s.s.s.s.s.s.s.s.s.s.s.u.s.s.",
"s.s.s.s.s.s.s.s.a.y.z.s.I.s.s.u.s.s.p.E.:.O.o.i.s.z.h.s.s.u.s.s.s.s.s.s.s.s.s.s.h.s.,.>.p.z.a.s.s.s.s.s.s.s.s.s.y.s.s.s.s.x.R.X.",
"s.s.s.s.s.s.s.s.I.z.g.s.y.s.z.y.s.s.s.s.Y.c.s.Y.c.s.a.s.s.s.s.s.s.s.s.s.s.s.s.s.s.%.T ` i.j.u.E.s.u.s.s.s.s.s.s.s.s.p.s.s.z.p.~ ",
"s.s.s.s.s.u.s.s.a.y.g.W.E.s.y.s.u.s.s.u.s.z.c.s.s.Y.s.s.u.s.s.s.s.s.s.s.s.s.s.s.R.$.[ $.a.9.5.I.s.s.s.s.s.s.f.a.s.s.a.s.s.s.i.o.",
"u.u.u.s.s.s.s.s.s.z.s.<.<.i.c.s.u.u.s.s.u.s.u.s.u.s.s.r.r.s.y.s.s.s.s.s.s.s.s.s.s.a.p.s.I.s.y.u.u.s.s.s.s.s.s.s.s.s.s.s.s.f.x.q.",
"s.s.s.s.s.s.s.s.u.s.P.~ _ $.s.s.s.s.s.I.x.u.s.x.u.y.s.c.c.s.y.s.s.s.u.s.s.s.s.s.u.6.h.s.y.s.x.u.s.s.s.s.s.s.s.s.s.s.s.s.y.y.s.Y.",
"s.s.s.u.s.s.s.s.s.u.J.R ) X.a.s.I.s.s.s.a.a.a.y.s.5.s.i.P.E.h.y.s.s.s.s.s.s.s.s.s.s.s.s.y.u.s.I.s.s.s.s.s.s.s.s.s.s.s.s.u.u.s.s.",
"s.s.s.s.s.s.s.s.s.c.i.O./ :.E.s.y.s.z.s.s.s.x.x.Y.u.u.%./ r.z.s.s.s.s.u.s.s.s.s.s.I.I.c.z.s.s.s.s.s.s.u.s.s.s.s.s.s.s.s.s.s.u.y.",
"s.s.s.s.s.s.s.u.s.u.s.E.i.s.s.s.g.s.y.s.s.s.y.u.I.j.E.G.Q *.h.R.s.s.s.u.s.s.s.s.s.u.6.6.s.I.a.u.s.s.s.a.s.u.s.s.s.s.s.s.s.s.u.u.",
"s.s.s.a.s.s.s.s.s.s.s.s.s.s.s.s.u.u.s.s.s.s.s.s.u.s.Y.i.O.*.Y.s.s.s.s.s.s.s.s.s.s.s.s.u.s.s.s.s.s.s.s.s.s.s.s.u.s.s.s.s.a.s.s.s.",
"s.u.s.s.s.s.s.s.s.s.s.s.s.s.s.s.u.s.s.s.s.s.s.s.s.s.Y.Y.i.I.E.y.u.s.s.s.u.s.s.s.s.s.s.s.s.s.s.u.s.s.s.s.s.s.s.s.s.s.s.s.s.s.s.s.",
"s.s.s.s.s.s.s.s.s.s.s.s.s.s.s.s.s.s.s.s.s.s.u.s.y.s.u.u.s.s.s.u.s.s.s.s.u.s.s.s.u.s.s.s.s.s.s.s.s.u.u.s.s.s.s.s.s.s.u.s.s.s.s.s.",
"s.s.s.s.s.u.s.u.s.s.s.s.s.s.s.s.s.s.s.s.s.s.s.s.s.s.u.y.u.u.a.Y.s.s.s.s.s.s.s.s.s.s.s.s.s.s.s.s.s.s.a.s.s.s.s.s.s.s.s.s.s.s.s.s.",
"s.s.s.u.s.s.s.s.s.s.u.s.s.s.s.s.s.s.s.s.s.s.s.s.s.s.s.c.s.s.s.s.s.s.u.s.s.s.s.s.s.s.s.s.s.s.s.s.s.s.s.s.s.s.s.s.s.s.s.s.s.s.s.s.",
"s.s.s.s.s.s.s.s.s.s.s.s.s.s.s.s.s.s.s.s.s.s.s.s.s.i.s.s.a.s.s.s.s.s.s.s.s.s.s.s.s.s.s.s.s.s.s.u.s.s.s.s.s.u.s.s.u.s.s.s.s.s.s.s.",
"s.l.s.s.s.s.s.s.s.s.s.s.u.u.s.s.s.s.s.s.s.s.s.s.s.s.p.s.a.y.f.z.s.s.s.s.s.s.s.s.s.s.s.s.s.s.s.s.s.s.a.u.s.s.s.s.s.s.s.s.s.u.s.s.",
"s.a.s.s.s.s.u.s.s.s.s.s.s.s.s.s.s.s.s.s.s.s.s.s.s.s.s.s.z.z.s.y.s.s.s.a.s.s.u.s.s.s.s.f.a.s.s.s.s.s.s.s.s.s.s.s.s.s.s.s.s.s.u.u."
};
