/* XPM */
static char *e831f65141e44245d6592da813cde1f4fbCmUPy4JJ442KCJ[] = {
/* columns rows colors chars-per-pixel */
"64 64 249 2 ",
"   c #000C13",
".  c #00121B",
"X  c #220000",
"o  c #2F0F00",
"O  c #011C24",
"+  c #022529",
"@  c #032B35",
"#  c #00333E",
"$  c #2A3737",
"%  c #5C0000",
"&  c #502506",
"*  c #743816",
"=  c #663313",
"-  c #583729",
";  c #683E26",
":  c #7B3F23",
">  c #7A1606",
",  c #2D423D",
"<  c #765C0C",
"1  c #544332",
"2  c #654933",
"3  c #6F5130",
"4  c #6F6B2E",
"5  c #013B47",
"6  c #163F45",
"7  c #005869",
"8  c #096776",
"9  c #397B74",
"0  c #386F6D",
"q  c #255555",
"w  c #4F4F43",
"e  c #5A6A56",
"r  c #76684E",
"t  c #716C4E",
"y  c #465E60",
"u  c #507568",
"i  c #707165",
"p  c #873517",
"a  c #AE3F38",
"s  c #853029",
"d  c #87571C",
"f  c #876619",
"g  c #92721B",
"h  c #885A36",
"j  c #8C522E",
"k  c #97653A",
"l  c #8E6630",
"z  c #A46836",
"x  c #896846",
"c  c #96684A",
"v  c #8D6D52",
"b  c #A8694E",
"n  c #AF716B",
"m  c #836756",
"M  c #739D39",
"N  c #3DA17D",
"B  c #669657",
"V  c #528F74",
"C  c #51A770",
"Z  c #69B372",
"A  c #6DA54E",
"S  c #78C178",
"D  c #A29C04",
"F  c #A4A21C",
"G  c #BBB31A",
"H  c #B2AA10",
"J  c #8D8829",
"K  c #AE9A38",
"L  c #B1AE33",
"P  c #969C27",
"I  c #C7BC33",
"U  c #C0B617",
"Y  c #CBC329",
"T  c #CAC43A",
"R  c #D3CB3C",
"E  c #DAD23B",
"W  c #D6CC2C",
"Q  c #E5D53C",
"!  c #B5B551",
"~  c #8BBB74",
"^  c #BBB879",
"/  c #B2B16E",
"(  c #A78464",
")  c #D3BA4B",
"_  c #D4946B",
"`  c #CABC6C",
"'  c #D9A762",
"]  c #B4C859",
"[  c #8EC876",
"{  c #B0D46F",
"}  c #CAC747",
"|  c #D3CC47",
" . c #DAD348",
".. c #D7CB58",
"X. c #DBD555",
"o. c #D8D458",
"O. c #C7D85E",
"+. c #E6DB46",
"@. c #E6DB56",
"#. c #E7CE5B",
"$. c #EDE549",
"%. c #FAEE4A",
"&. c #F6EB49",
"*. c #FCF14D",
"=. c #FCF046",
"-. c #ECE558",
";. c #F9EE51",
":. c #FBEE5C",
">. c #F4EA54",
",. c #FDF154",
"<. c #FCF25C",
"1. c #F6F159",
"2. c #D8D668",
"3. c #CBC677",
"4. c #D6CE76",
"5. c #DAD776",
"6. c #CDCF6A",
"7. c #E6D968",
"8. c #E1D26F",
"9. c #DAE977",
"0. c #DAF479",
"q. c #D0E46E",
"w. c #E8E467",
"e. c #F7EA66",
"r. c #EBF568",
"t. c #FDF163",
"y. c #FCF46A",
"u. c #F5F56A",
"i. c #EAE774",
"p. c #EAF873",
"a. c #F7F474",
"s. c #F4EB76",
"d. c #0F798B",
"f. c #2E7181",
"g. c #607F84",
"h. c #1A8294",
"j. c #308D8F",
"k. c #39AB8A",
"l. c #29A99A",
"z. c #36AB96",
"x. c #38B59C",
"c. c #1594A9",
"v. c #3696A7",
"b. c #2A9AA7",
"n. c #1DACAA",
"m. c #1DABB4",
"M. c #1BB5B8",
"N. c #1DB4AC",
"B. c #27AEA8",
"V. c #26B2A7",
"C. c #36B5A6",
"Z. c #37AAB7",
"A. c #25B8B8",
"S. c #33ACB1",
"D. c #488B88",
"F. c #4D8D8F",
"G. c #45A887",
"H. c #5AB483",
"J. c #44AB94",
"K. c #4CB192",
"L. c #70BA8B",
"P. c #729DA7",
"I. c #51A9AD",
"U. c #61A4AA",
"Y. c #22C0BF",
"T. c #77C68F",
"R. c #59C5AB",
"E. c #66C8AE",
"W. c #67D3B1",
"Q. c #50C098",
"!. c #1ABBC8",
"~. c #0CBFDB",
"^. c #1ABBD4",
"/. c #18BDD7",
"(. c #1AAFC9",
"). c #26B9C9",
"_. c #36B7C8",
"`. c #24BDD4",
"'. c #22AEC7",
"]. c #57B7C4",
"[. c #1BC1CC",
"{. c #1AC2C9",
"}. c #06C2DE",
"|. c #0CC2DB",
" X c #0EC2D5",
".X c #14C2D4",
"XX c #1AC1D3",
"oX c #19C2DC",
"OX c #13C3DA",
"+X c #25C1DA",
"@X c #29C1CF",
"#X c #00C5E5",
"$X c #0AC3E2",
"%X c #03C5E8",
"&X c #05C8E8",
"*X c #16C5E2",
"=X c #25C8E3",
"-X c #6FDCC2",
";X c #84B884",
":X c #90B68F",
">X c #ADB28A",
",X c #99B3B5",
"<X c #8EB1B5",
"1X c #9C9481",
"2X c #CBB092",
"3X c #DEA09B",
"4X c #8AC787",
"5X c #94D886",
"6X c #8BD39B",
"7X c #ACD98E",
"8X c #B2E692",
"9X c #80DFBF",
"0X c #AACCA7",
"qX c #93E7AE",
"wX c #A9EAB5",
"eX c #ACECAC",
"rX c #9EE28D",
"tX c #C7C697",
"yX c #CFCF8B",
"uX c #E6DA90",
"iX c #C3E785",
"pX c #CBF384",
"aX c #D1F08B",
"sX c #EEEE83",
"dX c #DAD9A8",
"fX c #D2CCB2",
"gX c #E7CDB2",
"hX c #EAE6AA",
"jX c #EEEBBA",
"kX c #DFE7B4",
"lX c #95D1D8",
"zX c #B5CFCC",
"xX c #88E8C3",
"cX c #9CE8CA",
"vX c #B3F1F6",
"bX c #9FE3D1",
"nX c #C5D7CF",
"mX c #D8EFCF",
"MX c #F7F7C8",
"NX c #FFFFDD",
"BX c #F9F9D4",
"VX c #F1EDCC",
"CX c #D6F3EC",
"ZX c #E9F6ED",
"AX c #FDFDE7",
"SX c #E6FCF6",
"DX c #FBFFF3",
"FX c #F5FFFC",
"GX c #E4D0C5",
/* pixels */
"#X#X#X#X#X#X#X#X#X#X#X#X#X#X#X#X#X#X#X#X#X#X#X#X&X#X#X#X#X#X#X#X#X#X#X#X#X#X#X#X#X#X#X#X#X#X#X#X#X#X#X#X#X#X#X#X#X#X#X#X#X&X#X#X",
"#X%X#X#X#X#X#X#X#X#X#X#X#X#X#X#X#X#X#X#X#X#X#X#X&X&X#X#X#X#X#X#X#X#X#X#X#X#X#X#X#X#X#X#X#X#X#X#X#X#X#X#X#X#X#X#X#X#X#X#X#X#X#X#X",
"#X#X#X#X#X#X#X#X#X#X#X#X#X#X#X#X#X#X#X#X#X#X#X#X#X#X#X#X#X#X#X#X#X#X#X#X#X#X#X#X#X#X#X#X#X#X#X#X#X#X#X#X#X#X#X#X#X#X#X#X#X#X#X#X",
"#X#X#X#X#X#X#X#X#X#X#X#X#X#X#X#X#X#X#X#X#X#X#X#X#X#X#X#X#X#X#X#X#X#X#X%X#X#X#X#X#X#X#X#X#X#X#X#X#X#X#X#X#X#X#X#X#X#X#X#X#X#X#X#X",
"#X#X#X#X#X#X#X#X#X#X#X#X#X#X#X#X#X#X#X#X#X#X#X#X#X#X#X#X#X#X#X&X#X#X#X#X#X#X#X#X#X#X#X#X#X#X#X#X#X#X#X#X#X#X#X#X#X#X#X#X#X#X#X#X",
"#X#X#X#X#X#X#X#X#X#X#X#X#X#X#X#X#X#X#X#X&X#X#X#X#X#X#X#X#X#X#X&X#X#X#X#X#X#X#X%X#X#X#X#X#X#X#X#X#X#X#X#X#X#X#X#X#X#X#X#X#X#X#X#X",
"#X#X#X#X#X#X#X#X#X#X#X#X#X#X#X#X#X#X#X#X#X#X#X#X#X#X#X#X#X#X#X#X#X#X#X#X#X#X#X#X#X#X#X#X#X#X#X#X#X#X#X#X#X#X#X#X#X#X#X#X#X#X#X#X",
"#X#X#X#X#X#X#X%X#X#X#X#X#X#X#X%X#X#X#X#X#X#X#X#X#X#X#X#X#X%X#X#X#X#X#X#X#X#X#X#X#X#X#X&X#X#X#X#X#X#X#X#X#X#X#X#X#X#X#X#X#X#X#X#X",
"#X#X#X#X#X#X#X#X#X#X#X%X#X#X#X#X#X#X#X#X#X#X#X#X#X#X#X#X#X#X#X#X#X#X&X#X#X#X#X#X#X#X#X%X#X#X#X#X#X#X#X#X#X#X#X#X#X#X#X#X#X#X#X#X",
"#X#X#X#X#X#X#X#X#X#X#X#X#X#X#X#X#X#X#X#X#X#X#X#X#X#X#X#X#X#X#X#X#X#X#X#X#X#X#X#X#X#X%X#X#X#X#X#X#X#X#X#X#X#X#X#X#X#X#X#X#X#X#X#X",
"#X#X#X#X#X#X#X#X#X#X#X#X#X#X#X#X#X&X#X#X#X#X#X#X&X#X#X#X#X#X#X#X#X#X#X#X#X#X#X#X#X#X#X#X#X#X#X#X#X#X#X#X#X#X#X#X#X#X#X#X#X#X#X#X",
"#X#X#X#X#X#X#X#X#X#X#X#X#X#X#X#X#X#X#X#X#X#X XOX X}.}.}.}.&X#X#X#X#X#X#X#X&X#X#X#X#X#X#X#X#X#X#X#X#X#X#X#X#X#X#X#X#X#X#X#X#X#X#X",
"#X#X#X#X#X#X#X#X#X#X#X#X#X#X#X#X#X#X#X#X#X XY.N.Y.{..X$X X}.#X#X%X&X#X#X#X#X#X#X#X#X#X#X#X#X#X#X#X#X#X#X#X#X#X#X#X#X#X#X#X#X#X#X",
"#X#X#X#X#X#X#X#X#X#X#X#X}.|.|. X}.#X#X#X#X{.x.qXW.N x.x.x.Y.Y.{.[. X#X#X#X#X#X#X#X#X#X#X#X#X#X#X#X#X#X#X#X#X#X#X#X#X#X#X#X#X#X#X",
"#X#X#X#X#X#X#X#X#X#X#X#XOX!.m.A.}.#X}.&X&XN.rX0.] { q.q.8XZ C k.k.V.{.&X&X&X&X#X#X#X#X#X#X#X#X#X#X#X#X#X#X#X#X#X#X#X#X#X#X#X#X#X",
"#X#X#X#X#X#X#X#X#X#X#X/.A.x.9XC.{.}.&X}. Xk.{ G D +.r.p.a.0.{ 8XeXT.k.N.V.N.{.[.|.|.}.$X#X#X#X#X#X#X#X#X#X#X#X#X#X#X#X#X#X#X#X#X",
"#X#X#X#X#X#X#X#X#X#X#XM.H.8XiX;XB.$X}. XA.H.0.G  .L K ! ! a.i.p.p.0.{ [ { 5XC x.Y.Y. X X#X#X#X#X%X#X#X#X#X#X#X#X#X#X#X#X#X#X#X#X",
"#X#X#X#X#X#X#X#X#X#X&XM.;X{ L 7XS.~.#X{.G.[ } u.i.` yXdXtXK L e.| u.w.p.p.p.8XS Z Q.x.V.Y.{.OX#X#X#X#X#X#X#X#X#X#X#X#X#X#X#X#X#X",
"#X#X#X#X#X#X#X#X#X#X#X[.z.T.aX~ V.%X#XN.S O.R p.yXVXDXFXDXdX3.i.4 6.g sXX.r.r.p.0.0.pX[ C k.A. X$X#X#X#X#X#X#X#X#X#X#X#X#X#X#X}.",
"#X#X#X#X#X#X#X#X#X#X#X|.).z.8X4XA.$X$XV.{ u.1.o.hXDXzXu ,XFX7X2XVXBXMX/ P y.&.=.=.=.1.p.q.qXx.A.~.#X#X#X#X#X#X#X#X#X#X#X#X#X#X#X",
"#X#X#X#X#X#X#X#X#X#X#X}.|.A.Z qXN.OX XV.{ <.E ] dXAX<X+ g.SXnXDXCXZXDXBXyXe.<.=.=.=.;.1.p.{ L.z..X#X#X#X#X#X#X#X#X#X#X#X#X#X#X}.",
"#X#X#X#X#X#X#X#X#X#X#X#X#X/.k.xXC.Y.A.K.0.$.+.a.3.jXCX<XnXnXCX,X6 <XFXAXhX2.<.%.=.=.;.$.I O.8XH.!.#X#X#X#X#X#X#X#X#X#X#X#X#X#X#X",
"#X#X#X#X#X#X#X#X#X#X#X}.#XOXV.-X-XJ.C 5Xp.$.E u.e.3.AXFXFXnXZX,X6 P.FXDXMX4.t.%.=.=.1.E  .i.aX4XN.%X#X#X#X#X#X#X#X#X#X#X#X#X#X#X",
"#X#X#X#X#X#X#X#X#X#X#X#X#X|.^.C.xXC C pXr.,. .+.y.2.yXBXjX2XmXFXzXCXDXNXhX2.t.=.*.,.1.T @.L ..[ V.|.#X#X#X#X#X#X#X&X#X#X#X#X#X#X",
"#X#X#X#X#X#X#X#X#X#X#X#X%X$X|.n.qXZ A 0.r.%.-.I T s.8.! o.s.yXMXDXDXjXuX..#.;.%.,.>.T X.| F L { k.[.~.#X%X#X#X#X#X#X#X#X&X#X#X#X",
"#X#X#X#X#X#X#X#X#X#X#X#X#X#X%X!.T.7XM 0.1.;.I ..X.| +.>.,.<.7.3.dXhX4.#.e.+.+.;.>.Y X.w. .F L aXR.M.^.~.!.XX}.#X#X#X#X#X&X#X#X#X",
"#X#X#X#X#X#X#X#X#X#X#X#X#X#X%X[.K.rXP p.;.;.e.} 8.s.@.;.*.%.;.e.@.X.@.t.+.$.Q ;. .| w.X.X.L } aXW.V.C.R.K.z.^.#X#X#X#X#X#X#X#X#X",
"#X#X#X#X#X#X#X#X#X#X#X#X#X#X#X^.z.;Xq.y.;.;.t...uX4.7.e.e.t.<.:.t.y.:.+.;.;.Q t.| X. .F } 0.iXZ z.C.V 4X7XL.M.%X#X#X#X#X#X#X#X#X",
"#X#X#X#X#X#X#X#X#X#X#X#X#X#X%X^.].mX2.<.>.<.X.5.MXNXc / 2X` 8.7.8.) D -.;.;.:. .R w.X.L ..iXH.V.[.B.;X! ] [ B.$X#X#X#X#X#X#X#X#X",
"#X#X#X#X#X#X#X#X#X#X#X#X#X#X%X/.].CXq.Y H 1.e.3.gXfXr VXBXyX< f f < ) y.%.;.+.I X.X.-.q.aX[ z.@XA.k.8X{ ] eXn.$X}.#X#X#X}.#X#X#X",
"#X#X#X#X#X#X#X#X#X&X#X#X#X#X#XOX^.R.6. .Y ,.<.#.< x m gXAX2Xj l f K t.&.=.,.| #.L L o.9.6XK.C.z.C eX0X6X6Xz.{.#X#X&X#X#X#X#X#X#X",
"#X#X#X#X#X#X#X#X&X#X#X#X#X#X#X#XOXz.{ :.+.*.<.R f c c m v x h l g 7.t.*.,.1.T 7.} P O./ C G.K.-XwXT.C z.l.Y. X#X}.&X#X#X#X#X#X#X",
"#X#X#X#X#X#X#X#X#X#X#X#X#X#X#X~.OXx.pXG H Q ,.@.f j 3X3Xn ( b d #.:.Y Y 1. .} w.5./ ~ B B 4XcXW.l.A.!.XXXX.X#X#X#X#X#X#X#X#X#X#X",
"#X#X#X#X#X#X#X#X#X#X#X#X#X#X#X}. XC.q.G D E *.t.) d _ _ _ _ ' #.t.Y D G  .T X.5./ kX>XL.wX6XC B./.%X#X#X#X%X#X#X#X#X#X#X#X#X#X#X",
"#X#X#X#X#X#X#X#X#X#X#X#X#X#X#X#X$XV.{ X.Y &.%.%.:.#.) #.#.#.e.<.%.W U $.| } L / VXVX>X0XJ.m.).XX}.#X#X#X#X#X#X#X#X#X#X#X#X#X#X#X",
"#X#X#X#X#X#X#X#X#X#X#X#X#X#X#X#X&XN.[ 9.2.w.t.e.:.:.t.t.<.<.=.=.*.,.,.<.| ..6.yXDXZX0XL.'.*X%X#X#X#X#X#X#X#X#X#X#X#X#X#X#X#X#X#X",
"#X#X#X#X#X#X%X#X#X#X#X#X#X#X#X#X#X[.U.mXtX/ 3.i.7.s.s.:.,.,.%.*.W U ,.-.I i.2XVXFXSXlXZ./.$X#X#X#X#X#X#X#X#X#X#X#X#X#X#X#X#X#X#X",
"#X#X#X#X#X#X#X#X#X#X#X#X#X#X#X#X#XXXI.FXDXZX2XdX` f K 7.#.7.e.e.@.X.y.| 2.aX~ zXlXI.'.^.}.#X#X#X#X#X%X#X#X#X#X#X#X#X#X#X#X#X#X#X",
"#X#X#X#X#X#X#X#X#X#X#X#X#X#X#X#X#X`.D.i ( tXgX3XVXv c VXfX^ ` 4.5.5.i.] >X:XzXlXv.`./.~.#X#X#X#X#X%X#X#X#X#X#X#X#X#X#X#X#X#X#X#X",
"#X#X#X#X#X#X#X#X#X#X#X#X#X#X#X#X#X`.z.1 o & 2 c n s n 3XGXAXAXMXBXjX2X{ nXnXzXP.c.oX$X%X#X#X#X#X#X#X#X#X#X#X#X#X#X#X#X%X#X#X#X#X",
"#X#X#X#X#X#X#X#X%X%X%X%X%X%X%X$X~.+XF.w o X ; = % a s s b ( 2XfXVXAXfXfX>Xi ; $ d.=X}.%X#X%X#X#X#X#X#X#X#X#X#X#X#X#X#X#X#X#X#X#X",
"#X#X#X#X#X#X#X#X%X$XoX=X~.}.%X$X!.b.u 3 v k l 3 p a p o j = & 2 h v m w - - ; w f.+X~.%X#X#X#X#X#X#X#X#X#X#X#X#X#X#X#X#X#X#X#X#X",
"#X#X#X#X#X#X#X%X*X(.d.d.c.oX$X/.S.q t l d j h v k p d p j & X X j k 3 ; : 2 2 $ d.+X}.%X%X%X#X#X#X#X#X#X#X#X#X#X#X#X#X#X#X#X#X#X",
"#X#X#X%X#X#X#X~.oXc.f.5 c.^.+X'.k.:X/ h c 4 e u e r r m v v x 3 k z j * * - w D.f.d.'.+X`.*X}.#X#X#X#X#X#X#X#X#X#X#X#X#X#X#X#X#X",
"#X#X#X#X#X#X#X$X^.v.q . d._.v.U.cX;Xt t u j._._._.b.b.j.9 u e i x k j = = - D.v.+ . @ 5 5 c./.#X#X#X#X#X#X#X#X#X#X#X#X#X#X#X#X#X",
"#X#X#X#X#X#X#X~.+Xv.@ O v.Z.U.].G.j.V u j._.|.#X%X$X*X`._.S.F.V u e 2 ; h t V j.+ y       @ ^.%X#X#X#X#X#X#X#X%X#X#X#X#X#X#X#X#X",
"#X#X#X#X#X#X#X$X+Xf.O $ vXvXZ.m.!.[.`.`.XX~.$X#X#X}.}.~.~././.`._.Z.y e v 4 ;XV 0 lX9 5 @ O (.%X#X#X#X#X#X#X#X#X#X#X#X#X#X#X#X#X",
"#X#X#X#X#X#X#X~.'.d.. + lXI.'.*X$X%X#X#X#X#X#X#X#X#X#X#X#X#X#X%X#XXXI.N u V wXwXF.D.U.8 F.8 /.%X#X#X#X#X#X#X#X#X#X#X#X#X#X#X#X#X",
"#X#X#X#X#X#X#X|.(.h.O   d.+X~.%X#X#X#X#X#X#X#X#X#X#X#X#X#X#X#X#X#X$X/.`.).).l.E.eX:XH.C.m.^.$X#X#X#X#X#X#X#X#X#X#X#X#X#X#X#X#X#X",
"#X#X#X#X#X#X#X}.^.c.7 8 /.$X$X#X#X#X#X#X#X#X#X#X#X#X#X#X#X#X#X#X#X#X#X#X#X}.XXB.C wX-Xn.oX#X#X#X#X#X#X#X#X#X#X#X#X#X#X#X#X#X#X#X",
"#X#X#X#X#X#X#X#X}.*X=X*X$X#X#X#X#X#X#X#X#X#X#X#X#X#X#X#X#X#X#X#X#X#X#X#X#X#X~..X).n.M.~.$X#X#X#X#X#X#X#X#X#X#X#X#X#X#X#X#X#X#X#X",
"#X#X#X#X#X#X#X#X#X#X#X#X#X#X#X#X#X#X#X#X#X#X#X#X#X#X#X#X#X#X#X#X#X#X#X#X#X#X#X#X$X&X$X$X#X#X#X#X#X#X#X#X#X#X#X#X#X#X#X#X#X#X#X#X",
"#X#X#X#X%X#X#X#X#X#X#X#X#X#X#X#X#X#X#X#X#X#X#X#X#X#X#X#X#X#X#X#X#X#X#X#X#X#X#X#X#X#X#X$X#X#X#X#X#X#X#X#X#X#X#X#X#X#X#X#X#X#X#X#X",
"#X#X#X#X#X#X#X#X#X#X#X#X#X#X#X#X#X#X#X#X#X#X#X#X#X#X#X#X#X#X#X#X#X#X#X#X#X#X#X#X#X#X#X#X#X#X#X#X#X#X#X#X#X#X#X#X#X#X#X#X#X#X#X#X",
"#X#X#X#X#X#X#X#X#X#X#X#X#X#X#X#X#X#X#X#X#X#X#X#X#X#X#X#X#X#X#X#X#X#X#X#X%X#X#X#X#X#X#X%X%X#X#X#X#X#X#X#X#X#X#X#X#X#X#X#X#X#X#X#X",
"#X#X#X#X}.#X#X#X#X#X#X#X#X#X#X#X#X#X#X#X#X#X#X#X#X#X#X#X#X#X#X#X#X#X#X#X#X#X#X#X#X#X#X%X#X#X#X#X#X#X#X#X#X#X#X#X#X#X#X#X#X#X#X#X",
"#X#X#X#X#X#X#X#X#X#X#X#X#X#X#X#X#X#X#X#X#X#X#X#X#X#X#X#X#X#X#X#X#X#X#X#X#X#X#X#X#X#X#X#X#X#X#X#X#X#X#X#X#X#X#X#X#X#X#X#X#X#X#X#X",
"#X#X#X#X#X#X#X#X#X#X#X#X#X#X#X#X#X#X#X#X#X#X#X#X#X#X#X#X#X#X#X#X&X#X#X#X#X#X#X#X#X#X#X#X#X#X#X#X#X#X#X#X#X#X#X#X#X#X#X#X#X#X#X#X",
"#X#X#X#X#X#X#X#X#X#X#X#X#X#X#X#X#X#X#X#X#X#X#X#X#X#X#X#X#X#X#X#X#X#X#X#X#X#X#X#X#X#X#X#X#X#X#X#X#X#X%X#X#X#X#X#X#X#X#X#X#X#X#X#X",
"%X#X#X#X#X#X#X#X#X#X#X#X#X#X#X#X#X#X#X#X#X#X#X#X#X#X#X#X#X#X#X#X#X#X#X#X#X#X#X#X#X#X#X#X#X#X#X#X#X#X#X#X#X#X#X#X#X#X#X#X#X#X#X#X",
"#X#X#X#X#X#X#X#X#X#X%X#X#X#X#X#X#X#X#X#X#X#X#X#X#X#X#X#X#X#X#X#X#X#X#X#X#X#X#X#X#X#X#X#X#X#X#X%X#X#X#X#X#X#X#X#X#X#X#X#X#X%X#X#X",
"#X#X#X#X#X#X#X#X#X#X#X#X#X#X#X#X#X#X#X#X#X#X#X#X#X#X#X#X#X#X#X#X#X#X#X#X#X#X#X#X#X#X#X#X#X#X%X%X#X#X#X#X#X#X#X#X#X#X#X#X#X#X#X#X",
"#X#X#X#X#X#X#X#X#X#X#X#X#X#X#X#X#X#X#X#X#X#X#X#X#X#X#X#X#X#X#X#X#X#X#X#X#X#X#X#X#X#X#X#X#X#X#X#X#X#X#X#X#X#X#X#X#X#X#X#X#X#X#X#X",
"#X#X#X#X#X#X#X#X#X#X#X#X#X#X#X#X#X#X#X#X#X#X#X#X#X#X#X#X#X#X#X#X#X#X#X#X#X#X#X#X#X#X#X#X#X#X#X#X#X#X#X#X#X#X#X#X#X#X#X#X#X#X#X#X"
};
