/* XPM */
static char *_161_918cbf6224508ad48277ff8c6dec44962973c7cd1e7d771d1be90475b3234443[] = {
/* columns rows colors chars-per-pixel */
"64 64 243 2 ",
"   c #050105",
".  c #160000",
"X  c #130D18",
"o  c #37363C",
"O  c #302B2B",
"+  c #231919",
"@  c #503000",
"#  c #655231",
"$  c #6A4C18",
"%  c #393C49",
"&  c #263B50",
"*  c #3C5A79",
"=  c #334B67",
"-  c #4A4347",
";  c #564C55",
":  c #5D5959",
">  c #454B5A",
",  c #795947",
"<  c #62575B",
"1  c #6E5A4F",
"2  c #78634B",
"3  c #6E6557",
"4  c #47596A",
"5  c #565A6A",
"6  c #475C78",
"7  c #585D77",
"8  c #685E6C",
"9  c #59636C",
"0  c #4A637A",
"q  c #576779",
"w  c #636169",
"e  c #6B676A",
"r  c #746B6A",
"t  c #7D7366",
"y  c #6B6B76",
"u  c #766A77",
"i  c #7B747C",
"p  c #7C797D",
"a  c #797476",
"s  c #65727A",
"d  c #896C2C",
"f  c #89775A",
"g  c #8B6B56",
"h  c #996B68",
"j  c #887669",
"k  c #987966",
"l  c #866D79",
"z  c #966E73",
"x  c #847B7E",
"c  c #857678",
"v  c #947579",
"b  c #A36B6A",
"n  c #A87976",
"m  c #AF7471",
"M  c #935C59",
"N  c #C77D75",
"B  c #A88132",
"V  c #92824F",
"C  c #A78D57",
"Z  c #978669",
"A  c #8B807D",
"S  c #94847B",
"D  c #918B73",
"F  c #AD966D",
"G  c #B29B75",
"H  c #AB936F",
"J  c #B8A36A",
"K  c #CC847D",
"L  c #CDB271",
"P  c #C6A64F",
"I  c #F3CA5E",
"U  c #FAD15F",
"Y  c #F7CE69",
"T  c #EBC777",
"R  c #F8D678",
"E  c #F3D168",
"W  c #3A5E80",
"Q  c #3D6589",
"!  c #496786",
"~  c #556D89",
"^  c #576B85",
"/  c #57738B",
"(  c #587998",
")  c #497097",
"_  c #676B86",
"`  c #687988",
"'  c #797A88",
"]  c #687A95",
"[  c #7A7D90",
"{  c #7C6F81",
"}  c #5378A4",
"|  c #445A89",
" . c #827C83",
".. c #887B8A",
"X. c #8E798A",
"o. c #A97C81",
"O. c #7C838C",
"+. c #6B839C",
"@. c #788598",
"#. c #5982A9",
"$. c #5A8AB8",
"%. c #5F90BB",
"&. c #6886A8",
"*. c #7589A7",
"=. c #698EB5",
"-. c #738BB3",
";. c #6E93B3",
":. c #6795BC",
">. c #7594B9",
",. c #7EA3BD",
"<. c #5C8EC3",
"1. c #5E9BCD",
"2. c #5D95C8",
"3. c #5E9DD2",
"4. c #569DD1",
"5. c #6395C6",
"6. c #649AC6",
"7. c #6B9CC5",
"8. c #6396CB",
"9. c #659DCD",
"0. c #699CCC",
"q. c #6A97C7",
"w. c #739CC3",
"e. c #749DCD",
"r. c #7799C5",
"t. c #659DD1",
"y. c #699BD2",
"u. c #639DDA",
"i. c #659BD4",
"p. c #6D94C9",
"a. c #5EA2CA",
"s. c #5EA0D6",
"d. c #61A0C6",
"f. c #61A0CC",
"g. c #6BA1CD",
"h. c #6CA0C4",
"j. c #74A1CB",
"k. c #7AA2CC",
"l. c #75A1C4",
"z. c #64A1D3",
"x. c #6AA1D3",
"c. c #6AA1D9",
"v. c #65A2D9",
"b. c #74A3D3",
"n. c #848286",
"m. c #8C8384",
"M. c #85838B",
"N. c #8C838C",
"B. c #8D8A8C",
"V. c #898987",
"C. c #948B8E",
"Z. c #9B8D8D",
"A. c #968986",
"S. c #9C938B",
"D. c #95918B",
"F. c #8B8C92",
"G. c #878896",
"H. c #928493",
"J. c #948C93",
"K. c #9A8E93",
"L. c #958C9A",
"P. c #958798",
"I. c #8C959E",
"U. c #949295",
"Y. c #9C9495",
"T. c #93939B",
"R. c #9B949C",
"E. c #9C9A9B",
"W. c #989999",
"Q. c #A68587",
"!. c #B78489",
"~. c #A2968D",
"^. c #A68A94",
"/. c #A39394",
"(. c #A39B95",
"). c #A1949B",
"_. c #A39B9C",
"`. c #AA9999",
"'. c #BA949B",
"]. c #A1A19E",
"[. c #B4A68B",
"{. c #8A95A5",
"}. c #9495A3",
"|. c #9B94A2",
" X c #949AA3",
".X c #9B9BA3",
"XX c #9A9CAB",
"oX c #969CB4",
"OX c #A39BA3",
"+X c #A69BA6",
"@X c #AF98AD",
"#X c #97A5AF",
"$X c #AAA4A5",
"%X c #A7A2A7",
"&X c #BDB7BA",
"*X c #AFAAB0",
"=X c #C98A89",
"-X c #DA9A98",
";X c #CB9797",
":X c #EB958B",
">X c #FB9C8D",
",X c #F4978A",
"<X c #ED9A94",
"1X c #EA9897",
"2X c #F39C94",
"3X c #FB9B92",
"4X c #F59A98",
"5X c #EA8C82",
"6X c #C9B48B",
"7X c #EAA49C",
"8X c #F5A39C",
"9X c #F8A498",
"0X c #F5A58E",
"qX c #D49EA1",
"wX c #E99EA2",
"eX c #D9A5A7",
"rX c #CFB0B4",
"tX c #EAA5A4",
"yX c #E6A5A6",
"uX c #F7A5A4",
"iX c #EFB0AD",
"pX c #D5C196",
"aX c #F8D684",
"sX c #EED38D",
"dX c #CDC1AE",
"fX c #839DCE",
"gX c #C7BFC4",
"hX c #CECDCB",
"jX c #D4CBCB",
"kX c #D4CCD2",
"lX c #D9D5D8",
"zX c #DBD0CA",
"xX c #E4DADB",
"cX c #E9DCD8",
"vX c #E9DAD5",
"bX c #EBE1DE",
"nX c #E6DDE1",
"mX c #DEE2EF",
"MX c #EAE4E9",
"NX c #F4ECEB",
"BX c #FBF7F7",
"VX c #F9F4F0",
"CX c #CBD6E8",
/* pixels */
"t.t.t.t.t.t.0.t.x.9.9.t.t.9.t.t.t.9.t.t.9.t.t.t.t.t.t.t.t.9.t.t.9.t.t.t.9.t.t.9.9.t.t.9.x.9.t.t.9.t.t.9.9.t.t.9.x.9.t.t.9.t.g.t.",
"t.9.9.t.t.t.t.t.9.t.t.t.t.t.t.t.t.t.t.t.t.t.t.9.9.t.t.9.t.t.t.t.t.t.t.t.t.t.t.t.t.t.t.t.t.t.t.t.t.t.t.t.t.t.t.t.t.t.t.t.t.y.t.t.",
"t.t.t.t.t.9.9.t.t.t.t.t.x.9.9.t.9.t.t.9.t.t.x.t.t.t.t.t.9.t.g.t.t.y.x.t.t.t.t.t.t.t.t.t.t.t.t.9.9.x.t.t.t.t.t.t.t.t.t.9.t.9.9.t.",
"t.9.t.t.t.t.t.t.t.t.9.t.9.t.t.t.t.t.t.t.9.t.9.t.t.t.9.t.t.t.t.t.9.t.9.9.9.t.t.9.9.t.t.9.t.9.t.t.t.y.9.t.9.t.t.9.t.9.t.t.t.t.t.t.",
"t.9.t.t.9.t.t.t.t.t.t.t.t.t.9.t.t.9.y.t.t.t.x.9.0.x.t.t.t.t.t.t.9.t.t.9.t.t.9.x.t.9.t.t.t.9.t.t.9.t.t.9.x.9.t.t.t.9.t.t.t.9.t.t.",
"t.t.t.t.t.t.t.9.t.9.t.t.t.t.t.t.t.t.x.9.t.t.9.t.9.t.9.t.t.9.t.9.y.t.t.t.t.t.t.9.t.t.t.t.t.t.t.t.t.t.t.t.t.t.t.t.t.t.t.9.t.t.t.t.",
"t.t.t.9.t.x.9.t.t.9.x.9.9.t.t.9.9.t.t.9.9.t.t.t.t.t.9.t.t.9.t.t.x.9.t.t.t.t.t.t.g.t.t.t.t.t.t.9.t.t.t.t.t.t.t.9.t.t.9.x.t.9.9.t.",
"t.9.t.t.t.9.t.t.t.t.9.y.t.t.t.t.t.t.t.t.t.t.t.9.t.t.t.t.t.t.t.t.9.t.t.9.t.t.9.t.y.t.9.t.t.9.t.t.9.t.t.9.t.9.t.t.t.9.t.t.t.t.t.t.",
"t.t.t.t.9.t.t.9.t.t.t.t.t.x.9.t.t.t.9.t.t.9.t.t.9.t.t.9.t.9.t.t.t.t.9.t.t.9.t.t.9.t.t.9.t.t.t.9.t.t.9.t.t.t.t.9.t.t.9.t.9.t.t.9.",
"t.t.g.t.t.t.t.t.t.9.9.t.t.0.t.t.t.t.t.t.t.t.t.t.t.t.t.x.t.t.t.9.t.t.t.t.t.t.t.t.t.t.9.x.t.9.9.x.9.t.t.t.t.9.x.t.9.t.x.t.t.t.t.t.",
"9.t.9.t.t.y.t.t.t.t.9.t.t.t.t.9.t.g.9.t.t.t.t.9.t.t.t.9.t.t.t.t.t.t.t.t.9.t.t.9.t.t.t.t.t.t.9.t.t.t.t.t.9.t.9.t.t.t.0.t.t.t.t.t.",
"t.t.t.t.t.9.t.t.t.t.t.t.9.t.t.t.t.t.t.t.t.9.t.t.9.t.t.t.t.9.t.t.9.t.t.9.t.t.t.t.t.9.t.t.t.t.t.t.t.t.9.t.t.t.y.t.t.t.t.t.9.t.t.9.",
"t.t.t.t.9.t.t.9.t.t.t.t.t.t.9.t.t.t.t.t.t.t.t.t.t.t.9.t.9.t.t.9.t.t.t.t.9.t.t.t.t.9.t.9.t.t.t.t.9.x.9.9.t.t.t.t.t.t.t.t.t.t.9.t.",
"9.t.t.9.t.t.t.t.y.9.t.t.t.t.t.t.t.9.9.t.t.t.9.t.t.t.t.t.t.t.t.t.t.t.t.t.t.t.t.9.t.t.t.t.t.t.9.t.t.y.t.t.t.t.9.t.t.t.9.t.t.t.t.t.",
"t.t.t.t.t.t.t.t.9.t.9.t.t.t.t.9.t.t.t.t.9.t.t.t.t.9.t.9.t.t.t.t.9.t.9.t.t.9.t.t.t.t.t.t.9.t.t.t.t.t.t.t.t.t.t.t.9.t.t.t.t.9.t.9.",
"9.g.9.y.y.t.t.t.9.x.t.t.t.t.9.g.9.t.t.i.t.t.t.g.t.x.t.9.t.t.t.t.x.t.t.t.9.x.t.t.0.9.9.t.x.9.t.t.9.9.t.t.t.t.t.i.t.t.t.t.t.x.y.0.",
"f.f.0.y.y.i.i.i.i.z.9.9.0.9.f.f.f.9.t.i.i.v.i.s.z.9.f.f.9.t.z.i.3.t.i.y.t.z.t.9.9.9.9.9.9.i.i.t.x.9.1.u.i.y.i.u.i.i.z.u.i.t.9.0.",
"f.9.0.y.y.y.y.i.t.1.9.9.y.t.1.9.9.9.t.i.i.i.i.t.f.6.8.g.z.t.i.i.i.x.c.t.3.t.t.9.9.9.9.9.i.t.t.t.9.g.i.c.0.y.y.8.i.z.u.i.z.t.0.7.",
"y.y.y.0.1.a.i.i.t.z.z.i.i.i.8.t.g.t.t.y.0.9.9.9.9.9.g.9.9.9.c.t.9.0.9.0.t.t.i.i.t.z.t.9.0.9.9.t.i.z.a.f.q.7.x.x.t.0.y.t.9.z.9.9.",
"y.y.y.0.a.a.f.t.t.t.9.q.z.z.i.9.t.t.t.0.0.0.0.0.9.t.9.3.t.i.i.q.q.0.9.9.x.i.y.y.3.t.t.t.y.0.i.9.3.i.h.:.l.w.:.9.9.9.7.0.a.9.t.t.",
"i.i.t.9.d.d.0.9.i.y.p.p.t.i.y.y.t.t.t.9.0.e.0.0.t.t.9.t.t.y.i.y.9.9.9.t.i.y.y.u.t.3.t.t.i.9.9.9.c.q.oX] ] } #.b.9.9.0.0.t.t.t.i.",
"z.z.i.9.d.d.0.e.<.p.r.r.h.e.y.y.i.s.s.t.9.0.0.0.9.c.i.t.y.y.y.y.9.9.t.t.y.i.y.8.z.t.t.t.t.9.9.e.w.*.5 ..oX-.7.8.f.g.f.9.t.t.i.y.",
"s.f.i.t.a.9.i.y.} | ^ _ ] =.0.e.a.z.t.9.t.t.i.i.i.t.i.i.b.9.$.$.2.3.t.z.y.y.i.t.i.t.i.9.g.9.p.*._ 8 '.gXG.-.7.z.t.z.t.0.y.i.i.i.",
"f.9.i.t.f.9.i.y.b.] @XX.y _ / #.7.9.0.9.z.s.s.i.i.9.0.9.:.) ) q.%.%.$.$.<.2.4.s.s.i.0.7.>.=.] _ v qXtX;X[ r.5.i.i.t.t.i.y.y.i.z.",
"7.0.t.t.f.f.i.i.9.>.X.gX'.X.X...q } l.h.1.s.v.1.9.6.l.( * / ( W * ( &.:.5.<.4.4.z.9.q.l.( q L.v 7X<XuX!.@.j.i.i.i.i.a.t.i.i.z.9.",
"0.0.y.i.z.t.i.i.x.>.{ ;XiXqXz X.}.q / ;.j.z.9.9.7.w.( = q = & 4 / / &.;.>.b.2.z.9.k.>.0 ` $Xj -X2X,X9Xn *.y.i.t.i.t.9.a.i.i.9.9.",
"0.0.t.i.0.t.t.t.i.k.[ P.-X8XuXm z @X[ 0 &.:.g.>.>.q q 9 5 s 9 ` +.O.4 = / +.:.l.l.( 0 O.$XZ K 9X>X,X1XX.-.y.i.z.z.9.a.f.f.z.9.7.",
"0.y.t.9.9.t.0.9.c.p.-.X.wX3X5X4Xn h +XXX] +.;.>.* 0 ' M.r %   o I.#X%   & +./ *./ q  X%X~.M 9X0X>X<XwXX.r.u.t.9.f.f.9.9.f.f.f.0.",
"y.y.z.9.3.f.6.0.8.b.>.' wX,X,X1X7Xh v /..X@.] 4 9  XT.-     o B. X XL.%   + @.@.` .XW.`.h -X2X3X>X0XeX{ e.u.i.a.9.9.y.p.9.f.f.f.",
"9.9.9.t.i.z.f.0.8.e.r.` qX2X,X,X:X1Xh '.^.R.I.G.I..X{   X c +X.X.XT..X*Xe   - %X.XW.$XQ.b uX9X>X>X8XeX{ p.u.8.9.9.y.y.e.9.9.f.f.",
"9.f.9.t.s.v.a.f.y.p.j.] ;X4X1X1X<X1X=Xh /.).J.T.U.W.O X N.%XR.T.|..XR.R.*X- + %X X.X%Xv =X9X3X>X3X9XeXu r.u.9.0.i.s.i.i.y.0.y.y.",
"9.f.9.9.u.3.1.f.y.0.0.] ;X8X1X4X1X1X7Xn o./.R.U.E.o O |.+XN.F.XXR.R. .J.%XF.; +XE..XY.v tX4X9X>X>X0XeXu r.i.e.0.i.u.i.i.9.y.y.y.",
"9.9.9.z.u.i.f.9.y.c.b.] =X4X4X1X1X:X1X-Xv C.T.J.a r +X@Xc c }.}.}.OXp t $X].x Y.OXE.T.v tX3X0X>X0X1XqX{ fXi.t.8.0.0.9.i.t.t.i.y.",
"9.9.a.i.u.y.0.0.c.u.b.] o.4X1X4X2X2X<X=X1 Z.J.U.D.].Q.k 2 `. X{.L.+Xt 3 D ]._.K.).R.OXl -X2X9XK T uX=X_ r.9.z.9.7.7.9.t.9.t.y.i.",
"9.9.f.t.u.y.t.9.y.i.b.] X.wX4X<X4XN N h Q.K.OXJ.S.2 d 6XG ~.OX|.W.D V sXV Z `.OXOX@X.Xm.n N 0X>X3XuX^._ j.3.z.9.9.0.f.z.z.t.t.i.",
"9.9.9.t.i.y.9.9.y.u.c.} { yX:X4X3XK M n /.).R.A.2 L T aXZ H ).R..XZ C R sXF S `.R.R.R.`.M b 0X,X3XuXX.] g.a.9.0.t.z.t.s.9.t.9.9.",
"9.f.z.9.y.y.9.9.u.t.i.e.] o.yX:X3X4Xn X.`.C.).j J R I E J Z ]._._.f T Y R sXf (.S.E.$X~.b 1X3X3X,XwX7 ;.6.f.0.t.i.z.3.z.9.0.g.9.",
"g.9.t.t.y.0.9.t.i.i.i.b.] 5 rX4X5X4Xz v (././.f L I I I L Z S._.Z.Z R I I T G ~.].D.W.`.b uX3X,XuXo._ 7.d.f.0.y.i.s.i.t.9.9.9.f.",
"9.t.t.y.9.0.f.s.z.3.i.q.e.^ X.iX1XwXz o.(.S.Z.Z T U E aXT f ].(.A.G aXR U R F S.(.].E.^.b 8X2XtXrX_ -.0.g.9.q.y.u.u.y.t.9.g.0.9.",
"f.t.i.i.0.9.9.z.3.i.i.i.p.r.7 X.eXeXj c S.S.`.Z T E P d pXk ~.E.A.Z @ B U R G S.E.]._.c o.iXeXeX..] e.i.9.7.0.0.u.u.t.9.0.0.9.9.",
"f.i.u.i.9.0.0.g.3.s.z.9.t.w.>._ X.'.j J.D.U.m.Z R sX$ . C Z S S S # . d R E H S.Y._.].(.v v ^...+.l.c.i.8.0.0.0.i.i.9.7.9.9.9.t.",
"1.z.i.u.0.7.0.t.s.3.9.9.0.y.8.oXG.; m._.n. .C.j J sX#   g H ~.S.D.3 + J aXL f K.R.R.].Y.`.x ; ] ,.:.t.u.y.p.g.6.i.y.9.0.9.g.i.i.",
"f.3.u.y.9.0.0.i.z.4.9.9.9.y.e.>.7 ' OXY.L.OXR.Y.D [.dX# [.v O O O t [.pX6Xf S._.|.@X+XOX].$X.X4 ! l.y.u.y.b.2.x.i.t.9.9.g.f.i.v.",
"z.9.i.y.9.9.9.y.3.9.0.q.9.0.q.) _ oXR.R.K.|.L.R.D t D G VXzX-   3 VXrXj 1 t C.M.X.H.P.T.U.W.#X#X] ! p.t.z.9.x.8.z.t.f.f.9.t.3.u.",
"9.t.y.t.9.9.t.t.9.g.9.9.9.e.#.~ oX|.L.P...{ { ' a : 3 S.&XlXBX&XBXlX$X< e J.O.V.|.X.T.H.N.B.n.M.oX] ) j.2.z.z.9.g.3.f.9.9.f.i.v.",
"9.9.9.9.9.t.i.t.y.9.0.0.9.:.0 @.G.G.N.N.P.|.L.L.V.a r *XhXhXBXNXBXlXhX: u B.F.U.L.+XE..X+X}. X}.' G.~ #.x.1.i.i.t.9.g.f.6.f.u.3.",
"t.9.g.9.i.i.y.i.9.6.<.8.5.( q W.U.W.}.L.G.M.' p e p i F.VXBXVXnXBXBXhXe m.C.n.O.M.M.M.F.}.I.*.I.p > ` / 0.z.u.i.i.t.t.9.0.9.i.u.",
"e.9.9.f.t.y.u.y.9.8.8.8.q.( {.W.G.s O.' ' O.G.B.F.T.+Xi hXMXkXkXzXbXW.V.V.U.U.XX X@.` q ^ ` +.+.@.q 0 Q 6.3.u.i.y.i.9.9.0.9.t.i.",
"i.0.y.i.i.i.z.t.9.9.9.7.w.#.&.^ & = W ~ ` +.G.{.T.L.R.A (.jXlXBXVXS.A ).U.I. X` / ( =.6.h.>.w.r.h.%.#.#.8.9.z.9.i.t.9.t.9.0.t.t.",
"y.y.i.t.3.i.i.z.9.x.6.7.7.Q ) #.=.q.0.:.&.( ~ ^ G. XB.C.m.bXnXkXjXa c R. X@.0 ( >.d.z.z.a.9.9.t.1.1.z.a.z.i.y.z.t.t.t.t.t.t.t.t.",
"y.9.9.t.z.t.i.t.c.5.9.9.$.#.w.>.j.7.:.w.l.w.r.&.~ @. XO.p A xXnXU.r ...X] 0 -.l.0.0.9.3.f.9.y.y.i.t.t.t.t.9.9.9.9.t.t.t.t.t.t.t.",
"9.9.t.9.i.t.t.t.9.9.q.<.y.0.0.g.q.b.q.9.g.6.q.j.=.! @.G.e X.x N.' w |._ ! >.j.q.0.0.i.z.z.i.u.i.t.t.9.t.9.i.t.t.t.t.9.t.t.9.t.t.",
"9.9.g.9.t.z.t.t.i.2.i.t.t.t.9.q.e.q.9.t.t.y.y.8.k.-.0 G.B.r c c e M.[ ^ k.b.8.i.0.y.t.t.9.i.u.u.i.t.9.c.9.t.t.t.t.t.9.x.t.t.t.y.",
"t.9.9.9.t.9.z.t.i.t.v.i.i.y.u.i.0.y.9.1.z.u.y.e.&.! 4 5 F.N.c 8 < y > ] e.i.u.3.9.0.0.9.9.t.u.u.i.9.9.x.9.9.9.t.t.9.t.y.9.t.t.9.",
"z.z.9.z.9.9.9.t.9.t.t.z.v.i.i.i.y.t.z.z.1.8.b.&.! *.' w C.a r ; r ' G.6 :.v.3.z.9.9.0.x.g.t.i.i.z.t.9.t.i.t.t.t.t.t.t.9.9.t.t.9.",
"9.t.t.9.9.t.t.9.9.z.9.i.i.t.v.i.i.y.1.z.g.0.>.! @.{.w x x m.< c Y.F. X_ Q z.3.9.9.7.0.0.9.9.z.t.9.i.t.t.9.t.t.9.t.9.t.t.t.t.t.t.",
"t.i.t.y.9.t.0.9.0.9.9.t.z.t.i.z.i.i.t.s.9.7.-.^ }.r +XZ.jXc r K.N.C.F.@.* g.z.z.0.0.9.9.9.t.9.9.t.t.t.t.9.t.t.9.t.t.t.9.t.t.9.t.",
"i.t.y.y.y.0.0.0.0.0.9.9.9.9.t.t.i.v.i.1.9.w.&.[ u C.jXxXcXr Y.m.A.K.J.O.* g.9.9.9.9.9.t.t.t.0.9.t.9.t.t.t.t.t.t.9.t.t.9.t.t.t.t.",
"y.i.y.t.y.0.9.9.0.0.9.9.9.f.9.t.9.t.v.3.9.j.&.s ' gXjXBXr i C.X.N.H.Z.' * j.9.8.y.9.u.u.i.u.9.0.t.9.9.t.t.y.t.t.t.t.9.x.9.t.t.9.",
"i.t.t.y.t.t.t.t.9.9.9.0.0.0.9.9.9.i.v.i.9.j.-.6 CX&XNXjX:  .J.N.X.N.C.y = k.q.0.9.t.u.u.u.y.y.9.t.t.t.t.t.g.t.9.t.t.t.t.t.t.t.t.",
"t.t.t.t.t.i.t.t.t.9.9.9.9.9.0.9.0.y.i.4.c.7.] {.MX&XBXK.: B...N.H.N.D.9 * k.0.t.0.9.i.3.u.u.9.9.t.t.9.x.t.9.t.t.9.t.t.9.t.9.t.t.",
"t.t.9.t.t.i.t.3.t.9.x.z.9.9.9.0.0.9.3.t.9.0.( CXkXxXNXc r m.N.N.H.B.V.9 6 e.0.0.g.0.i.v.u.i.9.f.9.t.t.9.t.t.t.t.t.t.t.t.t.t.t.t.",
"g.9.t.t.t.t.i.3.i.z.i.i.y.t.y.0.0.0.z.z.2.l.] mXcXbXvXe V.n. . .M.B.V.9 ! 7.9.9.9.6.9.t.i.t.f.9.9.t.t.t.9.t.t.t.t.t.t.t.t.t.0.x.",
"9.9.z.t.s.z.s.v.3.i.i.y.t.t.y.0.0.t.t.9.t.:.*.mXbXvXvXr x n. . .[ ..n.4 ! :.9.0.h.6.9.z.i.t.f.9.g.t.9.t.x.9.t.t.9.t.t.9.t.t.9.t."
};
